<svg fill="#000000" xmlns="http://www.w3.org/2000/svg"  viewBox="0 0 100 100" width="100px" height="100px"><path d="M 51 14 C 31.701 14 16 29.701 16 49 C 16 62.159422 23.303185 73.640593 34.066406 79.617188 C 38.181581 82.37217 43.380601 83.38062 46.859375 83.759766 C 47.008434 83.777024 47.161086 83.791113 47.3125 83.806641 C 47.903707 83.864344 48.415937 83.909585 48.869141 83.935547 C 48.92254 83.938644 48.975635 83.94244 49.029297 83.945312 C 49.753412 83.983592 50.334685 84 50.541016 84 C 50.618721 84 50.692313 83.994618 50.769531 83.994141 C 50.846685 83.994643 50.92273 84 51 84 C 51.156625 84 51.514819 83.992688 51.980469 83.974609 C 54.94709 83.89239 57.820914 83.441428 60.560547 82.662109 C 60.565649 82.660695 60.571069 82.659621 60.576172 82.658203 C 60.986005 82.541416 61.393281 82.418345 61.796875 82.287109 C 61.941511 82.24038 62.085709 82.189941 62.230469 82.140625 C 76.035409 77.449334 86 64.370857 86 49 C 86 29.701 70.299 14 51 14 z M 51 16 C 67.09048 16 80.519581 27.57865 83.414062 42.839844 C 81.66392 42.115422 79.409688 39.71869 77.669922 32.757812 C 77.601922 32.487813 77.423687 32.257047 77.179688 32.123047 C 76.934687 31.989047 76.646812 31.965734 76.382812 32.052734 C 73.869813 32.890734 73.205016 35.281062 73.041016 36.789062 L 64.771484 35.134766 C 65.554374 33.17952 66.66941 30.744653 67.707031 29.707031 C 67.993031 29.421031 68.078828 28.991187 67.923828 28.617188 C 67.768828 28.244187 67.404 28 67 28 L 62.617188 28 L 63.894531 25.447266 C 64.049531 25.137266 64.033563 24.769609 63.851562 24.474609 C 63.668563 24.180609 63.347 24 63 24 C 62.834 24 59.301359 24.029281 55.693359 26.363281 L 55.585938 25.828125 L 58.707031 22.707031 C 58.993031 22.421031 59.078828 21.991187 58.923828 21.617188 C 58.768828 21.244187 58.404 21 58 21 L 53.949219 21 L 51.894531 16.884766 C 51.555531 16.205766 50.444469 16.205766 50.105469 16.884766 L 48.050781 21 L 44 21 C 43.596 21 43.231172 21.244187 43.076172 21.617188 C 42.921172 21.991187 43.006969 22.421031 43.292969 22.707031 L 46.414062 25.828125 L 46.306641 26.363281 C 42.698641 24.029281 39.166 24 39 24 C 38.653 24 38.332391 24.180609 38.150391 24.474609 C 37.968391 24.769609 37.950469 25.137266 38.105469 25.447266 L 39.382812 28 L 35 28 C 34.596 28 34.230172 28.244187 34.076172 28.617188 C 33.921172 28.991187 34.008922 29.421031 34.294922 29.707031 C 35.570543 30.982652 36.85507 33.62909 37.546875 35.171875 C 37.327574 35.027412 37.057608 34.963577 36.783203 35.023438 L 28.878906 36.779297 C 28.621906 35.293297 27.820406 32.885781 25.316406 32.050781 C 25.051406 31.961781 24.761578 31.988047 24.517578 32.123047 C 24.273578 32.257047 24.096297 32.487812 24.029297 32.757812 C 22.397683 39.28512 20.310896 41.796228 18.613281 42.683594 C 21.569276 27.499341 34.964221 16 51 16 z M 51 19.570312 L 52.435547 22.445312 C 52.604547 22.785313 52.951078 23 53.330078 23 L 55.585938 23 L 53.791016 24.792969 C 53.555016 25.029969 53.451578 25.369266 53.517578 25.697266 L 54.037109 28.287109 C 54.106109 28.631109 54.351641 28.91325 54.681641 29.03125 C 55.012641 29.15025 55.381344 29.087234 55.652344 28.865234 C 57.660344 27.223234 59.815531 26.521656 61.269531 26.222656 L 60.105469 28.552734 C 59.950469 28.862734 59.966437 29.230391 60.148438 29.525391 C 60.331437 29.819391 60.653 30 61 30 L 65.015625 30 C 63.946625 31.758 63.015141 34.050312 62.494141 35.445312 C 58.595141 32.954312 54.547156 32.136719 50.910156 32.136719 C 45.732156 32.136719 41.390766 33.794578 39.509766 34.642578 C 39.005766 33.500578 38.098734 31.582 37.052734 30 L 41 30 C 41.347 30 41.668609 29.819391 41.849609 29.525391 C 42.031609 29.230391 42.047578 28.862734 41.892578 28.552734 L 40.728516 26.222656 C 42.182516 26.522656 44.338703 27.224234 46.345703 28.865234 C 46.617703 29.087234 46.986406 29.15025 47.316406 29.03125 C 47.647406 28.91225 47.891937 28.631109 47.960938 28.287109 L 48.480469 25.697266 C 48.546469 25.369266 48.444031 25.028969 48.207031 24.792969 L 46.414062 23 L 48.669922 23 C 49.048922 23 49.395453 22.785312 49.564453 22.445312 L 51 19.570312 z M 51 26.830078 C 50.78875 26.830078 50.577891 26.895797 50.400391 27.029297 L 48.839844 28.199219 C 48.494844 28.457219 48.354234 28.907406 48.490234 29.316406 C 48.626234 29.725406 49.008453 30 49.439453 30 L 52.560547 30 C 52.991547 30 53.373766 29.725406 53.509766 29.316406 C 53.645766 28.908406 53.504156 28.457219 53.160156 28.199219 L 51.599609 27.029297 C 51.422109 26.895797 51.21125 26.830078 51 26.830078 z M 47.986328 34.388672 C 45.632563 35.840304 44 38.925975 44 42.5 C 44 45.041667 44.827908 47.336321 46.150391 48.974609 C 46.153219 48.988427 46.15024 49.001843 46.154297 49.015625 C 46.807297 51.241625 46.209437 53.362828 44.398438 55.173828 L 44.294922 55.279297 C 44.104922 55.478297 44.1125 55.795328 44.3125 55.986328 C 44.4095 56.078328 44.53225 56.125 44.65625 56.125 C 44.78825 56.125 44.921531 56.07275 45.019531 55.96875 L 45.132812 55.853516 C 46.778013 54.208316 47.533824 52.233146 47.367188 50.179688 C 48.427782 51.012313 49.668947 51.5 51 51.5 C 52.386455 51.5 53.67514 50.971833 54.763672 50.074219 C 54.718964 51.849486 55.31356 54.020591 57.146484 55.853516 C 58.904484 57.611516 59.414078 59.573563 58.705078 61.851562 C 58.623078 62.115562 58.771156 62.396516 59.035156 62.478516 C 59.084156 62.493516 59.134594 62.5 59.183594 62.5 C 59.396594 62.5 59.594156 62.362391 59.660156 62.150391 C 60.478156 59.520391 59.870516 57.165438 57.853516 55.148438 C 55.826516 53.120438 55.508719 50.637281 55.886719 48.988281 C 55.891352 48.9685 55.886496 48.949377 55.888672 48.929688 C 57.189177 47.294562 58 45.017521 58 42.5 C 58 38.96195 56.399525 35.903241 54.083984 34.433594 C 55.646028 34.665944 57.24129 35.082639 58.830078 35.769531 C 61.555491 39.451857 61.715927 41.491347 61.03125 43.324219 C 60.93425 43.582219 61.065219 43.87175 61.324219 43.96875 C 61.382219 43.99075 61.442 44 61.5 44 C 61.703 44 61.89375 43.875828 61.96875 43.673828 C 62.771362 41.524725 62.411238 39.4311 60.695312 36.703125 C 61.0732 36.92002 61.448462 37.155138 61.822266 37.40625 L 62.707031 38.556641 C 64.922031 42.412641 64.329469 44.670156 63.355469 46.535156 C 63.251469 46.733156 63.148828 46.919656 63.048828 47.097656 C 61.674828 49.560656 61.514906 51.204234 65.753906 56.615234 C 68.184906 59.718234 66.626297 62.571125 64.779297 64.953125 C 64.633297 65.141125 64.510828 65.300781 64.423828 65.425781 L 64.199219 65.734375 C 63.498219 66.688375 62.541016 67.997 62.541016 71 C 62.541016 73.524 64.77025 76.413703 66.03125 77.845703 C 65.442154 78.227284 64.524399 78.748301 63.361328 79.291016 C 63.179332 78.297433 62.556911 76.728043 60.947266 74.277344 C 59.028266 70.438344 60.012016 68.635297 61.916016 65.779297 C 62.071016 65.545297 62.227859 65.31775 62.380859 65.09375 C 63.894859 62.88275 65.324547 60.793188 63.310547 57.242188 C 63.173547 57.002187 62.868906 56.915687 62.628906 57.054688 C 62.388906 57.190688 62.303453 57.496328 62.439453 57.736328 C 64.145453 60.743328 63.058687 62.332297 61.554688 64.529297 C 61.399687 64.755297 61.241984 64.985656 61.083984 65.222656 C 59.027984 68.305656 57.933031 70.485391 60.082031 74.775391 C 61.966193 77.648215 62.355175 79.076002 62.408203 79.726562 C 62.408203 79.726562 62.40625 79.726562 62.40625 79.726562 C 61.483867 80.111127 60.39178 80.481629 59.201172 80.818359 C 59.505288 79.823438 59.539959 78.405641 58.417969 76.722656 C 56.361969 73.639656 54.632391 69.990781 57.400391 66.300781 C 57.861391 65.685781 58.265563 65.079953 58.601562 64.501953 C 58.739562 64.261953 58.658922 63.955406 58.419922 63.816406 C 58.178922 63.677406 57.875328 63.759047 57.736328 63.998047 C 57.420328 64.543047 57.037609 65.115219 56.599609 65.699219 C 53.439609 69.912219 55.465031 74.100344 57.582031 77.277344 C 58.793714 79.09417 58.379678 80.455275 57.994141 81.144531 C 55.919928 81.636625 53.507937 81.975778 50.769531 81.994141 C 50.76821 81.994132 50.766946 81.99415 50.765625 81.994141 C 50.302567 81.990886 49.841209 81.981223 49.382812 81.958984 C 49.26801 81.953544 49.15848 81.944045 49.044922 81.9375 C 48.60606 81.911712 48.168515 81.880744 47.734375 81.837891 C 47.638082 81.828486 47.54452 81.816804 47.449219 81.806641 C 47.001541 81.758513 46.555471 81.702641 46.113281 81.636719 C 46.033074 81.624737 45.952465 81.612097 45.873047 81.599609 C 45.376514 81.521825 44.88353 81.433729 44.394531 81.333984 C 43.999712 80.72784 43.370692 79.26503 44.695312 77.277344 C 44.848312 77.048344 44.786641 76.736984 44.556641 76.583984 C 44.326641 76.429984 44.015281 76.493656 43.863281 76.722656 C 42.645014 78.550057 42.794054 80.053628 43.167969 81.052734 C 43.113606 81.039448 43.058164 81.029181 43.003906 81.015625 C 41.828628 80.71384 40.80357 80.362251 39.867188 80.001953 C 39.822348 79.570301 39.945205 78.206114 42.226562 74.722656 C 43.077563 73.020656 43.025 70.634281 43 69.488281 C 42.994 69.216281 42.771 69 42.5 69 L 42.488281 69 C 42.212281 69.006 41.994 69.236719 42 69.511719 C 42.024 70.578719 42.072328 72.796562 41.361328 74.226562 C 39.528267 77.021276 38.979589 78.649534 38.888672 79.615234 C 37.363178 78.959509 36.215223 78.30253 35.509766 77.845703 C 36.770766 76.413703 39 73.523 39 71 C 39 67.997 38.042797 66.688375 37.341797 65.734375 L 37.117188 65.425781 C 37.030187 65.300781 36.907719 65.141125 36.761719 64.953125 C 34.914719 62.571125 33.356109 59.718234 35.787109 56.615234 C 40.027109 51.203234 39.867188 49.560656 38.492188 47.097656 C 38.392187 46.918656 38.289547 46.733156 38.185547 46.535156 C 37.207547 44.661156 36.612031 42.389734 38.832031 38.552734 L 40.164062 36.554688 C 40.762581 36.284167 41.727829 35.885076 42.984375 35.484375 C 40.653388 38.946597 40.193207 43.689309 41.039062 45.693359 C 41.119062 45.884359 41.305 46 41.5 46 C 41.565 46 41.630312 45.986937 41.695312 45.960938 C 41.949312 45.853938 42.069891 45.560641 41.962891 45.306641 C 41.135897 43.346949 41.806285 38.17301 44.591797 35.029297 C 45.618046 34.766353 46.758188 34.541093 47.986328 34.388672 z M 51 34.5 C 53.066351 34.5 54.893092 35.900092 55.972656 38.025391 C 52.058041 38.293031 52 41.466473 52 41.5 C 52 41.776 52.224 42 52.5 42 C 52.776 42 53 41.776 53 41.5 C 53 41.48219 53.022538 41.330084 53.042969 41.197266 A 2 1 0 0 0 55 42 A 2 1 0 0 0 56.921875 41.277344 C 56.968206 41.677241 57 42.08308 57 42.5 C 57 46.911 54.309 50.5 51 50.5 C 47.691 50.5 45 46.911 45 42.5 C 45 42.08174 45.031502 41.674557 45.078125 41.273438 A 2 1 0 0 0 47 42 A 2 1 0 0 0 48.96875 41.173828 C 48.991591 41.36193 49 41.497752 49 41.501953 C 49.001 41.776953 49.225 42 49.5 42 L 49.501953 42 C 49.777953 41.999 50 41.775 50 41.5 C 50 41.419 49.985203 39.501797 48.658203 38.466797 C 47.992065 37.946249 47.129271 37.765303 46.103516 37.892578 C 47.191073 35.844383 48.978407 34.5 51 34.5 z M 25.636719 34.503906 C 26.966719 35.695906 27 37.975 27 38 C 27 38.303 27.138 38.589297 27.375 38.779297 C 27.611 38.969297 27.921797 39.042563 28.216797 38.976562 L 31.919922 38.152344 C 30.666172 39.331668 29.343084 40.946057 28.166016 43.058594 C 26.94044 43.260405 25.841544 43.83984 24.689453 44.470703 C 23.681453 45.022703 22.639844 45.591391 21.339844 46.025391 L 21.222656 46.064453 C 20.959656 46.148453 20.815438 46.428406 20.898438 46.691406 C 20.966437 46.904406 21.163 47.041016 21.375 47.041016 C 21.425 47.041016 21.476391 47.032625 21.525391 47.015625 L 21.65625 46.972656 C 23.04025 46.511656 24.171922 45.892656 25.169922 45.347656 C 26.016845 44.884352 26.782658 44.474007 27.5625 44.222656 C 26.902421 45.582864 26.300244 47.107816 25.822266 48.873047 C 25.450485 49.059801 25.077219 49.259183 24.691406 49.470703 C 24.318406 49.675703 23.930484 49.887703 23.521484 50.095703 C 23.275484 50.220703 23.179688 50.521578 23.304688 50.767578 C 23.392688 50.940578 23.568 51.041016 23.75 51.041016 C 23.827 51.041016 23.904563 51.023328 23.976562 50.986328 C 24.393563 50.773328 24.789875 50.556656 25.171875 50.347656 C 25.284689 50.286028 25.391178 50.23198 25.501953 50.171875 C 25.310824 51.021149 25.14444 51.914948 25.009766 52.857422 C 24.935973 53.373791 24.881468 53.885324 24.835938 54.392578 C 24.78541 54.420165 24.738526 54.444749 24.6875 54.472656 C 23.6805 55.022656 22.638797 55.592391 21.341797 56.025391 C 20.233207 56.394778 19.417004 56.407265 18.824219 56.304688 C 18.51825 54.956416 18.28902 53.578614 18.154297 52.173828 C 18.513028 52.283393 18.943173 52.363281 19.466797 52.363281 C 20.078797 52.363281 20.80525 52.259609 21.65625 51.974609 C 21.78325 51.932609 21.90825 51.88875 22.03125 51.84375 C 22.29025 51.74775 22.423125 51.460172 22.328125 51.201172 C 22.233125 50.941172 21.947547 50.809297 21.685547 50.904297 C 21.573547 50.945297 21.458797 50.986391 21.341797 51.025391 C 19.646077 51.590413 18.60965 51.338451 18.072266 51.080078 C 18.029178 50.391408 18 49.699339 18 49 C 18 48.37434 18.020146 47.753895 18.054688 47.136719 C 18.37911 47.246066 18.751222 47.337643 19.226562 47.359375 L 19.25 47.359375 C 19.516 47.359375 19.737 47.150812 19.75 46.882812 C 19.762 46.607812 19.549437 46.372375 19.273438 46.359375 C 18.76636 46.33602 18.402297 46.221289 18.134766 46.101562 C 18.16803 45.7214 18.207805 45.343194 18.253906 44.966797 C 21.478912 44.154311 23.899872 40.726192 25.636719 34.503906 z M 76.066406 34.521484 C 77.804406 40.741484 80.227078 44.163703 83.455078 44.970703 C 83.553896 44.995638 83.651206 44.989369 83.748047 44.984375 C 83.787519 45.308087 83.825479 45.632479 83.855469 45.958984 C 83.420236 46.237067 82.330839 46.682335 80.355469 46.025391 C 79.852469 45.857391 79.355937 45.659969 78.835938 45.417969 C 78.585937 45.299969 78.288875 45.410156 78.171875 45.660156 C 78.055875 45.910156 78.164062 46.207219 78.414062 46.324219 C 78.968063 46.581219 79.500062 46.794609 80.039062 46.974609 C 80.891063 47.259609 81.618469 47.363281 82.230469 47.363281 C 82.963602 47.363281 83.521716 47.21051 83.935547 47.03125 C 83.974133 47.68327 84 48.338465 84 49 C 84 51.486032 83.714978 53.906034 83.191406 56.236328 C 82.582724 56.401944 81.638717 56.452151 80.275391 55.998047 C 80.013391 55.919047 79.770547 56.070031 79.685547 56.332031 C 79.600547 56.593031 79.778063 56.887609 80.039062 56.974609 C 80.891063 57.258609 81.618469 57.363281 82.230469 57.363281 C 82.489135 57.363281 82.721622 57.342883 82.939453 57.310547 C 82.582178 58.682795 82.131178 60.01535 81.607422 61.3125 C 81.295722 61.272068 80.976469 61.211488 80.640625 61.113281 C 80.375625 61.042281 80.096531 61.189078 80.019531 61.455078 C 79.942531 61.720078 80.094375 61.996219 80.359375 62.074219 C 80.648267 62.157786 80.930177 62.218038 81.207031 62.265625 C 80.815958 63.152613 80.390689 64.021011 79.925781 64.865234 C 78.828441 64.456329 77.900243 63.959898 77.009766 63.472656 C 76.789685 63.352559 76.58011 63.244193 76.367188 63.130859 C 76.537936 62.273481 76.688176 61.397493 76.791016 60.490234 C 77.377553 60.809938 77.984446 61.134331 78.671875 61.441406 C 78.737875 61.470406 78.807 61.484375 78.875 61.484375 C 79.066 61.484375 79.249031 61.3745 79.332031 61.1875 C 79.445031 60.9355 79.330125 60.639344 79.078125 60.527344 C 78.326125 60.193344 77.657766 59.826656 77.009766 59.472656 C 76.969636 59.450757 76.932415 59.431881 76.892578 59.410156 C 76.989546 58.168812 77.012614 56.887074 76.947266 55.570312 C 77.255896 55.737844 77.559493 55.906762 77.892578 56.072266 C 77.964578 56.108266 78.040234 56.125 78.115234 56.125 C 78.299234 56.125 78.4765 56.022703 78.5625 55.845703 C 78.6865 55.598703 78.586844 55.298781 78.339844 55.175781 C 77.869844 54.941781 77.428859 54.701703 77.005859 54.470703 C 76.956911 54.443992 76.911768 54.420977 76.863281 54.394531 C 76.817727 53.886638 76.763341 53.374454 76.689453 52.857422 C 76.554465 51.912381 76.384634 51.017341 76.1875 50.166016 C 76.301465 50.227846 76.411282 50.284254 76.527344 50.347656 C 77.524344 50.893656 78.655062 51.512609 80.039062 51.974609 C 80.818063 52.234609 81.551469 52.363281 82.230469 52.363281 C 82.477469 52.363281 82.716266 52.347547 82.947266 52.310547 C 83.221266 52.270547 83.410141 52.015188 83.369141 51.742188 C 83.328141 51.469187 83.075781 51.279266 82.800781 51.322266 C 82.089781 51.426266 81.266469 51.327438 80.355469 51.023438 C 79.056469 50.591437 78.015812 50.021703 77.007812 49.470703 C 76.614624 49.256028 76.234019 49.052863 75.855469 48.863281 C 75.359608 47.097899 74.735543 45.55345 74.039062 44.193359 C 74.59746 44.362748 75.15417 44.614447 75.767578 44.9375 C 75.841578 44.9765 75.921 44.996094 76 44.996094 C 76.179 44.996094 76.352406 44.898516 76.441406 44.728516 C 76.570406 44.484516 76.477422 44.180734 76.232422 44.052734 C 75.369578 43.598758 74.427823 43.169656 73.382812 43.027344 C 72.119373 40.890179 70.689227 39.266948 69.335938 38.085938 L 73.804688 38.980469 C 74.109687 39.041469 74.430063 38.955047 74.664062 38.748047 C 74.898063 38.541047 75.021047 38.237781 74.998047 37.925781 C 74.996047 37.898781 74.847406 35.699484 76.066406 34.521484 z M 37.980469 36.15625 C 37.984019 36.164882 37.99513 36.192102 37.998047 36.199219 L 37.939453 36.289062 C 37.953178 36.244737 37.972998 36.202398 37.980469 36.15625 z M 37.611328 36.78125 L 37.134766 37.498047 C 34.372766 42.266047 35.297109 45.328891 36.412109 47.462891 C 36.524109 47.677891 36.638094 47.878266 36.746094 48.072266 C 37.630094 49.657266 38.074891 50.454813 34.212891 55.382812 C 33.057036 56.858391 32.590572 58.299173 32.533203 59.634766 C 32.508294 59.665836 32.474675 59.686017 32.453125 59.720703 C 30.595815 62.704865 28.480018 63.464571 27.507812 63.585938 C 26.779244 60.435628 26.452368 56.907639 26.990234 53.142578 C 28.870234 39.984578 36.976406 37.066219 37.316406 36.949219 C 37.427779 36.911874 37.523588 36.850076 37.611328 36.78125 z M 64.111328 37.111328 C 65.877731 37.846053 73.045438 41.513184 74.707031 53.142578 C 75.258036 56.999321 74.901315 60.612433 74.130859 63.824219 C 73.209555 64.017231 71.227894 63.911272 68.96875 60.636719 C 69.138314 59.032742 68.778809 57.234816 67.326172 55.380859 C 63.465172 50.451859 63.909922 49.655313 64.794922 48.070312 C 64.902922 47.877313 65.016906 47.675938 65.128906 47.460938 C 66.243906 45.326937 67.16825 42.264094 64.40625 37.496094 L 64.111328 37.111328 z M 46.359375 38.855469 C 47.053875 38.791344 47.616812 38.923453 48.039062 39.251953 C 48.513898 39.620429 48.753428 40.182714 48.875 40.654297 A 2 1 0 0 0 47 40 A 2 1 0 0 0 45.181641 40.587891 C 45.28525 40.02784 45.432088 39.491327 45.619141 38.984375 C 45.619796 38.984216 45.620438 38.984536 45.621094 38.984375 C 45.881344 38.919375 46.127875 38.876844 46.359375 38.855469 z M 56.388672 39.005859 C 56.571586 39.505363 56.716246 40.033182 56.818359 40.583984 A 2 1 0 0 0 55 40 A 2 1 0 0 0 53.306641 40.466797 C 53.674249 39.79106 54.497054 39.036154 56.388672 39.005859 z M 49.400391 44.009766 C 49.275016 44.034891 49.159984 44.107656 49.083984 44.222656 C 48.930984 44.452656 48.993656 44.763016 49.222656 44.916016 C 49.803656 45.304016 50.402 45.496094 51 45.496094 C 51.598 45.496094 52.195391 45.304016 52.775391 44.916016 C 53.005391 44.763016 53.067062 44.452656 52.914062 44.222656 C 52.761063 43.992656 52.452656 43.930984 52.222656 44.083984 C 51.388656 44.639984 50.611344 44.639984 49.777344 44.083984 C 49.661844 44.007484 49.525766 43.984641 49.400391 44.009766 z M 48.582031 46 C 48.306031 46 48.082031 46.224 48.082031 46.5 C 48.082031 47.365 48.709031 49 51.082031 49 C 53.456031 49 54.082031 47.365 54.082031 46.5 C 54.082031 46.224 53.858031 46 53.582031 46 L 48.582031 46 z M 60.533203 46 C 60.338812 45.987953 60.145734 46.090141 60.052734 46.275391 L 59.871094 46.632812 C 58.866094 48.596812 57.489375 51.2875 61.109375 55.8125 C 61.208375 55.9365 61.353 56 61.5 56 C 61.61 56 61.7195 55.964625 61.8125 55.890625 C 62.0275 55.717625 62.062625 55.4035 61.890625 55.1875 C 58.674625 51.1675 59.783719 49.001844 60.761719 47.089844 L 60.947266 46.722656 C 61.070266 46.475656 60.971609 46.176734 60.724609 46.052734 C 60.662859 46.022234 60.598 46.004016 60.533203 46 z M 49.195312 47 L 52.972656 47 C 52.792656 47.437 52.320984 48 51.083984 48 C 49.847984 48 49.375312 47.439 49.195312 47 z M 42.041016 47.755859 C 41.977063 47.766703 41.913219 47.788922 41.855469 47.826172 C 41.622469 47.974172 41.555125 48.284578 41.703125 48.517578 C 42.534125 49.820578 43.134672 51.7565 40.388672 55.1875 C 36.470672 60.0845 38.060391 62.40575 39.900391 65.09375 C 40.053391 65.31675 40.207281 65.544344 40.363281 65.777344 C 40.560281 66.074344 40.749781 66.360625 40.925781 66.640625 C 41.020781 66.791625 41.182609 66.875 41.349609 66.875 C 41.440609 66.875 41.532234 66.850828 41.615234 66.798828 C 41.849234 66.652828 41.919438 66.343375 41.773438 66.109375 C 41.592438 65.821375 41.398313 65.527656 41.195312 65.222656 C 41.037313 64.986656 40.879609 64.755297 40.724609 64.529297 C 38.911609 61.880297 37.713922 60.1315 41.169922 55.8125 C 44.345922 51.8425 43.476875 49.441469 42.546875 47.980469 C 42.435875 47.805719 42.232875 47.723328 42.041016 47.755859 z M 24.751953 55.568359 C 24.686517 56.885119 24.709752 58.16685 24.806641 59.408203 C 24.763341 59.431831 24.723328 59.452706 24.679688 59.476562 C 24.048688 59.820562 23.397922 60.178859 22.669922 60.505859 C 22.418922 60.618859 22.304969 60.914016 22.417969 61.166016 C 22.500969 61.352016 22.684 61.460938 22.875 61.460938 C 22.944 61.460938 23.013125 61.447969 23.078125 61.417969 C 23.746257 61.118884 24.336365 60.80019 24.908203 60.488281 C 25.01106 61.396191 25.159215 62.272896 25.330078 63.130859 C 25.11758 63.244068 24.907699 63.352226 24.6875 63.472656 C 23.864404 63.922212 23.009534 64.381184 22.019531 64.771484 C 21.564117 63.938017 21.149239 63.07994 20.765625 62.205078 C 21.057885 62.14298 21.352311 62.07644 21.658203 61.974609 C 21.919203 61.886609 22.061609 61.603797 21.974609 61.341797 C 21.887609 61.081797 21.606797 60.937391 21.341797 61.025391 C 21.009353 61.136373 20.688391 61.218756 20.378906 61.275391 C 19.865376 59.999137 19.422859 58.688696 19.070312 57.339844 C 19.199468 57.350251 19.325352 57.363281 19.466797 57.363281 C 20.079797 57.363281 20.806203 57.258609 21.658203 56.974609 C 22.861469 56.57323 23.852209 56.055965 24.751953 55.568359 z M 43.275391 57.126953 C 43.080484 57.122734 42.894094 57.230922 42.808594 57.419922 C 41.647594 59.988922 42.324859 62.893781 44.880859 66.300781 C 46.605859 68.600781 46.758656 71.172156 45.347656 74.160156 C 45.230656 74.410156 45.335938 74.708172 45.585938 74.826172 C 45.654938 74.858172 45.727828 74.875 45.798828 74.875 C 45.985828 74.875 46.165953 74.770844 46.251953 74.589844 C 47.835953 71.232844 47.648688 68.324219 45.679688 65.699219 C 43.363687 62.610219 42.722703 60.036078 43.720703 57.830078 C 43.833703 57.578078 43.721703 57.283922 43.470703 57.169922 C 43.407703 57.142422 43.340359 57.128359 43.275391 57.126953 z M 32.96875 62.380859 C 33.550178 64.051947 34.564256 65.383053 35.158203 66.148438 C 33.347526 68.797306 31.242572 70.042246 29.958984 70.601562 C 29.25339 69.112658 28.580391 67.41242 28.023438 65.542969 C 29.431837 65.297686 31.279831 64.369166 32.96875 62.380859 z M 68.314453 63.041016 C 70.270612 65.284681 72.162649 65.857422 73.542969 65.857422 C 73.555156 65.857422 73.564065 65.855553 73.576172 65.855469 C 73.091197 67.425249 72.530128 68.885878 71.935547 70.183594 C 70.515542 69.732879 68.263057 68.643864 66.470703 66.029297 C 66.987558 65.361056 67.751738 64.333449 68.314453 63.041016 z M 25.558594 64.142578 C 25.835832 65.337268 26.160446 66.478692 26.529297 67.554688 C 25.879324 67.90923 25.209407 68.267236 24.462891 68.589844 C 23.765223 67.647234 23.121371 66.663879 22.525391 65.648438 C 23.523779 65.243134 24.388827 64.775519 25.167969 64.349609 C 25.301739 64.276644 25.427954 64.213192 25.558594 64.142578 z M 76.140625 64.142578 C 76.27153 64.213454 76.397202 64.278445 76.53125 64.351562 C 77.372374 64.811355 78.318014 65.316589 79.419922 65.742188 C 78.817877 66.760294 78.169286 67.747074 77.464844 68.691406 C 76.62332 68.344514 75.886624 67.948205 75.169922 67.556641 C 75.539031 66.480075 75.863227 65.337983 76.140625 64.142578 z M 65.259766 67.763672 C 67.160938 70.237315 69.428522 71.428521 71.041016 71.992188 C 69.628279 74.682626 68.359455 76.376211 67.919922 76.931641 C 66.754122 75.689891 64.539062 72.948273 64.539062 70.998047 C 64.539062 69.366044 64.859806 68.461099 65.259766 67.763672 z M 36.351562 67.904297 C 36.71594 68.586571 37 69.468412 37 71 C 37 72.899918 34.891638 75.552533 33.705078 76.837891 C 33.21421 76.207037 32.108478 74.688296 30.863281 72.386719 C 32.304762 71.736966 34.444439 70.4253 36.351562 67.904297 z M 26.871094 68.505859 C 27.187196 69.350481 27.515893 70.163933 27.859375 70.917969 C 27.528815 71.09231 27.182374 71.26166 26.822266 71.427734 C 26.218377 70.777153 25.642315 70.099914 25.091797 69.402344 C 25.741094 69.109676 26.322895 68.804208 26.871094 68.505859 z M 74.828125 68.507812 C 75.43849 68.839995 76.089854 69.183748 76.828125 69.503906 C 76.273069 70.201623 75.690651 70.877101 75.082031 71.527344 C 74.64315 71.332066 74.234956 71.126231 73.839844 70.917969 C 74.183095 70.164439 74.512209 69.351809 74.828125 68.507812 z M 28.294922 71.820312 C 28.655371 72.559078 29.015884 73.26319 29.371094 73.892578 C 28.742891 73.346035 28.132109 72.781284 27.546875 72.189453 C 27.800899 72.066763 28.056661 71.945624 28.294922 71.820312 z M 73.404297 71.820312 C 73.70666 71.979312 74.027858 72.134868 74.357422 72.289062 C 73.612228 73.036425 72.831031 73.748159 72.017578 74.421875 C 72.365308 73.82864 72.719734 73.19675 73.080078 72.492188 C 73.083814 72.492561 73.104947 72.495856 73.107422 72.496094 L 73.113281 72.421875 C 73.210653 72.23058 73.307206 72.019308 73.404297 71.820312 z"/></svg>