<?xml version="1.0" standalone="no"?>
<!DOCTYPE svg PUBLIC "-//W3C//DTD SVG 20010904//EN"
 "http://www.w3.org/TR/2001/REC-SVG-20010904/DTD/svg10.dtd">
<svg version="1.0" xmlns="http://www.w3.org/2000/svg"
 width="640.000000pt" height="350.000000pt" viewBox="0 0 640.000000 350.000000"
 preserveAspectRatio="xMidYMid meet">
<metadata>
Created by potrace 1.16, written by Peter Selinger 2001-2019
</metadata>
<g transform="translate(0.000000,350.000000) scale(0.100000,-0.100000)"
fill="#000000" stroke="none">
<path d="M1370 3496 c0 -5 41 -160 91 -345 103 -384 187 -704 194 -741 19
-102 32 -150 40 -143 4 4 5 -1 1 -11 -4 -11 11 -95 34 -195 52 -222 47 -209
75 -227 21 -14 64 -5 601 121 319 74 590 140 603 145 16 8 27 7 37 -1 8 -6 25
-9 38 -5 18 4 28 0 39 -17 8 -12 41 -54 73 -93 62 -75 171 -247 191 -302 23
-61 326 -375 389 -402 l35 -15 -135 -74 c-74 -41 -138 -73 -142 -73 -8 1 -93
255 -94 279 0 7 20 18 45 24 25 6 43 14 41 17 -7 6 -95 -18 -101 -28 -2 -3 16
-71 41 -149 25 -79 43 -148 41 -155 -3 -7 -30 -26 -61 -42 -31 -16 -56 -33
-55 -39 0 -5 53 -104 118 -220 99 -175 122 -210 141 -210 23 -1 17 16 166
-453 20 -63 38 -111 41 -109 5 5 -41 158 -130 438 l-44 137 131 73 c72 40 146
82 165 93 19 11 32 16 29 11 -6 -10 15 -457 31 -670 8 -107 9 -98 5 85 -2 113
-6 230 -9 260 -2 30 -7 118 -11 195 -3 77 -7 141 -9 143 -2 2 -84 -40 -183
-92 -99 -53 -183 -96 -188 -96 -5 0 -22 24 -38 53 -73 132 -196 359 -196 362
0 1 80 47 178 101 97 53 193 107 212 120 33 20 38 21 65 7 17 -8 80 -63 140
-122 154 -150 171 -157 35 -15 -113 118 -186 174 -230 174 -12 0 -31 5 -43 11
-20 11 -160 149 -303 300 -70 73 -85 118 -59 168 21 41 19 51 -5 21 -19 -25
-19 -25 -34 -5 -20 26 -20 39 0 56 13 11 19 10 37 -1 20 -12 21 -12 8 3 -14
18 -40 22 -57 10 -5 -5 -1 0 9 10 11 9 15 17 10 17 -16 0 -41 -24 -45 -43 -2
-13 -15 3 -42 49 -21 36 -55 85 -75 108 -72 80 -94 116 -81 131 6 8 9 18 6 23
-11 18 18 58 73 100 79 60 131 106 131 116 0 5 -15 30 -34 56 -34 47 -34 47
-14 67 18 19 19 22 5 50 -9 16 -24 36 -33 44 -14 10 -13 6 4 -18 12 -17 22
-38 22 -46 0 -22 -88 -97 -208 -178 -131 -88 -144 -91 -188 -48 -19 18 -34 36
-34 40 0 4 24 25 54 47 56 43 164 151 216 216 17 22 44 48 61 58 l30 18 -43
61 c-24 34 -76 100 -117 148 -40 47 -87 113 -103 146 -28 58 -29 61 -14 97
l16 37 60 -24 61 -24 19 32 c11 18 20 37 20 42 -1 10 -15 -7 -35 -40 -9 -15
-19 -13 -98 20 -48 21 -102 47 -121 60 -33 22 -32 21 41 -124 53 -102 95 -170
142 -226 37 -44 87 -107 111 -139 41 -56 42 -61 25 -70 -20 -12 -25 -16 -130
-139 -76 -87 -188 -177 -222 -177 -15 0 -28 11 -39 33 -9 17 -46 65 -81 106
-35 41 -76 97 -93 125 -16 28 -56 80 -90 116 -33 36 -75 90 -92 120 -18 30
-66 111 -106 180 -41 69 -92 157 -112 195 -21 39 -51 86 -69 105 -17 19 -32
44 -32 55 -1 11 -3 27 -4 35 -1 8 -3 21 -4 27 -1 11 -75 54 -90 53 -12 -1 42
-40 54 -40 15 0 25 -22 25 -56 0 -31 24 -79 49 -96 10 -7 26 -29 35 -48 9 -19
32 -62 51 -95 19 -33 35 -63 35 -67 0 -4 -22 -15 -50 -25 -63 -22 -66 -36 -3
-17 46 14 65 12 47 -5 -5 -5 -55 -24 -111 -42 -56 -18 -101 -35 -99 -37 4 -3
58 11 184 47 32 9 32 9 32 -24 0 -28 -5 -35 -37 -49 l-38 -17 38 5 c72 9 36
-11 -88 -49 -69 -21 -123 -40 -121 -43 4 -3 123 27 221 55 19 5 19 5 3 -13 -9
-11 -38 -25 -65 -33 -47 -13 -134 -38 -162 -47 -8 -2 -12 -7 -9 -9 2 -3 36 4
74 14 38 11 70 18 72 16 11 -11 -16 -26 -83 -46 -42 -12 -73 -24 -71 -26 4 -4
108 21 141 33 9 4 15 1 15 -9 0 -9 -27 -22 -82 -38 -103 -29 -88 -37 18 -9 43
11 82 16 86 12 7 -7 -59 -32 -180 -67 -13 -4 -22 -9 -19 -11 2 -2 46 7 98 21
57 15 97 21 103 15 11 -11 -5 -17 -123 -51 -45 -13 -78 -25 -72 -27 5 -2 54 8
107 23 68 19 100 23 107 16 6 -6 7 -11 2 -11 -23 -1 -238 -69 -220 -70 12 0
59 11 105 24 117 33 129 35 135 27 7 -12 -23 -23 -194 -71 -84 -25 -148 -46
-142 -48 6 -2 91 19 189 48 105 29 187 48 197 44 20 -8 -26 -24 -258 -90 -76
-21 -134 -40 -128 -42 8 -3 270 66 411 107 17 5 36 1 65 -16 22 -12 56 -23 75
-24 19 0 43 -4 54 -8 14 -5 7 -10 -30 -19 -107 -26 -538 -151 -524 -151 9 -1
148 34 310 77 325 87 398 103 406 90 3 -4 -3 -8 -12 -8 -15 0 -175 -44 -571
-157 -51 -15 -91 -28 -89 -31 2 -2 71 15 153 37 289 78 514 141 522 146 5 2
14 -2 20 -9 10 -11 8 -15 -6 -19 -10 -3 -162 -45 -337 -94 -176 -48 -313 -89
-305 -91 8 -1 162 38 343 88 255 71 331 88 337 78 6 -9 -10 -17 -59 -31 -158
-42 -609 -169 -632 -178 -21 -7 -19 -8 10 -3 40 7 635 169 673 183 20 8 29 5
48 -15 12 -13 21 -26 18 -28 -2 -2 -143 -42 -314 -90 -170 -47 -337 -95 -370
-106 -122 -40 20 -5 349 87 224 61 343 90 349 84 7 -7 4 -13 -9 -17 -89 -32
-181 -68 -188 -75 -17 -16 47 -10 130 12 43 11 83 25 89 30 5 5 15 9 22 9 18
0 102 -87 126 -130 11 -19 31 -45 44 -58 14 -13 24 -24 22 -26 -2 -2 -50 -14
-107 -26 l-103 -23 -15 21 c-20 29 -32 27 -377 -60 -153 -39 -280 -69 -282
-66 -2 2 -5 23 -7 47 l-3 44 110 27 c61 15 127 34 147 43 21 8 59 18 85 22 63
8 284 57 279 62 -2 2 -58 -7 -125 -21 -67 -14 -135 -26 -151 -26 -16 0 -58
-11 -92 -23 -35 -13 -106 -34 -158 -46 -52 -12 -101 -25 -108 -29 -15 -10 3
-107 26 -134 13 -15 12 -18 -9 -23 -13 -3 -81 -19 -151 -35 -152 -36 -164 -36
-182 -7 -14 23 -100 376 -93 383 2 2 19 -52 37 -121 18 -69 35 -124 37 -121 3
3 -33 148 -80 323 -47 175 -136 505 -197 733 -99 367 -129 467 -130 436z
m1013 -582 c20 -36 37 -70 37 -75 0 -4 -31 -35 -70 -68 -62 -54 -73 -59 -95
-51 -19 7 -25 6 -25 -4 0 -23 67 -12 98 15 15 13 44 39 65 59 l38 35 20 -25
c58 -73 59 -65 -9 -133 l-62 -62 -22 24 -23 23 23 -11 c13 -7 22 -8 22 -2 0
12 -37 24 -50 16 -16 -10 -12 -21 15 -35 13 -7 22 -17 19 -22 -3 -4 0 -8 6 -8
7 0 42 29 79 65 l67 65 32 -33 c18 -18 32 -39 32 -46 0 -7 -14 -31 -31 -52
-33 -42 -67 -51 -89 -24 -7 8 -17 15 -22 15 -6 0 -4 -7 3 -16 12 -15 11 -16
-11 -9 -51 16 -66 23 -79 39 -7 9 -19 16 -25 16 -6 0 -28 5 -49 11 -28 7 -42
19 -56 48 -12 23 -16 42 -11 51 6 9 0 24 -16 43 -33 39 -28 68 13 79 17 5 41
21 52 36 55 74 76 101 81 101 3 1 22 -29 43 -65z m397 -839 c0 -16 17 -11
-337 -95 -144 -34 -270 -60 -280 -58 -35 7 -13 23 54 40 89 23 117 21 33 -2
-83 -23 -55 -25 41 -3 57 13 68 18 50 23 -17 4 32 19 155 48 98 24 186 41 194
38 12 -4 56 8 88 23 1 0 2 -6 2 -14z"/>
<path d="M3244 3489 c-4 -7 -9 -30 -11 -52 -3 -36 -65 -200 -83 -220 -20 -22
-223 71 -343 157 -72 51 -76 53 -62 25 9 -16 19 -28 23 -25 5 3 35 -14 68 -37
77 -54 232 -127 281 -134 26 -3 42 -1 49 8 19 25 84 187 85 211 0 15 3 18 6 8
7 -19 550 -937 572 -967 23 -32 67 -48 95 -35 45 20 1236 720 1251 734 20 20
-71 -31 -573 -325 -483 -281 -514 -298 -527 -281 -29 39 -81 5 755 499 184
109 361 214 392 233 50 30 60 33 75 21 17 -12 17 -12 1 5 -18 21 15 39 -486
-257 -111 -66 -205 -117 -208 -114 -3 2 116 76 263 162 147 87 273 162 278
168 14 14 21 18 -264 -148 -158 -92 -256 -143 -260 -136 -5 7 -18 4 -39 -10
-18 -10 -37 -17 -43 -14 -19 12 -8 34 26 55 35 21 37 22 56 4 19 -17 21 -17
66 5 25 12 43 25 39 28 -3 4 -24 -3 -45 -15 -34 -20 -40 -20 -45 -6 -8 21 -1
31 33 48 32 17 59 15 71 -4 7 -12 15 -11 45 6 53 28 68 51 16 25 -39 -20 -45
-21 -59 -8 -13 14 -10 18 27 41 22 15 41 33 41 42 0 14 -5 13 -36 -5 -19 -12
-37 -21 -39 -21 -6 0 -35 57 -35 68 0 5 15 17 34 27 l34 18 34 -35 c29 -31 32
-39 21 -54 -10 -14 -8 -20 12 -36 24 -19 24 -19 66 7 50 32 46 44 -4 15 -20
-12 -41 -19 -47 -15 -20 12 -10 33 26 54 34 20 38 21 61 5 24 -15 28 -15 64 2
22 9 39 21 39 26 0 4 -18 -1 -39 -12 -35 -17 -40 -18 -52 -4 -14 17 -11 20 44
50 25 13 29 13 43 -1 8 -8 22 -15 31 -15 19 0 86 40 79 47 -3 3 -21 -5 -41
-17 -31 -19 -39 -20 -46 -9 -14 22 -11 26 26 49 33 21 36 21 64 4 28 -16 30
-16 65 6 21 12 35 25 32 27 -3 3 -21 -4 -40 -16 -34 -22 -35 -22 -45 -2 -9 16
-6 22 25 40 42 25 62 27 70 6 4 -8 11 -15 16 -15 16 0 80 41 74 47 -3 3 -17
-2 -31 -11 -28 -19 -55 -15 -55 7 0 18 57 50 76 43 10 -4 14 -1 12 6 -7 20
-47 21 -76 2 -25 -16 -26 -16 -40 4 -8 12 -21 22 -29 22 -11 0 -10 -5 4 -25
10 -13 23 -25 30 -25 18 0 4 -30 -14 -30 -8 0 -11 5 -7 12 4 7 -10 2 -31 -11
-38 -22 -40 -22 -53 -4 -31 41 -33 51 -12 66 20 14 20 14 -7 15 -15 0 -38 -8
-51 -16 -22 -15 -25 -14 -37 1 -18 25 -39 22 -23 -3 7 -11 19 -20 27 -20 11 0
11 -3 1 -15 -7 -9 -20 -13 -29 -10 -10 3 -26 -2 -37 -10 -27 -20 -29 -19 -52
17 -15 23 -18 36 -10 45 8 10 -1 12 -38 11 -35 0 -43 -3 -30 -10 10 -5 24 -7
32 -4 8 3 14 1 14 -4 0 -6 -8 -11 -17 -11 -49 -4 -62 -7 -84 -23 -31 -21 -32
-21 -53 19 -21 39 -33 42 -77 19 -17 -8 -33 -13 -36 -10 -4 3 -21 -4 -40 -15
l-33 -21 -17 31 c-30 52 -73 44 -217 -39 -67 -38 -125 -70 -128 -70 -7 0 -48
68 -48 80 0 5 18 19 40 31 22 12 38 25 35 27 -6 6 -215 -120 -215 -130 0 -4
-7 -8 -16 -8 -9 0 -35 -13 -59 -29 -41 -28 -85 -47 -85 -38 0 2 74 49 165 103
90 54 162 100 160 102 -11 11 -589 -340 -593 -360 -3 -15 292 -533 326 -570 8
-10 21 -18 28 -18 7 0 62 30 123 66 61 37 114 64 117 62 3 -3 -20 -20 -50 -38
-31 -17 -58 -35 -61 -41 -4 -5 2 -22 11 -39 10 -16 16 -31 13 -33 -25 -22
-150 -87 -167 -87 -11 0 -32 10 -46 23 -14 12 -147 229 -297 482 -150 253
-281 473 -292 488 -10 15 -17 37 -14 47 6 22 2 26 -9 9z m673 -246 l34 -41
-36 -20 c-41 -25 -44 -44 -10 -87 25 -33 24 -45 -4 -45 -8 0 -55 -23 -103 -51
-48 -28 -92 -48 -97 -45 -10 7 -35 65 -30 70 2 2 45 27 94 56 50 29 92 54 94
56 9 8 -59 -5 -77 -15 -31 -17 -38 -14 -61 25 -24 40 -22 48 21 70 30 15 32
15 47 -4 14 -19 19 -20 46 -7 36 15 74 44 60 45 -5 0 -23 -9 -40 -20 -28 -19
-55 -13 -55 11 0 12 62 50 74 46 5 -2 24 -21 43 -44z m-203 -115 l35 -43 -37
-22 c-20 -12 -43 -26 -51 -30 -16 -10 -2 -40 81 -170 14 -22 29 -50 32 -61 4
-11 17 -31 30 -45 13 -14 26 -36 29 -49 4 -14 19 -38 34 -54 14 -16 25 -29 23
-29 -1 0 0 -10 4 -22 4 -13 14 -23 21 -23 18 0 87 41 81 47 -3 3 -22 -4 -42
-16 -29 -18 -39 -19 -45 -9 -14 21 -11 25 26 48 33 21 36 21 64 4 28 -16 30
-16 65 6 21 12 35 25 32 27 -3 3 -21 -4 -40 -16 -34 -22 -35 -22 -45 -2 -9 16
-6 22 25 40 42 25 43 25 66 4 18 -16 21 -16 54 2 19 10 40 25 47 34 7 9 -5 5
-31 -9 -38 -22 -44 -22 -58 -8 -14 14 -12 18 22 38 36 23 38 23 66 7 22 -12
35 -14 48 -7 24 13 33 13 25 0 -12 -19 7 -10 161 81 85 50 157 89 160 87 5 -5
-418 -258 -431 -258 -3 0 -3 5 1 12 11 18 -16 5 -136 -67 -60 -35 -115 -62
-122 -59 -7 3 -38 49 -69 102 -31 53 -95 165 -143 247 -117 199 -111 188 -89
174 15 -9 26 -7 56 11 21 12 36 25 33 27 -3 3 -21 -4 -40 -15 -25 -15 -37 -17
-45 -9 -17 17 -13 31 17 49 40 24 47 22 86 -24z m890 -13 c38 -40 35 -46 -41
-84 -23 -11 -44 -25 -48 -31 -3 -5 -11 -10 -17 -10 -6 0 -5 7 3 16 11 13 5 12
-28 -4 l-41 -22 -21 35 -20 35 37 25 37 26 18 -22 c10 -12 22 -29 26 -37 11
-19 49 -10 82 18 l24 21 -42 -20 c-32 -16 -44 -18 -49 -8 -4 6 -14 22 -22 34
-13 21 -12 24 20 43 18 11 37 20 41 20 5 0 23 -16 41 -35z m-720 -102 c-7 -26
43 -75 67 -68 11 4 19 2 19 -4 0 -6 -8 -12 -17 -12 -50 -4 -65 -9 -123 -43
-61 -36 -65 -37 -78 -19 -36 49 -36 50 39 94 39 23 73 48 76 56 8 19 22 16 17
-4z m639 -53 c25 -12 32 -12 58 4 17 10 32 16 35 13 5 -5 -319 -197 -332 -197
-5 0 0 7 10 15 27 21 4 19 -33 -2 -28 -16 -33 -16 -41 -3 -22 33 71 77 94 45
12 -17 15 -17 54 5 23 13 42 28 42 33 0 5 -16 -1 -35 -13 -19 -12 -39 -19 -45
-15 -17 11 -11 34 13 46 12 6 33 23 45 37 l24 27 -5 -27 c-2 -15 -1 -27 2 -26
3 1 14 -2 23 -6 17 -8 95 31 84 41 -3 3 -20 -4 -39 -16 -31 -19 -36 -19 -47
-6 -7 9 -10 18 -7 22 13 12 62 41 67 39 3 -1 18 -8 33 -16z"/>
<path d="M1985 3421 c-10 -17 -34 -209 -28 -230 5 -18 -11 -168 -24 -218 -3
-12 -12 -24 -21 -27 -98 -27 -193 -58 -190 -61 2 -3 45 6 94 20 49 14 94 25
100 25 7 0 8 -16 1 -54 l-10 -53 -80 -23 c-45 -13 -76 -25 -70 -27 7 -3 41 5
77 15 41 12 68 16 72 10 9 -15 -2 -21 -79 -45 -40 -12 -62 -22 -50 -22 12 -1
32 3 45 8 52 19 78 22 78 8 0 -7 -19 -18 -42 -24 -59 -16 -102 -33 -96 -38 2
-2 33 4 68 15 35 11 66 18 68 15 10 -10 -12 -24 -69 -44 -71 -27 -75 -37 -4
-16 56 17 65 18 65 6 0 -5 -23 -17 -51 -26 -28 -9 -48 -19 -45 -22 3 -3 19 0
37 6 76 26 79 -3 3 -31 -46 -17 -24 -18 34 -2 15 4 22 2 22 -8 0 -8 -20 -20
-47 -28 -26 -7 -42 -15 -35 -18 7 -2 27 1 44 7 24 9 33 8 39 -1 11 -17 38 18
39 49 0 12 4 24 9 27 4 3 11 30 15 60 3 30 9 62 13 72 4 11 3 15 -5 10 -6 -4
-16 -34 -23 -67 -7 -35 -16 -58 -23 -56 -12 4 -12 21 -1 100 6 42 9 48 28 45
26 -3 50 10 42 23 -4 5 -3 14 1 20 3 6 7 30 9 52 1 23 5 65 8 92 11 79 -3 34
-22 -73 -16 -86 -20 -97 -37 -94 -10 2 -20 5 -22 7 -2 1 6 56 18 122 11 66 20
123 20 127 0 4 15 6 32 4 l33 -3 22 135 c12 74 21 151 21 170 0 19 -13 -37
-28 -125 -16 -88 -29 -161 -29 -162 -1 -2 -13 -3 -27 -3 -21 0 -25 4 -21 20 3
10 15 89 28 174 l23 154 35 -6 c24 -4 32 -2 27 6 -9 14 -82 16 -91 3z"/>
<path d="M5496 3371 c-4 -5 11 -7 31 -5 44 5 425 -86 430 -102 2 -6 -25 -28
-59 -49 -35 -21 -423 -251 -863 -513 -440 -261 -816 -486 -835 -499 -56 -38
-25 -26 43 16 34 21 195 116 357 211 354 208 1172 692 1287 762 45 27 84 56
87 64 6 15 -29 44 -54 44 -8 0 -89 18 -179 40 -161 39 -234 49 -245 31z"/>
<path d="M5290 3193 c-135 -80 -344 -204 -465 -276 -121 -71 -224 -134 -230
-140 -14 -15 34 13 520 299 l430 252 154 -42 c150 -42 154 -44 130 -59 -61
-39 -1670 -977 -1675 -977 -4 0 -36 26 -73 58 -36 31 -75 64 -86 71 -25 17
101 -103 135 -128 l25 -19 215 125 c663 387 1496 876 1504 883 4 4 0 11 -10
14 -63 18 -315 86 -321 85 -5 0 -118 -66 -253 -146z"/>
<path d="M3389 2233 c58 -71 94 -100 144 -114 72 -19 106 -38 157 -85 40 -37
51 -55 60 -97 7 -31 23 -66 41 -87 35 -42 38 -33 5 18 -14 20 -28 54 -31 74
l-7 38 68 -31 c38 -17 85 -44 104 -59 19 -15 49 -34 65 -43 64 -33 102 -92
161 -252 30 -79 41 -97 96 -151 35 -33 79 -80 99 -105 38 -47 93 -130 87 -133
-120 -70 -348 -262 -348 -293 0 -17 50 -87 134 -188 27 -33 97 -132 154 -220
l105 -160 -2 -77 c-1 -43 1 -87 4 -98 9 -28 56 -50 108 -50 42 0 46 -3 90 -60
26 -33 52 -60 58 -60 5 0 -10 26 -34 57 -76 102 -231 324 -307 443 -41 63
-101 150 -135 193 -136 177 -154 203 -155 218 0 37 220 222 354 297 33 18 53
31 43 28 -58 -19 -62 -18 -79 16 -21 45 -91 130 -165 203 -49 46 -67 73 -82
116 l-19 56 41 13 c23 6 133 41 245 77 112 36 204 64 206 62 2 -2 8 -13 15
-24 11 -18 11 -18 5 5 -3 14 -9 28 -13 31 -3 4 -116 -29 -251 -72 -135 -43
-247 -79 -250 -79 -3 0 -14 21 -25 47 -11 26 -22 51 -23 55 -2 4 3 5 12 2 8
-3 19 -18 25 -32 8 -23 10 -24 10 -6 1 11 -8 29 -19 39 -11 10 -20 24 -20 30
0 22 -34 54 -63 59 -16 3 -61 27 -100 53 -40 27 -97 59 -128 72 -31 12 -73 40
-95 62 -43 45 -131 99 -160 99 -39 1 -101 39 -163 101 -62 63 -63 63 -22 12z"/>
<path d="M3436 1861 c28 -17 84 -79 84 -93 0 -12 76 -88 87 -88 7 0 10 -7 7
-15 -9 -22 9 -18 24 5 19 31 28 24 24 -19 -2 -23 1 -42 8 -46 9 -6 11 2 8 27
-3 26 0 34 9 31 9 -4 11 0 7 12 -10 24 17 15 137 -47 116 -60 181 -68 224 -28
38 36 34 80 -10 119 -20 17 -41 31 -48 31 -6 0 4 -11 24 -24 20 -14 36 -33 37
-43 2 -36 -9 -63 -29 -74 -25 -13 -43 0 -33 25 5 14 9 15 15 4 6 -8 8 -2 7 19
-1 17 -6 29 -10 27 -14 -9 -38 -75 -32 -86 4 -6 -2 -8 -17 -3 -13 3 -33 9 -44
12 -11 3 -50 23 -86 44 -37 21 -88 44 -115 50 -27 6 -64 18 -82 25 -33 14 -33
14 -27 -8 4 -14 -28 12 -82 70 -48 51 -95 92 -103 92 -8 0 -1 -9 16 -19z"/>
<path d="M4965 1650 c-99 -5 -315 -13 -480 -20 -165 -6 -302 -13 -304 -16 -8
-7 145 -4 564 11 226 8 462 16 525 17 l115 3 6 -145 c4 -80 7 -159 8 -177 1
-23 12 -43 36 -67 31 -31 35 -42 37 -88 l1 -53 7 45 c8 53 10 42 20 -125 l6
-120 2 140 c2 122 0 143 -15 157 -68 62 -83 87 -83 136 0 27 -3 104 -7 170 -6
118 -5 122 14 122 17 0 21 -9 27 -52 3 -29 6 -90 6 -135 0 -46 3 -83 8 -83 7
0 5 229 -3 267 -5 21 -9 21 -157 21 -84 -1 -234 -4 -333 -8z"/>
<path d="M1083 1596 c-6 -7 -15 -44 -20 -82 l-8 -69 -80 -16 c-44 -9 -201 -40
-350 -69 -148 -29 -278 -56 -287 -61 -10 -5 -20 -20 -23 -32 -3 -12 33 -213
80 -446 47 -233 85 -428 85 -433 0 -5 -5 -6 -11 -3 -10 7 -172 -65 -165 -73 2
-2 39 12 81 32 l76 35 29 -45 c43 -68 76 -159 90 -251 8 -46 17 -83 22 -83 10
0 10 -3 -3 61 -6 30 -12 83 -15 119 -2 36 -45 272 -94 524 -50 253 -87 462
-83 466 9 7 785 160 829 163 26 2 29 -2 41 -53 l12 -55 -6 55 c-3 30 -9 59
-13 64 -7 7 -835 -145 -877 -161 -8 -3 -11 -13 -9 -22 7 -22 186 -936 186
-947 0 -5 -16 25 -35 66 -29 64 -47 140 -120 510 -47 239 -88 442 -91 451 -12
41 9 47 471 139 248 50 457 90 465 90 33 0 44 -23 71 -141 32 -146 38 -137 8
12 -12 57 -28 112 -37 122 -18 21 -55 21 -142 2 -95 -21 -91 -24 -83 48 3 34
6 63 7 64 1 1 109 -9 241 -22 132 -13 364 -35 515 -49 492 -46 504 -48 516
-63 10 -11 12 -10 17 7 3 11 0 20 -6 20 -7 0 -88 9 -182 20 -336 40 -1050 120
-1070 120 -11 -1 -25 -7 -32 -14z"/>
<path d="M1925 1321 c-3 -5 -36 -12 -73 -16 -118 -11 -127 -13 -145 -45 -18
-29 -18 -30 0 -36 10 -3 27 -9 38 -14 31 -13 -5 -12 -43 1 -36 12 -72 -2 -72
-29 1 -16 1 -16 11 1 11 19 44 22 85 7 37 -14 60 -5 74 31 7 16 17 32 23 36 6
4 7 1 2 -7 -6 -10 -1 -12 20 -7 22 4 33 0 47 -18 22 -28 75 -38 82 -16 2 9 3
0 3 -19 -1 -23 2 -34 11 -32 16 3 15 -2 -9 -50 l-21 -40 35 -37 c36 -38 54
-81 34 -81 -7 0 -50 23 -96 50 -46 28 -98 58 -115 67 -57 28 -12 -4 99 -71
107 -65 110 -66 126 -47 11 13 20 16 30 10 8 -5 21 -9 29 -8 8 0 2 7 -13 15
-30 16 -107 87 -107 98 0 4 12 4 28 0 l27 -6 -23 19 c-21 17 -22 22 -11 46 9
19 9 34 2 50 -6 12 -7 31 -2 42 4 11 8 15 8 9 1 -6 15 -40 31 -75 17 -35 28
-52 25 -37 l-5 28 35 -17 c19 -9 35 -21 35 -27 0 -6 12 -24 26 -41 17 -21 22
-23 15 -8 -16 32 -13 53 7 53 14 0 15 -2 2 -10 -13 -8 -13 -10 1 -10 12 0 15
-7 11 -25 -4 -21 -1 -25 20 -25 24 0 58 27 58 45 0 5 -9 -1 -20 -13 -40 -43
-52 -20 -24 46 15 35 16 36 29 17 8 -11 19 -25 25 -32 15 -18 13 -32 -15 -104
-40 -100 -57 -186 -43 -208 9 -15 7 -44 -9 -138 -36 -196 -37 -205 -22 -214 8
-5 20 -9 27 -9 20 0 48 77 67 190 13 72 29 125 52 170 24 48 33 78 33 115 0
28 5 56 12 63 9 9 8 16 -4 29 -8 10 -24 37 -34 60 -10 23 -27 44 -36 46 -18 5
-56 73 -46 83 4 3 16 0 28 -6 12 -6 24 -9 27 -7 3 3 -9 13 -26 22 -17 8 -31
20 -31 26 0 13 30 -3 54 -30 11 -12 24 -21 31 -21 14 0 51 -40 99 -109 30 -42
35 -56 24 -62 -10 -7 -9 -9 5 -9 9 0 17 -4 17 -10 0 -5 -7 -10 -15 -10 -8 0
-15 -4 -15 -10 0 -5 7 -10 16 -10 15 0 16 -9 12 -67 -4 -40 -3 -58 2 -43 4 14
8 59 9 101 1 58 -3 80 -15 89 -8 8 -20 22 -25 32 -10 18 -9 19 20 4 33 -17 49
-36 30 -36 -9 0 -8 -4 1 -15 12 -14 15 -47 24 -223 l5 -94 -86 -91 c-47 -51
-101 -114 -119 -142 -32 -48 -60 -141 -79 -265 -13 -80 5 -36 26 66 30 142 52
184 167 311 l102 111 -9 175 c-4 96 -11 180 -15 186 -4 6 -28 22 -54 35 -67
34 -96 78 -93 137 3 58 -13 70 -35 27 -9 -18 -18 -34 -19 -36 -2 -2 -15 4 -29
13 -34 23 -58 13 -50 -19 9 -38 -31 -86 -73 -86 -73 0 -163 85 -163 155 0 44
-66 87 -85 56z"/>
<path d="M815 1099 c-320 -66 -303 -61 -275 -70 l25 -7 -27 -1 c-15 -1 -30 -6
-33 -11 -4 -7 2 -9 17 -5 83 19 115 24 133 24 11 -1 -14 -9 -55 -18 -91 -21
-113 -29 -85 -30 17 -1 18 -3 5 -11 -11 -7 -2 -9 30 -5 l45 5 -43 -11 c-66
-16 -43 -22 29 -8 42 8 57 15 45 19 -11 4 58 22 165 43 273 55 316 65 293 66
-12 1 -56 -6 -98 -15 -42 -8 -82 -14 -89 -11 -6 2 21 10 62 17 41 8 69 16 63
18 -6 2 -73 -9 -147 -23 -75 -15 -138 -25 -141 -22 -3 2 37 13 88 23 69 13 86
19 68 24 -18 5 -1 11 68 24 50 10 92 20 92 22 0 9 -54 0 -235 -37z"/>
<path d="M4689 1114 c-12 -14 -9 -20 19 -44 17 -14 32 -34 32 -43 0 -8 9 -19
20 -22 11 -4 20 -15 20 -26 0 -12 14 -28 35 -40 24 -15 35 -28 35 -44 0 -32
47 -91 176 -220 106 -105 233 -256 304 -361 34 -50 188 -234 196 -234 9 0 0
12 -72 96 -42 49 -96 118 -120 154 -23 36 -52 75 -63 87 -25 26 -27 46 -5 64
13 11 14 9 9 -17 -4 -20 -3 -24 3 -14 15 23 25 80 14 80 -5 0 -20 -16 -34 -35
l-25 -35 -30 43 c-17 23 -70 84 -118 135 l-88 93 3 82 c4 133 4 138 -18 159
-22 22 -114 37 -148 24 -14 -5 -14 -9 -3 -24 13 -15 12 -16 -4 -3 -13 10 -15
17 -6 27 9 11 8 18 -1 29 -14 17 -35 21 -25 5 3 -6 -1 -7 -9 -4 -12 4 -13 11
-6 24 7 13 5 22 -7 31 -9 8 -18 13 -20 12 -10 -8 -23 -1 -17 8 3 6 0 15 -7 20
-20 12 -25 11 -40 -7z"/>
<path d="M965 920 c-8 -24 -18 -25 -39 -4 -15 14 -16 13 -16 -9 0 -30 -20 -40
-37 -18 -7 9 -13 12 -13 6 -1 -26 -17 -37 -39 -26 -18 10 -23 9 -29 -6 -8 -20
-25 -27 -60 -25 -12 1 -25 -5 -28 -13 -4 -9 -19 -15 -39 -15 -41 0 -47 -8 -47
-66 -1 -44 -21 -76 -37 -58 -5 5 -16 50 -26 99 -9 50 -21 97 -26 105 -8 12 -9
11 -7 -5 2 -11 -3 -26 -12 -33 -13 -12 -13 -13 1 -9 14 5 20 -12 38 -96 12
-55 24 -103 26 -105 2 -3 138 22 301 54 163 32 292 60 286 62 -5 1 -129 -20
-275 -48 -146 -27 -269 -50 -273 -50 -3 0 -2 6 3 13 10 12 25 61 27 86 1 8 13
15 29 15 25 2 41 14 50 40 2 5 12 4 23 -2 15 -8 24 -6 43 9 13 11 32 17 42 14
12 -4 20 1 24 16 l7 22 20 -24 c11 -13 17 -19 14 -12 -4 6 6 21 20 32 21 16
30 18 40 10 11 -9 14 -7 14 10 0 27 17 27 25 1 4 -11 10 -18 14 -15 5 2 14
-15 21 -39 8 -28 17 -43 25 -40 17 7 36 50 29 68 -3 8 -1 17 5 21 15 9 14 25
-2 25 -8 0 -14 -15 -15 -37 -4 -50 -18 -64 -32 -29 -5 15 -10 31 -10 35 0 10
-44 61 -52 61 -4 0 -10 -9 -13 -20z"/>
<path d="M2081 894 c-36 -30 -38 -40 -11 -47 21 -5 25 -23 11 -46 -7 -10 -13
-11 -31 -1 -12 6 -24 9 -27 6 -3 -3 6 -11 20 -17 29 -13 29 -25 1 -123 -8 -27
-14 -68 -14 -91 0 -47 4 -38 -164 -338 -70 -126 -126 -230 -124 -233 3 -2 17
18 32 46 36 66 44 64 10 -2 -17 -33 -21 -48 -11 -40 10 9 17 10 22 2 13 -20
24 -9 65 65 35 63 46 75 67 75 48 0 205 -60 276 -106 52 -33 65 -39 48 -21
-37 40 -165 103 -259 127 -31 8 -41 14 -34 23 25 32 82 302 82 389 0 37 26
154 50 228 20 58 34 130 26 130 -2 0 -18 -12 -35 -26z"/>
<path d="M1440 803 c0 -4 59 -41 130 -82 72 -40 130 -79 130 -87 0 -21 -17
-17 -79 20 -113 67 -171 97 -171 89 0 -4 52 -37 115 -73 63 -35 115 -70 115
-78 0 -7 5 -10 11 -6 13 8 99 -35 99 -49 0 -4 -16 -39 -36 -77 -36 -70 -36
-70 -101 -90 -94 -29 -98 -28 -71 21 25 44 72 81 94 72 8 -3 14 -1 14 5 0 6
11 24 25 40 25 29 25 61 1 63 -34 3 -75 -5 -107 -22 -20 -10 -58 -27 -85 -37
-27 -11 -56 -23 -66 -26 -13 -6 -17 1 -23 33 -8 48 19 123 42 114 7 -3 13 0
13 6 0 6 -4 11 -10 11 -5 0 -10 6 -10 14 0 8 -4 17 -9 20 -16 10 -133 -55
-183 -101 -45 -43 -48 -44 -48 -22 0 13 -5 31 -10 39 -8 13 -10 13 -10 -2 0
-9 5 -29 10 -43 9 -23 6 -31 -17 -56 -16 -16 -34 -29 -40 -29 -7 0 -13 -6 -13
-12 0 -18 -80 -88 -100 -88 -10 0 -20 -4 -22 -9 -1 -4 -48 -42 -103 -84 -70
-53 -115 -79 -150 -88 -27 -7 -44 -14 -37 -17 23 -7 113 30 155 65 23 20 80
61 127 91 47 30 108 78 137 108 37 38 57 52 70 48 15 -5 16 -4 3 5 -15 11 -10
14 25 13 17 -1 17 0 3 4 -24 7 -23 16 6 44 16 14 31 20 42 16 14 -5 15 -4 5 8
-10 11 -6 18 20 37 20 14 34 19 36 12 2 -6 18 2 36 18 56 51 79 33 26 -20 -17
-17 -23 -28 -15 -25 31 12 16 -4 -27 -29 -25 -15 -60 -50 -84 -84 -22 -32 -50
-67 -62 -77 -12 -11 -21 -25 -21 -32 0 -7 -6 -15 -12 -17 -8 -3 -6 -6 4 -6 10
-1 80 30 155 68 184 92 253 122 253 110 0 -5 18 0 40 11 47 24 60 25 60 5 0
-19 -60 -57 -79 -50 -11 4 -11 3 -2 -9 10 -12 8 -16 -10 -21 -13 -4 -60 -30
-106 -57 l-83 -49 -29 20 c-34 25 -49 27 -31 6 7 -8 18 -15 26 -15 30 0 21
-20 -20 -44 -95 -56 -63 -57 131 -7 111 28 167 45 216 66 13 6 16 4 11 -9 -5
-13 3 -11 31 8 44 31 75 34 75 8 0 -22 -55 -56 -81 -49 -10 3 -17 1 -13 -4 3
-5 14 -9 24 -9 25 0 33 -15 20 -39 -8 -16 -94 -51 -124 -51 -15 0 -4 19 15 25
43 14 110 47 105 52 -2 3 -69 -20 -148 -51 -79 -30 -174 -63 -213 -71 -79 -19
-114 -34 -77 -35 31 0 246 38 297 52 22 7 47 13 55 13 8 1 30 10 48 19 18 9
37 14 42 11 20 -13 9 -35 -27 -54 -21 -11 -31 -20 -23 -21 43 -2 -131 -69
-289 -111 -62 -16 -130 -38 -150 -49 l-36 -19 44 -1 c61 0 211 29 239 46 12 8
22 21 22 28 0 9 30 24 78 40 55 19 90 38 125 69 50 46 55 58 33 76 -12 11 -9
21 21 72 23 40 32 66 27 77 -4 9 -8 21 -8 25 -1 11 -28 27 -46 26 -9 0 -6 -5
9 -13 14 -8 19 -16 13 -20 -6 -3 -13 -2 -17 4 -3 5 -11 10 -16 10 -6 0 -8 -4
-5 -8 3 -4 -8 -13 -25 -19 -16 -6 -29 -9 -29 -6 0 5 57 110 66 121 1 2 12 -2
24 -8 16 -9 20 -9 15 -1 -5 8 2 10 22 6 l28 -6 -25 15 c-16 9 -27 11 -31 4 -4
-7 -9 -6 -14 2 -17 27 13 30 59 4 46 -26 46 -27 31 -50 -8 -13 -15 -27 -15
-31 0 -4 10 7 21 25 12 18 20 34 18 36 -4 4 -448 259 -481 277 -10 5 -18 6
-18 2z"/>
<path d="M1121 574 c-11 -12 -15 -13 -21 -3 -6 9 -12 9 -24 -4 -12 -11 -26
-14 -46 -10 -19 3 -30 1 -30 -6 0 -15 -37 -14 -43 2 -3 7 -6 4 -6 -7 -1 -14
-7 -17 -28 -13 -15 3 -40 -1 -55 -9 -19 -10 -29 -11 -34 -3 -5 8 -9 8 -14 -1
-9 -14 -78 -31 -85 -20 -6 10 -57 0 -75 -15 -8 -7 -24 -15 -35 -18 -51 -12 35
-5 95 8 95 21 110 20 110 -9 0 -21 -7 -26 -47 -34 -144 -30 -167 -36 -153 -39
8 -2 58 5 110 16 52 11 96 19 97 18 1 -1 4 -14 8 -28 l6 -26 -118 -24 c-65
-13 -109 -25 -98 -27 11 -1 63 6 115 17 52 11 98 17 102 15 5 -3 8 -15 8 -28
0 -21 -8 -24 -95 -40 -97 -17 -156 -34 -123 -35 24 -1 299 57 306 64 4 3 -13
3 -37 -1 -42 -7 -43 -7 -39 21 3 26 9 30 56 41 51 11 54 10 63 -10 10 -21 10
-21 5 1 -2 14 2 23 13 26 14 4 14 5 -1 6 -10 0 -18 7 -18 15 0 8 -3 21 -6 29
-4 11 5 16 33 21 21 4 48 10 60 13 17 4 25 -1 33 -18 10 -24 10 -9 -2 75 -2
16 6 22 42 29 37 8 41 11 25 18 -29 11 -38 10 -54 -7z"/>
</g>
</svg>
