<?xml version="1.0" standalone="no"?>
<!DOCTYPE svg PUBLIC "-//W3C//DTD SVG 20010904//EN"
 "http://www.w3.org/TR/2001/REC-SVG-20010904/DTD/svg10.dtd">
<svg version="1.0" xmlns="http://www.w3.org/2000/svg"
 width="640.000000pt" height="350.000000pt" viewBox="0 0 640.000000 350.000000"
 preserveAspectRatio="xMidYMid meet">
<metadata>
Created by potrace 1.16, written by Peter Selinger 2001-2019
</metadata>
<g transform="translate(0.000000,350.000000) scale(0.100000,-0.100000)"
fill="#000000" stroke="none">
<path d="M4029 3355 c-1 -3 -3 -9 -4 -15 -1 -5 -3 -42 -4 -81 -1 -59 -4 -70
-16 -65 -8 3 -21 9 -29 12 -8 3 -37 -14 -66 -38 -51 -42 -53 -45 -56 -100 -3
-42 0 -58 9 -58 6 0 -14 -18 -46 -39 l-59 -39 1 -258 2 -259 -23 -10 c-23 -10
-23 -11 -25 -230 -1 -182 -9 -550 -17 -745 l-2 -45 -44 2 c-25 1 -80 2 -123 2
l-78 1 6 38 c3 20 8 52 11 70 l5 33 60 -2 c32 -1 62 0 65 3 3 4 -29 8 -71 10
l-77 3 -20 -33 c-11 -18 -22 -31 -24 -29 -7 7 9 456 17 468 5 9 43 12 129 10
68 -1 126 -4 131 -6 4 -3 10 -1 13 4 10 15 -33 21 -152 21 -80 0 -117 -4 -126
-13 -9 -9 -15 -59 -20 -152 -3 -77 -9 -191 -12 -252 -7 -124 0 -138 42 -85
l22 27 -12 -60 -12 -60 -56 -3 -56 -3 -4 -69 c-2 -38 -7 -72 -11 -77 -4 -4
-29 -8 -55 -9 -46 -2 -47 -3 -47 -36 l0 -33 -105 -7 c-58 -4 -190 -12 -295
-18 -405 -23 -498 -30 -502 -33 -2 -2 -6 -69 -9 -148 -3 -78 -7 -146 -10 -150
-2 -4 0 -10 5 -13 13 -9 21 30 22 119 0 44 4 103 7 130 l7 50 185 12 c102 6
275 16 385 23 110 6 287 20 393 31 106 11 217 19 247 18 l55 -2 0 -269 c0
-172 4 -268 10 -268 6 0 10 93 10 260 0 288 -3 275 64 247 l29 -13 -2 -179
c-1 -125 1 -177 9 -169 15 15 14 564 -1 578 -8 8 -10 -7 -5 -59 6 -76 -1 -145
-15 -145 -10 0 -92 35 -124 53 -84 46 -98 50 -162 40 -35 -5 -64 -8 -66 -7 -1
1 -1 29 1 62 l4 59 91 7 c51 4 151 6 222 6 126 -2 165 3 165 20 0 5 -15 3 -34
-2 -44 -14 -66 -5 -66 27 0 23 3 25 50 25 28 0 50 4 50 10 0 5 -20 7 -47 3
l-48 -5 2 108 c0 60 4 242 7 404 4 162 7 309 6 326 0 28 4 32 43 44 44 14 70
30 49 30 -7 0 -29 -7 -49 -15 -45 -19 -43 -20 -43 13 0 24 9 32 75 65 41 20
75 41 75 47 0 14 -2 13 -51 -15 -24 -14 -47 -25 -51 -25 -4 0 -7 31 -7 68 0
67 1 69 32 86 31 16 31 16 5 11 -21 -4 -28 -1 -28 9 0 9 12 22 28 30 15 8 23
15 19 16 -5 0 -17 -5 -27 -10 -12 -6 -21 -7 -25 0 -3 5 8 16 26 25 32 17 34
33 2 21 -10 -4 -20 -7 -23 -7 -2 1 -6 54 -8 119 l-3 119 53 36 c30 20 55 31
57 24 2 -5 -3 -15 -12 -21 -8 -6 -24 -17 -34 -24 -10 -7 -4 -5 14 3 18 8 34
15 38 15 3 0 5 -19 5 -42 0 -40 -3 -44 -38 -60 -31 -15 -13 -15 26 -1 9 4 12
-30 12 -151 0 -86 4 -156 9 -156 5 0 8 108 7 243 l-1 242 54 -3 c30 -2 102
-12 160 -22 58 -10 109 -14 114 -11 4 4 -46 15 -110 25 -65 10 -140 21 -168
26 -39 6 -54 4 -67 -8 -17 -14 -18 -12 -18 29 0 50 3 56 44 87 36 28 49 28 41
1 -5 -14 -1 -25 12 -34 21 -16 67 -20 58 -5 -3 6 -17 10 -31 10 -13 0 -24 5
-24 11 0 8 18 10 55 7 30 -3 55 -1 55 4 0 4 -18 8 -39 8 -45 0 -71 8 -71 22 0
9 68 4 115 -9 14 -4 17 -2 10 5 -5 6 -21 12 -35 14 -25 3 -25 4 -21 91 2 48 0
87 -3 87 -3 0 -7 -2 -7 -5z"/>
<path d="M621 2840 c-5 -34 -10 -81 -20 -185 -14 -135 -19 -155 -40 -155 -9 0
-48 -12 -87 -26 l-72 -26 -7 -136 c-3 -76 -8 -180 -11 -232 -9 -194 -24 -443
-44 -720 -11 -157 -19 -310 -19 -340 l2 -55 10 68 c9 64 12 70 48 94 49 32 43
44 -5 13 l-36 -22 0 54 c0 61 8 75 63 108 50 30 40 37 -14 10 l-42 -22 7 47
c3 26 6 63 6 81 0 30 5 36 51 60 28 14 49 28 46 30 -3 3 -24 -4 -47 -16 -23
-12 -44 -20 -46 -18 -2 2 -1 20 2 40 5 30 14 40 50 60 24 13 44 26 44 31 0 4
-18 -2 -40 -13 -49 -25 -50 -25 -50 5 0 20 11 31 55 56 70 39 65 50 -5 14 -43
-22 -52 -24 -46 -10 3 9 6 32 6 50 0 30 5 36 47 56 26 12 42 24 36 26 -7 3
-25 -3 -42 -11 -40 -21 -41 -21 -41 17 0 30 5 36 50 57 27 13 48 26 45 28 -3
3 -23 -3 -45 -13 -22 -10 -43 -16 -46 -13 -3 3 -2 22 1 41 6 31 13 38 58 56
27 12 48 24 44 27 -3 3 -27 -4 -52 -15 l-47 -21 6 31 c3 17 6 42 6 55 0 19 8
25 40 34 21 6 42 16 46 22 7 11 2 10 -63 -8 -20 -5 -23 -2 -23 19 0 22 8 28
50 42 28 9 50 20 50 25 0 4 -22 0 -50 -11 l-50 -19 0 36 c0 33 3 37 53 59 57
26 49 34 -10 10 -45 -19 -43 -19 -43 9 0 68 10 84 61 97 27 7 49 16 49 20 0 5
-21 2 -47 -6 -27 -8 -49 -15 -50 -15 -2 0 -3 17 -2 38 2 70 10 82 69 103 76
26 75 26 73 4 -1 -11 -7 -83 -13 -160 -5 -77 -17 -207 -25 -290 -8 -82 -17
-240 -20 -350 -4 -184 -16 -326 -45 -573 -6 -51 -10 -107 -8 -125 6 -59 66
475 70 618 1 48 7 89 13 93 5 3 118 6 250 5 172 -1 229 1 200 8 -22 6 -135 9
-251 7 l-211 -3 -2 55 c-1 30 3 97 8 150 10 87 31 322 46 510 l6 75 152 -2
c84 -1 219 -2 300 -2 82 -1 146 -5 143 -10 -3 -5 -10 -159 -16 -342 -5 -184
-13 -406 -16 -495 l-7 -161 -251 -7 c-271 -7 -281 -8 -293 -20 -4 -5 48 -6
117 -2 69 4 194 10 278 12 l152 4 0 -245 c0 -140 4 -245 9 -245 5 0 9 66 9
148 0 638 2 670 27 700 13 15 26 25 29 22 3 -3 1 -116 -4 -250 -11 -298 -12
-486 -3 -476 4 4 12 171 18 371 7 201 14 368 17 371 7 6 302 4 951 -5 l58 -1
-5 -262 c-4 -145 -8 -288 -11 -318 -14 -156 -24 -473 -15 -488 12 -22 12 -28
15 128 1 74 8 223 14 330 7 107 13 231 14 274 l2 79 100 51 c54 28 101 56 103
62 1 6 -40 -11 -93 -38 -53 -27 -99 -48 -101 -45 -3 3 -8 45 -11 93 l-5 89 53
28 c102 52 171 95 162 100 -5 3 -51 -19 -101 -49 -89 -53 -112 -59 -112 -28 0
8 -7 14 -16 14 -8 0 -12 5 -9 11 4 6 9 8 12 5 13 -13 213 115 213 136 0 6 -15
-1 -32 -16 -34 -26 -139 -89 -170 -101 -14 -6 -18 -2 -17 16 0 17 15 35 47 58
76 56 223 153 226 150 5 -8 -11 -486 -16 -495 -11 -17 -18 -444 -8 -444 6 0
10 52 11 128 1 153 5 231 20 380 7 64 9 159 5 215 -3 56 -2 127 3 157 16 100
10 100 -119 13 -188 -127 -190 -129 -190 -176 l0 -40 -310 5 c-171 3 -313 8
-317 11 -10 10 18 191 31 199 6 4 103 8 215 8 l204 0 -6 -85 c-3 -47 -2 -83 2
-80 5 2 12 49 16 102 3 54 11 116 16 138 5 22 16 132 24 245 22 294 20 288 64
306 58 24 120 35 214 39 49 2 92 6 95 10 4 4 -45 5 -108 3 -85 -4 -134 -12
-186 -29 l-71 -24 -6 -85 c-4 -47 -11 -148 -17 -225 -14 -200 -30 -295 -49
-297 -9 -1 -104 -2 -212 -3 -142 0 -200 -3 -211 -13 -9 -7 -18 -38 -21 -80
-13 -130 -13 -132 -63 -132 -41 0 -44 2 -44 28 0 38 -17 52 -61 52 l-37 0 -6
63 c-8 90 -15 206 -16 255 0 23 -4 42 -8 42 -5 0 -14 -80 -20 -177 -13 -183
-15 -193 -59 -193 -16 0 -25 -11 -38 -43 -10 -27 -28 -50 -46 -61 l-29 -17 0
29 c0 15 4 53 9 83 6 30 11 167 13 306 l4 252 -280 1 c-154 0 -282 2 -284 5
-8 8 -3 136 9 215 6 42 9 89 6 105 -2 17 -5 23 -6 15z"/>
<path d="M3892 2485 c12 -12 123 -26 242 -30 71 -3 132 -8 135 -11 3 -3 6
-118 6 -257 2 -497 7 -712 14 -692 7 19 4 938 -4 961 -2 8 -42 12 -117 13 -62
1 -143 6 -178 11 -73 11 -106 12 -98 5z"/>
<path d="M3862 2388 c1 -18 1 -80 0 -138 l-2 -105 -38 -17 c-31 -15 -13 -15
26 -1 6 3 12 0 12 -5 0 -6 -20 -20 -45 -31 -56 -25 -60 -35 -5 -14 22 9 44 13
48 9 10 -11 -26 -35 -65 -42 -18 -3 -33 -10 -33 -15 0 -4 20 -2 44 5 51 15 55
11 48 -51 -4 -30 -8 -33 -58 -44 -30 -7 -51 -16 -46 -21 5 -5 28 -2 52 7 24 8
45 13 48 10 3 -2 4 -46 3 -97 -1 -51 -4 -199 -5 -328 -2 -129 -6 -302 -10
-385 -4 -105 -3 -141 4 -120 9 28 27 674 30 1088 1 98 4 185 7 193 4 11 33 14
142 15 164 1 160 5 -11 14 l-128 7 0 49 c0 27 -4 49 -10 49 -5 0 -9 -15 -8
-32z"/>
<path d="M2996 2338 c-3 -13 -9 -63 -13 -111 -3 -48 -10 -90 -14 -93 -10 -6
-122 14 -157 27 -19 7 -24 5 -34 -16 -8 -18 -17 -23 -37 -20 -14 3 -57 9 -96
15 -38 5 -81 13 -95 16 -18 5 -22 4 -15 -4 6 -6 57 -18 115 -27 58 -9 177 -29
265 -45 88 -16 183 -32 211 -36 28 -3 57 -10 63 -14 9 -5 10 -69 2 -271 -12
-312 -15 -488 -8 -495 2 -3 8 37 12 89 l7 94 94 -17 c52 -10 97 -14 99 -9 7
10 -11 14 -112 29 l-83 12 0 77 c0 42 5 167 10 279 5 111 7 208 4 216 -3 8
-15 16 -27 18 -12 2 -22 9 -22 17 0 9 -26 22 -68 35 l-68 20 6 61 c3 33 8 72
11 88 3 16 1 27 -5 27 -6 0 -11 -12 -11 -27 0 -49 -24 -193 -32 -193 -11 0
-10 79 3 183 10 86 8 122 -5 75z"/>
<path d="M5674 2023 l-91 -4 4 -137 c2 -75 8 -198 13 -273 6 -74 10 -188 10
-253 0 -69 4 -115 9 -111 10 6 8 191 -8 530 -5 121 -8 222 -5 224 6 6 18 7
182 9 80 1 132 6 132 12 0 10 -37 10 -246 3z"/>
<path d="M6119 1961 l-4 -63 -60 -18 c-33 -10 -76 -22 -95 -27 -32 -8 -35 -12
-36 -48 0 -42 3 -40 -97 -64 -26 -6 -57 -11 -68 -11 l-21 0 7 -409 c4 -226 8
-425 10 -443 1 -18 1 -36 -1 -40 -3 -4 -30 2 -61 13 -31 10 -58 17 -61 14 -6
-6 78 -44 99 -45 17 0 29 -38 29 -91 0 -32 -14 -36 -83 -20 -20 5 -39 5 -42 1
-5 -8 70 -30 104 -30 18 0 21 -6 21 -50 0 -30 4 -50 11 -50 8 0 9 60 4 208 -3
114 -7 290 -8 391 l-2 184 55 13 c72 17 262 52 323 59 26 4 47 10 47 16 0 14
-10 12 -225 -31 -109 -22 -200 -39 -201 -37 -6 6 -14 300 -9 317 4 12 20 19
58 24 28 4 123 25 210 47 87 21 171 39 187 39 16 0 32 5 36 12 5 8 -9 9 -54 5
l-62 -7 0 31 c0 22 4 30 14 26 34 -13 106 -19 106 -8 0 6 -15 11 -32 11 -64 0
-78 9 -79 49 -1 20 -5 50 -9 66 -6 25 -8 19 -11 -34z"/>
<path d="M5140 1786 c0 -59 -3 -76 -14 -76 -8 0 -21 -3 -30 -6 -13 -5 -16 2
-16 35 l0 41 -62 0 c-35 0 -122 3 -194 7 l-132 5 -7 -40 c-7 -40 -7 -41 -53
-44 l-47 -3 -6 -90 c-3 -49 -9 -104 -13 -121 l-7 -32 -177 -5 c-97 -3 -197 -6
-221 -6 -35 -1 -54 -9 -86 -36 -50 -40 -54 -55 -61 -215 -5 -103 -11 -175 -31
-347 -4 -35 -2 -53 5 -53 6 0 14 30 18 68 4 37 8 76 9 87 1 11 3 28 4 37 0 9
22 29 48 45 25 15 41 29 34 31 -6 2 -23 -3 -36 -12 -35 -23 -42 -20 -37 14 3
23 14 36 43 53 21 12 39 25 39 30 0 11 -10 8 -46 -14 l-34 -21 0 69 1 68 46
28 c25 15 43 30 40 33 -3 3 -22 -6 -43 -20 -21 -14 -39 -24 -41 -23 -11 12 16
48 50 67 23 13 36 25 29 28 -6 2 -24 -6 -39 -18 -26 -20 -28 -21 -32 -4 -3 18
62 84 83 84 9 0 1 -319 -10 -381 -5 -29 -14 -40 -50 -60 -24 -13 -44 -27 -44
-31 0 -12 6 -10 42 12 56 34 58 31 54 -80 -2 -68 0 -100 8 -97 7 2 11 61 12
163 2 87 5 231 8 319 l5 160 58 1 c32 0 117 2 188 3 72 1 153 2 181 2 l52 -1
6 -152 c3 -84 8 -228 11 -320 l5 -168 -53 0 c-28 0 -124 7 -211 15 -146 13
-178 13 -165 1 7 -7 272 -26 357 -26 39 0 72 -3 73 -7 0 -5 2 -15 4 -23 1 -9
-1 -33 -6 -55 l-8 -40 2 38 c2 20 -1 38 -5 38 -21 4 -80 6 -288 13 -124 3
-258 9 -297 12 -45 4 -73 2 -73 -4 0 -18 69 -23 333 -28 144 -2 269 -6 278 -9
23 -8 29 -35 29 -147 0 -72 3 -98 13 -98 9 0 11 21 9 80 l-4 80 111 0 111 0 1
-52 c1 -29 2 -72 2 -95 -1 -41 9 -55 22 -34 3 6 2 53 -1 105 -7 93 -8 96 -31
96 -23 0 -24 3 -21 48 l3 47 80 7 c121 11 131 17 25 15 -52 -1 -96 1 -97 6 -2
4 -3 16 -3 26 0 19 9 20 138 23 l139 3 1 -179 c1 -108 6 -184 12 -190 12 -12
12 -18 14 179 l1 150 30 14 c16 8 24 16 18 18 -7 3 -21 -1 -32 -7 -19 -10 -21
-8 -21 18 0 33 10 44 55 61 25 9 25 10 5 7 -14 -2 -35 -8 -48 -11 -17 -6 -21
-4 -17 7 7 18 47 38 75 38 11 0 20 5 20 10 0 14 -15 13 -57 -5 -44 -18 -57
-10 -25 16 23 18 88 36 98 26 3 -3 5 -109 4 -235 0 -144 3 -233 9 -237 7 -4
11 43 13 132 l3 137 45 8 c25 4 83 10 129 13 46 2 86 7 90 11 7 8 -213 -3
-246 -12 -22 -6 -23 -3 -23 45 l0 51 45 0 c25 0 45 5 45 10 0 6 -20 10 -44 10
l-43 0 -8 91 c-3 50 -3 95 2 99 4 4 75 15 157 24 82 9 153 19 158 23 7 3 8
-106 4 -311 -5 -218 -4 -316 3 -316 11 0 15 224 11 508 l-1 114 43 -7 c24 -3
51 -9 61 -11 9 -3 17 -1 17 3 0 5 -28 15 -62 22 -52 10 -85 9 -188 -3 -68 -9
-141 -16 -162 -16 l-38 0 0 129 0 128 83 5 c45 3 84 4 87 1 2 -2 5 -48 7 -101
2 -53 4 -99 5 -102 4 -12 13 148 10 185 l-4 40 -94 -3 -94 -3 0 125 c0 77 -4
126 -10 126 -6 0 -10 -89 -10 -247 0 -137 -3 -285 -6 -329 l-7 -82 -41 -12
c-23 -6 -50 -20 -61 -30 -19 -18 -30 -18 -150 -10 -72 5 -149 12 -172 15 -23
3 -44 2 -47 -4 -4 -5 38 -12 102 -16 59 -4 139 -10 177 -13 l70 -7 3 -42 3
-41 -158 -4 c-139 -4 -164 -7 -208 -27 -57 -27 -60 -29 -53 -36 3 -3 31 6 63
20 l58 25 -7 -52 c-3 -29 -6 -68 -6 -85 l0 -33 -67 0 -68 0 -2 123 c-2 67 -5
132 -8 145 -4 14 -1 22 8 22 14 0 77 61 77 74 0 5 -20 -8 -44 -28 l-45 -37 -1
158 c-1 87 -4 199 -8 248 l-7 90 -32 3 c-34 3 -41 19 -26 59 6 16 8 15 13 -7
5 -16 10 5 15 63 5 61 4 91 -4 101 -10 11 5 14 91 17 57 2 164 2 238 -1 169
-6 310 -1 310 11 0 5 -20 9 -45 9 -50 0 -49 -2 -45 86 1 29 -3 55 -9 58 -8 5
-11 -17 -11 -68z m-256 -17 c151 -3 176 -8 176 -35 0 -29 -6 -30 -202 -26
-136 3 -158 5 -158 19 0 13 11 15 70 11 39 -3 70 -1 70 3 0 5 -12 9 -27 9 -54
0 -105 12 -91 22 7 4 27 6 43 4 17 -3 70 -6 119 -7z"/>
<path d="M2815 1016 c-11 -16 -107 -25 -267 -26 -67 0 -98 -4 -98 -12 0 -12
223 -6 420 11 58 6 201 13 318 17 129 4 212 10 212 16 0 7 -50 8 -142 4 -337
-15 -358 -16 -358 -6 0 15 -74 12 -85 -4z"/>
<path d="M384 918 c-8 -13 106 -18 406 -16 168 0 377 -2 465 -5 88 -3 195 -6
239 -6 l78 -1 -6 -82 c-3 -46 -7 -129 -8 -185 l-2 -103 -179 0 c-128 0 -176
-3 -171 -11 9 -15 805 -9 801 6 -2 6 -54 11 -120 13 l-116 3 5 177 c3 97 7
182 9 187 1 6 39 9 94 7 l92 -3 -2 -77 c-1 -43 2 -76 7 -75 5 2 10 42 12 90
l4 88 -114 -1 c-103 -2 -119 -4 -178 -32 -36 -17 -76 -33 -89 -37 -22 -7 -23
-5 -19 20 3 15 1 28 -6 30 -43 13 -1194 26 -1202 13z m1371 -275 l-7 -113 -36
0 c-21 0 -60 -3 -89 -6 l-51 -7 2 34 c2 19 4 87 5 152 l1 118 38 15 c20 8 60
25 87 39 l50 24 3 -72 c2 -39 0 -123 -3 -184z"/>
<path d="M5943 855 c5 -33 4 -35 -31 -45 -20 -5 -46 -10 -57 -10 -11 0 -27 -5
-35 -11 -15 -11 3 -9 93 7 l32 6 3 -116 2 -116 -114 0 -114 0 -7 -46 -6 -46
-40 7 c-22 4 -54 14 -70 22 -28 14 -35 14 -65 -1 -22 -10 -34 -23 -34 -36 0
-11 -4 -20 -10 -20 -5 0 -14 -9 -20 -20 -13 -24 1 -56 27 -63 116 -31 113 -30
113 -63 0 -40 9 -66 21 -58 5 3 6 23 3 45 l-7 41 47 -7 c31 -5 51 -3 61 5 22
18 19 57 -5 70 -13 7 -18 16 -13 23 4 7 8 19 8 27 1 8 4 34 9 58 l8 42 176 -2
177 -3 3 -45 c5 -73 22 -72 22 1 l0 66 -71 1 c-40 1 -73 3 -75 4 -1 2 -4 32
-5 68 l-3 65 131 5 c72 3 135 9 139 13 5 4 -54 7 -131 5 l-140 -3 -3 41 c-4
48 -16 44 196 65 67 7 122 16 122 21 0 11 -11 10 -170 -11 -74 -10 -138 -16
-142 -14 -5 2 -8 17 -8 34 0 16 -5 29 -11 29 -8 0 -10 -12 -6 -35z"/>
<path d="M3180 859 c-91 -5 -245 -15 -343 -24 -98 -8 -232 -18 -298 -22 -68
-3 -119 -10 -119 -16 0 -12 162 -4 405 18 88 8 249 19 359 24 115 6 203 14
209 20 8 8 2 11 -18 10 -17 -1 -104 -6 -195 -10z"/>
<path d="M2213 755 c-60 -25 -78 -81 -49 -150 13 -30 20 -35 48 -35 18 0 28
-4 21 -8 -6 -4 -71 -4 -144 0 -74 4 -135 5 -138 2 -12 -11 19 -15 163 -21 112
-4 156 -3 156 5 0 6 7 9 15 6 11 -5 15 -21 15 -60 0 -30 5 -54 10 -54 6 0 10
22 10 49 l0 50 48 0 c26 0 118 1 205 3 153 3 157 2 157 -17 0 -29 19 -45 52
-45 15 0 28 -4 28 -10 0 -9 -38 -12 -185 -16 -68 -1 -77 -3 -71 -13 3 -4 64
-6 136 -3 128 5 130 4 130 -17 0 -11 5 -21 10 -21 6 0 10 8 10 18 0 17 21 19
308 30 169 7 324 9 345 6 31 -6 37 -4 37 11 0 19 11 20 -527 -1 -111 -5 -173
-4 -173 3 0 5 22 24 49 41 48 32 49 32 150 27 65 -4 101 -2 101 5 0 5 -17 10
-37 10 -21 0 -61 3 -90 6 l-52 7 5 48 c3 30 2 49 -5 49 -5 0 -22 11 -37 25
-67 62 -212 3 -217 -89 l-2 -36 -123 0 -122 0 20 41 c25 49 23 81 -7 94 -13 5
-23 15 -23 22 0 7 -9 22 -19 32 -17 17 -34 20 -98 19 -44 0 -93 -6 -110 -13z"/>
<path d="M981 685 c-18 -8 -45 -15 -58 -15 -72 0 -140 -96 -111 -157 9 -19 22
-29 41 -31 15 -2 32 -12 37 -23 12 -21 50 -25 68 -7 18 18 42 -9 42 -50 l0
-35 -172 7 c-443 17 -473 17 -462 6 5 -5 68 -13 140 -15 71 -3 174 -7 229 -10
55 -3 123 -5 152 -5 44 0 51 -3 46 -16 -5 -13 1 -15 28 -13 19 2 40 -1 48 -5
8 -5 16 -4 20 3 5 8 107 11 354 11 219 0 347 4 347 10 0 11 -79 13 -440 12
-193 0 -215 2 -157 11 84 13 88 30 5 21 -117 -12 -113 -13 -116 27 -3 32 0 38
28 49 17 7 33 10 36 7 11 -10 61 14 88 42 23 24 26 32 17 50 -9 16 -8 26 6 47
16 26 16 27 -6 45 -13 11 -36 19 -51 19 -15 0 -33 7 -40 15 -16 19 -75 19
-119 0z"/>
<path d="M3604 596 c-5 -14 -32 -16 -183 -16 -98 0 -180 -2 -182 -5 -10 -9 4
-76 15 -72 6 2 10 16 8 30 l-3 27 170 0 171 0 0 -50 c0 -72 18 -62 22 13 l3
62 125 -3 c186 -5 179 -1 182 -75 2 -37 7 -60 13 -57 9 5 8 129 -1 139 -2 2
-43 5 -91 7 -48 2 -123 6 -166 9 -65 5 -78 4 -83 -9z"/>
<path d="M6212 593 c-18 -9 -39 -28 -47 -43 -12 -23 -12 -30 1 -49 8 -11 12
-25 9 -31 -8 -13 31 -50 53 -50 11 0 27 -9 37 -20 25 -27 61 -25 81 5 8 13 13
29 10 34 -4 6 -1 19 5 29 17 27 4 52 -25 52 -27 0 -42 15 -26 25 16 10 12 36
-7 51 -24 18 -51 17 -91 -3z"/>
<path d="M3680 369 c-70 -9 -796 -29 -1176 -32 -185 -2 -234 1 -248 12 -23 19
-34 5 -13 -17 16 -15 43 -17 255 -16 339 2 1116 23 1189 32 35 4 68 13 75 20
14 14 19 13 -82 1z"/>
<path d="M3916 351 c-3 -4 27 -11 66 -14 39 -3 76 -11 82 -17 8 -8 -19 -10
-99 -6 -197 11 -435 15 -450 10 -44 -17 8 -23 228 -25 333 -4 350 -4 371 4 30
12 6 27 -66 43 -73 15 -125 18 -132 5z"/>
<path d="M4960 330 c0 -5 39 -11 88 -12 82 -3 87 -4 90 -25 5 -31 22 -29 22 2
0 24 3 25 60 25 l60 0 0 -36 c0 -24 4 -34 13 -31 6 2 12 16 12 30 -1 23 3 27
27 27 22 0 28 -5 30 -22 0 -13 1 -30 2 -38 1 -21 66 -25 91 -5 19 15 17 15
-26 9 -46 -6 -46 -6 -47 25 l-1 31 80 0 c125 0 92 16 -48 23 -193 10 -453 9
-453 -3z"/>
<path d="M425 290 c-3 -5 -5 -10 -3 -11 29 -7 100 -10 413 -15 345 -7 465 -3
465 14 0 4 -184 7 -408 8 -225 0 -420 4 -435 7 -14 4 -29 3 -32 -3z"/>
<path d="M5145 231 c-3 -6 -4 -11 -2 -11 2 0 48 -7 102 -15 126 -19 424 -30
792 -30 257 0 318 4 302 19 -2 2 -33 1 -69 -2 -36 -4 -204 -4 -375 0 -513 13
-560 15 -717 44 -14 3 -29 0 -33 -5z"/>
</g>
</svg>
