<?xml version="1.0" standalone="no"?>
<!DOCTYPE svg PUBLIC "-//W3C//DTD SVG 20010904//EN"
 "http://www.w3.org/TR/2001/REC-SVG-20010904/DTD/svg10.dtd">
<svg version="1.0" xmlns="http://www.w3.org/2000/svg"
 width="3840.000000pt" height="2160.000000pt" viewBox="0 0 3840.000000 2160.000000"
 preserveAspectRatio="xMidYMid meet">
<metadata>
Created by potrace 1.16, written by Peter Selinger 2001-2019
</metadata>
<g transform="translate(0.000000,2160.000000) scale(0.100000,-0.100000)"
fill="#000000" stroke="none">
<path d="M18675 21459 c-2087 -112 -4022 -788 -5694 -1988 -2422 -1739 -4010
-4412 -4371 -7356 -36 -297 -65 -660 -72 -910 l-3 -100 50 -8 c97 -16 432 -12
555 7 258 40 514 125 798 265 53 26 230 115 392 199 340 174 501 246 686 307
249 82 470 118 729 118 142 -1 409 -24 422 -37 2 -2 -29 -63 -68 -137 -87
-163 -217 -438 -290 -614 l-54 -130 -170 3 c-195 5 -341 -12 -519 -58 -223
-57 -435 -151 -886 -392 -384 -205 -601 -298 -834 -358 -209 -53 -309 -65
-565 -65 l-234 0 7 -125 c12 -217 55 -613 68 -621 44 -27 402 -31 548 -5 273
47 462 127 935 396 293 166 357 199 505 263 248 105 462 155 714 164 154 6
169 5 163 -10 -28 -72 -167 -691 -167 -744 0 -37 -16 -43 -134 -53 -325 -28
-546 -115 -1046 -410 -563 -332 -780 -405 -1196 -405 l-200 0 33 -150 c35
-159 104 -435 150 -600 l28 -100 115 -3 c200 -6 355 31 565 132 72 35 186 99
255 143 69 44 188 119 265 168 186 118 356 203 507 253 158 52 262 72 422 79
l129 6 -6 -93 c-4 -51 -7 -209 -7 -352 l0 -258 -67 0 c-169 0 -383 -58 -576
-157 -62 -31 -215 -126 -342 -211 -126 -85 -274 -181 -330 -213 -194 -113
-385 -173 -590 -186 -58 -3 -105 -10 -105 -15 0 -29 251 -630 321 -771 l29
-57 43 6 c70 9 178 44 250 80 96 48 167 98 362 252 94 75 211 162 260 195 229
150 444 217 701 217 l121 0 7 -57 c7 -59 81 -471 92 -509 5 -21 2 -21 -128
-27 -167 -7 -257 -30 -403 -102 -125 -63 -207 -122 -395 -285 -271 -235 -389
-307 -566 -344 l-52 -11 80 -140 c98 -173 207 -352 311 -513 l79 -122 39 22
c54 30 153 112 321 266 232 212 336 288 499 366 114 55 248 94 346 103 40 3
73 8 73 10 0 3 -20 71 -44 151 -39 129 -126 449 -126 464 0 3 60 8 133 11 222
10 489 66 723 152 258 95 592 289 814 473 l95 79 0 164 c1 223 33 351 149 594
113 236 253 444 571 850 380 484 495 649 586 840 76 158 93 235 92 395 -2 266
-36 443 -179 944 -106 371 -154 576 -183 781 -58 405 -53 761 14 1098 127 637
468 1278 925 1737 110 111 272 244 338 279 13 7 -13 -34 -67 -103 -180 -233
-365 -525 -491 -777 -264 -526 -383 -1039 -367 -1579 11 -379 62 -631 242
-1215 135 -438 187 -655 215 -914 16 -143 14 -383 -4 -476 -53 -270 -207 -556
-520 -965 -454 -594 -530 -700 -635 -887 -94 -167 -163 -351 -192 -513 -17
-100 -13 -317 10 -450 46 -262 133 -493 346 -918 l153 -302 -82 -76 c-468
-437 -1071 -756 -1621 -856 -107 -19 -361 -17 -406 4 -97 43 -144 117 -260
401 l-44 108 -65 -7 c-146 -14 -314 -82 -459 -185 -41 -28 -172 -147 -291
-264 -119 -116 -238 -227 -263 -245 -26 -18 -47 -36 -47 -39 0 -16 380 -488
501 -623 l34 -38 130 151 c268 311 465 469 684 549 l81 30 26 -53 c15 -28 67
-123 115 -210 49 -87 89 -160 89 -162 0 -3 -8 -5 -18 -5 -36 0 -220 -101 -298
-164 -45 -36 -116 -102 -159 -147 -83 -89 -288 -343 -293 -363 -5 -20 589
-596 615 -596 6 0 27 26 48 58 69 104 168 225 270 331 97 100 244 221 268 221
7 0 25 -19 42 -43 16 -23 75 -99 131 -169 l102 -127 -77 -64 c-126 -105 -277
-287 -373 -450 l-42 -70 39 -35 c109 -95 710 -532 731 -532 5 0 17 40 26 88
23 120 69 254 133 389 93 196 200 362 497 771 377 519 522 782 593 1075 52
212 53 429 4 636 -10 46 -18 85 -16 87 6 7 121 -211 163 -308 82 -194 116
-368 107 -553 -13 -312 -129 -613 -418 -1090 -367 -604 -429 -716 -507 -915
-62 -160 -118 -377 -118 -460 0 -11 53 -47 168 -112 163 -93 433 -238 444
-238 3 0 8 39 11 88 11 178 73 412 180 682 55 141 179 393 524 1070 362 711
422 1042 268 1491 -75 217 -196 438 -567 1039 -244 394 -366 633 -446 876
-202 605 -98 1061 392 1722 58 78 161 213 229 299 269 344 395 524 485 693
145 271 190 489 163 784 -27 288 -80 494 -257 990 -217 608 -287 900 -313
1306 -52 806 222 1619 760 2260 192 229 404 414 613 535 59 34 58 33 -65 -120
-472 -591 -719 -1118 -808 -1730 -51 -345 -49 -708 4 -1018 48 -281 101 -454
305 -1002 244 -652 306 -909 317 -1310 7 -284 -21 -439 -127 -683 -96 -222
-231 -425 -564 -847 -286 -361 -380 -495 -479 -685 -137 -261 -192 -513 -167
-767 36 -367 171 -662 616 -1350 297 -460 415 -670 507 -903 204 -520 164
-918 -157 -1566 -51 -104 -168 -326 -260 -494 -348 -636 -492 -983 -552 -1330
-22 -127 -32 -299 -19 -310 25 -21 688 -280 717 -280 7 0 8 33 3 98 -13 181
26 453 101 698 79 264 204 542 472 1054 91 173 205 396 253 495 304 625 356
978 207 1425 -78 238 -209 480 -481 895 -496 757 -616 990 -703 1361 -26 109
-28 136 -29 319 0 219 10 287 67 460 84 256 219 470 597 945 286 359 391 514
492 725 63 131 108 263 136 395 25 118 25 468 0 625 -48 311 -134 566 -359
1080 -252 573 -344 852 -400 1210 -31 201 -32 627 -1 825 100 640 354 1178
780 1652 164 182 438 418 487 418 27 0 46 -18 46 -43 0 -10 -44 -78 -99 -150
-407 -545 -592 -1000 -673 -1657 -8 -64 -13 -219 -13 -400 0 -332 8 -402 75
-665 71 -278 146 -476 382 -1009 354 -800 450 -1116 465 -1531 19 -543 -140
-948 -608 -1540 -385 -487 -501 -673 -583 -935 -38 -119 -56 -247 -56 -396 0
-257 61 -488 209 -784 95 -190 167 -308 442 -721 281 -423 362 -555 457 -745
81 -162 130 -284 166 -410 53 -187 61 -247 61 -454 -1 -173 -4 -209 -28 -320
-62 -291 -142 -487 -467 -1150 -307 -625 -390 -816 -474 -1094 -85 -278 -118
-548 -97 -783 7 -79 17 -143 24 -150 20 -18 752 -181 764 -169 2 2 -2 46 -9
97 -15 122 -15 466 1 594 44 350 148 701 328 1110 42 94 153 330 248 525 250
515 314 664 373 871 48 164 63 254 69 395 14 335 -78 635 -335 1084 -37 63
-191 302 -343 530 -313 471 -399 610 -497 806 -161 321 -222 571 -209 843 18
352 144 628 477 1051 170 215 329 430 384 519 142 230 217 426 261 680 19 111
39 154 94 204 78 71 153 72 376 7 331 -97 461 -120 695 -120 235 0 340 18 678
115 252 72 312 71 393 -2 55 -50 75 -93 94 -204 62 -358 189 -615 502 -1014
455 -580 557 -768 609 -1117 43 -293 -16 -590 -186 -938 -105 -213 -189 -350
-483 -789 -293 -438 -380 -580 -481 -780 -172 -341 -234 -581 -223 -865 5
-149 20 -237 68 -403 59 -205 128 -368 365 -855 191 -393 277 -581 349 -763
215 -544 292 -1041 234 -1493 -6 -46 -9 -85 -7 -88 13 -12 745 150 765 169 7
7 18 71 25 150 26 295 -32 630 -177 1017 -71 192 -169 405 -390 850 -221 446
-280 573 -350 757 -99 257 -143 454 -152 668 -12 307 58 582 236 933 100 195
150 277 451 732 350 529 453 709 543 951 100 267 132 532 92 776 -52 319 -179
544 -624 1108 -468 592 -627 997 -608 1540 9 241 51 460 144 740 62 190 142
387 322 794 237 535 309 726 381 1006 67 263 75 333 75 665 0 299 -7 388 -46
625 -86 513 -293 977 -642 1434 -95 125 -103 141 -88 170 24 44 64 25 211 -98
445 -371 777 -854 962 -1401 100 -296 145 -551 155 -876 8 -287 -16 -523 -83
-789 -63 -250 -138 -454 -324 -880 -249 -571 -328 -803 -377 -1120 -25 -157
-25 -507 0 -625 28 -132 73 -264 136 -395 101 -211 206 -366 492 -725 310
-390 409 -533 508 -734 111 -226 150 -376 158 -611 10 -299 -51 -551 -218
-890 -91 -185 -191 -352 -462 -767 -338 -516 -457 -736 -540 -994 -59 -183
-71 -260 -72 -444 0 -138 4 -182 23 -270 68 -303 165 -523 582 -1320 199 -381
332 -684 404 -924 75 -245 113 -512 100 -698 -5 -72 -4 -98 5 -98 17 0 387
141 564 214 l152 64 3 68 c6 138 -44 393 -123 622 -87 255 -202 497 -462 972
-331 604 -448 876 -504 1162 -69 356 -8 690 204 1113 75 152 195 350 405 674
386 595 526 878 593 1201 29 137 31 375 5 495 -48 216 -139 418 -294 650 -55
83 -205 283 -333 445 -259 330 -342 443 -436 598 -220 364 -293 674 -254 1088
34 356 98 594 324 1196 182 484 245 690 292 962 85 495 41 1061 -120 1551
-142 435 -339 767 -789 1334 -14 18 7 7 104 -52 168 -102 433 -349 600 -557
187 -234 372 -553 488 -840 234 -581 286 -1216 152 -1865 -48 -227 -95 -381
-258 -840 -142 -399 -185 -548 -221 -773 -92 -565 12 -865 538 -1542 397 -511
511 -674 621 -892 197 -387 234 -722 124 -1128 -81 -297 -212 -558 -573 -1139
-223 -359 -288 -471 -372 -646 -241 -501 -243 -818 -8 -1375 51 -122 90 -201
432 -870 224 -439 329 -691 392 -938 30 -118 55 -271 55 -333 0 -25 3 -49 7
-52 8 -8 192 87 436 226 l179 102 -7 50 c-36 282 -163 586 -420 1010 -272 447
-335 556 -402 691 -155 310 -216 531 -216 784 1 199 42 366 142 575 56 117
135 251 127 215 -42 -177 -49 -232 -49 -380 0 -414 143 -732 624 -1392 293
-403 411 -585 504 -781 64 -135 110 -269 133 -389 9 -48 21 -88 25 -88 22 0
618 434 732 533 l39 34 -42 70 c-53 89 -148 218 -226 307 -58 66 -175 173
-211 193 -14 8 -2 29 87 139 57 71 117 148 133 171 17 24 35 43 42 43 24 0
171 -121 268 -221 102 -106 201 -227 270 -331 21 -32 42 -58 48 -58 26 0 620
576 615 597 -5 20 -208 271 -293 361 -139 148 -307 266 -432 303 -24 7 -43 14
-43 17 0 2 29 54 64 116 35 61 87 155 116 208 l51 97 81 -29 c243 -89 440
-258 808 -693 7 -8 153 159 316 363 163 204 227 291 218 299 -5 4 -31 25 -59
46 -27 22 -138 125 -245 230 -107 106 -231 218 -275 251 -151 112 -322 183
-475 198 l-65 7 -44 -108 c-85 -210 -135 -306 -179 -345 -73 -65 -98 -72 -267
-73 -160 0 -221 9 -408 56 -475 119 -1023 430 -1434 813 l-82 76 134 263 c204
400 303 650 355 892 31 143 39 417 16 538 -56 298 -216 588 -597 1082 -450
585 -572 769 -667 1008 -71 177 -84 240 -89 429 -10 334 37 605 194 1118 115
377 129 425 167 575 114 460 136 903 65 1325 -101 598 -382 1202 -826 1773
-93 120 -88 121 57 13 341 -253 719 -763 931 -1256 253 -590 322 -1122 228
-1775 -30 -210 -71 -385 -176 -750 -148 -518 -184 -705 -186 -970 -1 -150 1
-165 27 -245 53 -161 166 -360 328 -579 39 -52 169 -221 291 -375 478 -610
639 -882 729 -1231 16 -64 21 -115 22 -249 l2 -170 95 -78 c221 -184 555 -378
813 -473 234 -86 501 -142 724 -152 72 -3 132 -8 132 -11 0 -16 -94 -365 -129
-479 -23 -73 -41 -134 -41 -136 0 -2 33 -7 73 -10 101 -9 234 -49 352 -106
165 -79 268 -157 530 -397 146 -134 243 -212 297 -240 l26 -14 89 138 c87 133
245 395 336 557 l45 80 -52 11 c-179 37 -293 107 -566 344 -189 165 -270 223
-395 285 -146 72 -237 95 -403 102 -130 6 -133 6 -128 27 11 37 74 388 87 479
l12 87 121 0 c256 0 469 -66 701 -218 50 -32 172 -123 272 -203 100 -79 220
-168 268 -198 90 -56 242 -114 327 -125 l48 -6 29 58 c72 144 321 742 321 772
0 6 -25 10 -57 10 -141 1 -313 38 -453 97 -127 54 -219 109 -495 292 -137 92
-300 193 -362 224 -193 99 -407 157 -575 157 l-68 0 0 258 c0 143 -3 301 -7
352 l-6 93 129 -6 c160 -7 264 -27 422 -79 151 -50 321 -135 507 -253 77 -49
196 -124 265 -168 324 -205 547 -281 811 -275 l124 3 32 115 c48 169 109 414
147 587 l33 152 -151 -6 c-273 -10 -491 31 -756 144 -123 53 -275 134 -530
286 -443 265 -695 361 -1007 387 -63 5 -118 11 -120 14 -3 2 -24 102 -48 223
-36 178 -105 474 -131 556 -5 15 4 17 105 17 209 0 454 -46 666 -125 147 -55
349 -156 620 -310 278 -159 396 -219 544 -280 265 -108 535 -151 791 -126 63
7 122 14 131 17 12 3 19 28 27 102 19 154 41 396 48 527 l7 120 -234 0 c-181
0 -259 4 -344 18 -329 55 -589 155 -1052 403 -423 227 -640 325 -846 383 -194
54 -282 66 -517 66 l-215 0 -54 130 c-69 166 -179 398 -281 594 -44 85 -79
155 -77 157 2 2 59 11 127 20 150 20 427 22 560 5 359 -47 616 -139 1150 -413
151 -78 322 -165 380 -194 292 -144 549 -230 810 -270 124 -19 459 -23 555 -7
l50 8 -3 100 c-34 1162 -299 2418 -746 3542 -1213 3051 -3798 5397 -6952 6307
-689 199 -1465 338 -2154 386 -85 6 -175 13 -200 15 -87 10 -977 13 -1135 4z
m810 -1289 c153 -357 281 -650 284 -650 45 -1 1394 -100 1397 -103 2 -2 -232
-212 -520 -467 -464 -409 -524 -465 -516 -484 4 -11 110 -289 235 -616 125
-327 229 -597 231 -599 2 -2 43 34 91 79 540 506 1228 829 2058 964 83 13 180
27 218 31 l67 7 -104 -163 c-266 -420 -502 -879 -679 -1324 -87 -217 -118
-307 -104 -299 6 5 39 29 72 55 214 167 519 339 791 447 314 126 716 221 1043
248 98 8 99 20 -9 -121 -392 -511 -733 -1060 -1002 -1612 -86 -177 -125 -247
-145 -260 -42 -27 -98 -21 -179 20 -129 65 -385 177 -577 253 -616 244 -1260
410 -1917 493 -380 49 -502 56 -1020 56 -518 0 -640 -7 -1020 -56 -837 -106
-1677 -353 -2420 -711 -160 -77 -209 -87 -256 -52 -31 23 -32 24 -144 259
-241 503 -568 1034 -960 1555 -64 85 -120 161 -125 169 -10 18 95 10 322 -25
563 -86 1103 -306 1531 -622 57 -42 113 -83 123 -91 17 -12 16 -3 -11 70 -194
528 -459 1064 -765 1546 -91 142 -101 163 -82 163 49 -1 311 -42 472 -75 739
-150 1390 -480 1872 -949 34 -33 64 -58 67 -55 2 2 106 272 231 599 125 327
231 605 235 616 8 19 -51 74 -516 484 -288 255 -522 465 -520 467 3 3 1353
102 1397 103 3 0 131 293 284 650 153 358 281 650 285 650 3 0 132 -292 285
-650z m-8534 -3928 c136 -88 359 -293 495 -459 209 -253 371 -539 486 -858 41
-113 111 -373 123 -457 4 -27 9 -48 12 -48 2 0 39 21 81 47 326 198 719 336
1127 395 139 20 582 17 720 -5 204 -32 440 -94 579 -152 l37 -16 -138 -101
c-693 -507 -1342 -1170 -1824 -1860 -51 -73 -93 -134 -94 -135 0 -1 -39 9 -85
23 -356 105 -718 113 -1090 24 -271 -65 -483 -147 -990 -380 -294 -135 -526
-230 -676 -275 -303 -92 -581 -108 -821 -48 l-63 15 48 53 c459 512 574 649
802 955 512 688 844 1350 1005 2003 81 331 108 562 109 955 l1 304 28 24 c37
32 73 30 128 -4z m16626 4 l28 -24 1 -299 c0 -164 6 -347 12 -408 99 -909 484
-1762 1227 -2719 172 -222 344 -424 669 -782 l56 -62 -63 -15 c-176 -44 -400
-47 -601 -7 -239 47 -447 125 -946 352 -711 325 -1033 418 -1448 418 -212 0
-401 -27 -587 -85 -44 -13 -82 -21 -85 -17 -3 4 -25 37 -49 72 -272 396 -564
744 -935 1116 -332 331 -628 586 -943 812 -67 48 -118 91 -114 95 15 15 268
95 383 121 233 52 306 60 588 60 277 1 346 -5 566 -49 302 -61 650 -197 918
-360 43 -26 79 -45 80 -43 1 1 13 52 25 112 115 559 395 1077 787 1456 55 53
135 125 179 160 158 126 199 141 252 96z m-8057 -612 c601 -71 1158 -373 1480
-802 117 -155 240 -409 240 -493 0 -42 -23 -47 -94 -20 -99 38 -210 69 -309
87 -129 24 -399 24 -532 0 -261 -47 -487 -157 -645 -315 -64 -64 -66 -69 -88
-156 -43 -179 -54 -269 -59 -466 -5 -197 2 -295 33 -449 24 -114 73 -260 91
-267 23 -9 98 32 126 69 14 18 51 85 82 148 117 236 142 246 399 159 139 -48
160 -52 268 -57 196 -8 322 22 450 108 l61 41 51 -15 c102 -30 171 -119 201
-261 19 -90 19 -335 1 -475 -84 -631 -437 -1322 -918 -1800 -178 -177 -348
-302 -548 -404 -467 -239 -944 -201 -1412 111 -250 167 -510 429 -714 720
-304 433 -512 953 -564 1411 -18 156 -8 420 18 502 44 135 106 185 227 184 62
0 82 -5 172 -47 136 -62 196 -77 318 -77 116 0 190 14 347 66 124 40 221 52
283 35 23 -6 70 -29 105 -51 89 -56 188 -103 203 -97 17 6 42 90 63 207 12 65
17 149 17 265 0 181 -9 270 -45 430 l-22 100 -66 66 c-243 242 -640 367 -1051
330 -145 -13 -291 -46 -404 -91 -94 -37 -119 -36 -123 4 -9 74 116 336 238
498 94 125 273 299 398 388 488 345 1086 489 1722 414z m-1641 -1593 c290 -73
530 -258 531 -408 l0 -32 -57 20 c-188 65 -380 99 -556 99 -199 0 -345 -39
-448 -121 l-39 -30 -35 38 c-44 48 -82 124 -90 184 -18 129 70 224 246 264 94
21 337 14 448 -14z m3142 0 c79 -25 138 -66 170 -118 19 -30 24 -51 23 -103
-1 -80 -26 -141 -84 -204 l-42 -46 -41 35 c-96 83 -222 118 -412 118 -140 -1
-301 -28 -460 -77 -88 -28 -90 -27 -100 36 -12 68 3 114 48 158 115 109 236
167 435 211 122 26 367 21 463 -10z"/>
<path d="M18641 17347 c-305 -232 -559 -430 -565 -439 -8 -14 -7 -22 7 -35 16
-16 25 -16 174 5 329 46 666 72 943 72 277 0 614 -26 943 -72 145 -20 158 -21
173 -6 9 9 14 23 11 31 -5 13 -1107 859 -1125 864 -4 1 -256 -188 -561 -420z"/>
<path d="M18835 12255 c-72 -25 -140 -67 -159 -97 -7 -12 -6 -26 6 -51 13 -28
25 -36 64 -46 26 -7 105 -34 174 -61 121 -47 247 -74 304 -65 11 2 45 6 75 10
30 3 111 28 181 55 69 27 147 54 173 61 47 11 77 44 77 83 0 23 -68 73 -139
102 -96 38 -154 41 -242 13 -98 -31 -200 -31 -293 -1 -87 28 -134 28 -221 -3z"/>
<path d="M18386 11549 c-14 -11 -26 -26 -26 -33 0 -7 33 -46 73 -87 39 -41
121 -127 180 -192 60 -64 137 -137 172 -162 251 -179 580 -180 828 -1 61 43
125 107 325 324 102 110 104 113 88 137 -23 35 -46 38 -149 21 -392 -66 -980
-66 -1347 -1 -109 19 -112 19 -144 -6z"/>
</g>
</svg>
