<?xml version="1.0" standalone="no"?>
<!DOCTYPE svg PUBLIC "-//W3C//DTD SVG 20010904//EN"
 "http://www.w3.org/TR/2001/REC-SVG-20010904/DTD/svg10.dtd">
<svg version="1.0" xmlns="http://www.w3.org/2000/svg"
 width="4266.000000pt" height="3200.000000pt" viewBox="0 0 4266.000000 3200.000000"
 preserveAspectRatio="xMidYMid meet">
<metadata>
Created by potrace 1.16, written by Peter Selinger 2001-2019
</metadata>
<g transform="translate(0.000000,3200.000000) scale(0.100000,-0.100000)"
fill="#000000" stroke="none">
<path d="M5122 31898 c-77 -369 -90 -718 -43 -1148 11 -102 27 -311 36 -465 8
-154 20 -347 26 -430 5 -82 14 -392 19 -688 5 -296 14 -615 20 -710 18 -293
74 -896 140 -1507 98 -913 125 -1262 140 -1791 5 -200 17 -542 26 -759 18
-423 15 -675 -10 -1075 -8 -126 -20 -336 -26 -465 -21 -457 -31 -638 -55 -955
-28 -368 -38 -576 -61 -1190 -18 -473 -15 -1230 5 -1520 6 -82 22 -352 36
-600 14 -247 55 -859 90 -1360 94 -1317 94 -1309 105 -2025 13 -860 27 -1407
45 -1719 8 -140 19 -416 25 -615 17 -579 28 -754 90 -1411 48 -500 80 -1072
80 -1415 0 -107 3 -205 6 -217 8 -27 27 -35 49 -19 16 11 16 37 6 367 -16 500
-35 802 -86 1364 -57 629 -62 707 -80 1265 -8 256 -22 587 -30 735 -21 385
-35 895 -35 1290 0 744 -12 989 -115 2435 -35 498 -76 1112 -90 1365 -14 253
-30 528 -36 610 -17 263 -22 912 -10 1255 29 806 41 1066 71 1440 20 251 29
409 55 965 9 176 20 379 25 450 21 276 23 691 6 1115 -9 228 -21 570 -26 759
-15 491 -38 771 -140 1741 -109 1036 -136 1413 -150 2145 -9 449 -24 804 -55
1325 -4 52 -18 201 -31 330 -45 418 -34 738 40 1113 l23 117 -32 0 -32 0 -21
-102z"/>
<path d="M5953 31866 c7 -139 28 -312 53 -431 16 -77 33 -389 34 -615 0 -80 7
-217 15 -305 8 -88 24 -362 35 -610 18 -417 36 -700 59 -935 36 -362 38 -907
7 -1460 -32 -558 -38 -834 -33 -1545 6 -858 23 -2045 37 -2590 38 -1499 37
-1302 30 -4690 l-4 -2090 27 -450 c14 -247 31 -542 37 -655 13 -250 121 -1778
155 -2200 14 -168 34 -431 45 -585 27 -375 42 -506 100 -865 27 -168 56 -359
65 -425 20 -158 61 -623 75 -850 13 -202 19 -228 53 -223 21 3 22 6 20 118 -3
137 -45 654 -74 900 -11 96 -36 267 -54 380 -76 457 -86 546 -115 950 -12 157
-32 416 -45 575 -13 160 -31 396 -40 525 -9 129 -31 444 -50 700 -66 905 -123
1934 -133 2410 -4 179 -3 613 2 965 7 458 6 802 -2 1210 -8 402 -9 722 -2
1085 12 673 12 1464 0 1992 -47 2053 -65 3219 -64 4113 1 605 4 751 28 1184
38 712 36 1120 -9 1601 -21 230 -43 587 -55 920 -6 162 -18 367 -26 455 -8 88
-19 318 -24 510 -6 232 -14 387 -25 460 -9 60 -18 112 -20 116 -8 12 -34 245
-41 367 l-7 122 -30 0 -30 0 6 -134z"/>
<path d="M10046 31948 c-17 -154 -29 -741 -36 -1748 -5 -619 -14 -1186 -19
-1260 -38 -489 -33 -754 34 -1960 27 -482 49 -974 65 -1440 6 -162 17 -439 25
-615 8 -176 19 -424 25 -551 15 -320 15 -1076 2 -1589 -7 -236 -12 -1000 -12
-1696 l0 -1266 29 5 28 4 6 1466 c3 816 11 1649 18 1877 12 413 3 1067 -21
1495 -11 195 -26 557 -40 945 -16 446 -38 936 -65 1410 -13 242 -27 503 -30
580 -3 77 -8 172 -11 210 -5 57 -4 68 7 58 21 -21 29 -15 29 23 0 27 -5 37
-19 41 -14 3 -20 17 -25 56 -12 104 -6 567 13 915 16 284 21 560 25 1347 6
910 15 1415 32 1653 l6 92 -30 0 c-29 0 -31 -2 -36 -52z"/>
<path d="M13466 31928 c-3 -40 -13 -345 -21 -678 -9 -333 -20 -747 -26 -920
-5 -173 -9 -423 -9 -555 -1 -367 -15 -787 -67 -1925 -20 -449 -25 -1954 -8
-2588 11 -396 12 -405 58 -380 18 9 18 21 13 246 -4 130 -11 350 -18 487 -15
337 -5 1760 16 2190 8 176 20 442 26 590 6 149 15 362 20 475 5 113 12 340 16
505 l6 300 327 -325 c373 -371 1070 -1046 1211 -1172 52 -46 214 -185 360
-308 146 -123 369 -314 495 -425 341 -300 615 -529 866 -726 123 -97 317 -259
429 -360 261 -233 289 -257 495 -419 94 -73 239 -192 323 -264 85 -72 189
-160 231 -196 43 -36 144 -126 225 -200 l148 -135 -34 -6 c-44 -7 -58 -16 -58
-39 0 -25 14 -28 92 -22 62 4 69 3 87 -19 16 -20 23 -22 38 -13 10 6 18 20 18
30 0 14 8 20 30 22 17 2 100 14 185 28 218 35 399 40 745 19 340 -21 712 -16
840 10 42 9 80 14 83 11 2 -3 9 -51 15 -107 9 -91 8 -103 -6 -111 -21 -11 -22
-44 -2 -52 20 -7 19 -55 -7 -321 -34 -352 -23 -958 27 -1510 19 -207 19 -643
0 -956 -10 -175 -16 -525 -19 -1239 -4 -1004 -6 -1047 -46 -1420 -12 -102 -27
-302 -35 -445 -9 -143 -20 -305 -26 -360 -10 -92 -27 -642 -29 -882 l0 -103
-30 0 c-16 0 -29 3 -29 8 8 49 27 45 -736 152 -353 50 -493 66 -502 58 -20
-16 -15 -37 10 -47 12 -5 245 -40 517 -78 272 -37 487 -69 477 -71 -9 -2 -151
8 -315 22 -486 43 -705 56 -719 44 -20 -16 -15 -37 10 -47 12 -5 108 -14 212
-21 105 -6 312 -22 460 -35 149 -13 354 -29 456 -36 l186 -12 7 -101 c15 -252
25 -576 25 -870 1 -339 14 -737 32 -926 25 -282 49 -807 49 -1120 1 -326 4
-387 31 -728 10 -130 16 -165 29 -172 9 -5 22 -5 30 0 16 10 15 58 -5 285 -8
88 -17 347 -20 575 -6 374 -38 1111 -50 1131 -11 17 -27 492 -34 1054 -8 558
-19 773 -41 835 -6 16 -5 50 1 90 6 36 14 243 19 460 4 217 15 472 23 565 9
94 21 262 27 375 6 113 17 264 26 335 45 392 46 414 54 1555 5 696 13 1149 20
1225 18 190 16 719 -3 925 -50 522 -61 1107 -27 1465 11 116 20 236 20 269 0
56 1 58 23 52 72 -20 67 -22 49 18 -9 21 -27 39 -42 45 -26 9 -27 12 -33 107
-13 183 -33 212 -131 181 -95 -30 -398 -42 -684 -27 -136 7 -350 15 -477 17
-199 4 -249 2 -370 -17 -255 -38 -348 -49 -361 -42 -6 4 -99 86 -206 184 -106
97 -241 216 -299 265 -58 48 -157 131 -220 184 -63 52 -197 161 -299 241 -102
81 -286 237 -410 348 -124 111 -297 259 -385 328 -341 268 -559 450 -960 802
-110 96 -303 263 -430 369 -126 107 -297 254 -380 326 -165 146 -1173 1122
-1437 1394 l-168 171 0 58 c0 31 5 215 10 407 5 193 16 602 24 910 9 308 18
626 22 708 l6 147 -30 0 -30 0 -6 -72z"/>
<path d="M27400 31980 c38 -72 157 -144 236 -143 59 0 141 39 180 86 49 58 5
91 -50 38 -84 -81 -182 -79 -275 8 -24 22 -43 31 -67 31 -31 0 -34 -2 -24 -20z"/>
<path d="M9062 31977 c-15 -18 9 -586 49 -1137 31 -441 38 -794 41 -2205 3
-1273 2 -1346 -20 -1705 -12 -206 -26 -487 -32 -625 -19 -473 -8 -1519 20
-1990 21 -348 40 -691 50 -910 18 -387 45 -740 96 -1250 30 -306 42 -396 104
-790 69 -441 103 -720 136 -1120 19 -227 15 -545 -11 -965 -10 -168 -15 -427
-15 -826 0 -578 0 -584 -35 -995 -40 -473 -45 -527 -85 -849 -16 -129 -43
-354 -60 -500 -17 -146 -53 -429 -80 -630 -89 -661 -95 -767 -95 -1650 1 -845
16 -1138 96 -1835 57 -501 98 -912 114 -1160 9 -137 18 -265 21 -283 6 -37 29
-52 50 -31 12 12 11 46 -1 239 -26 396 -45 605 -96 1055 -99 878 -109 1040
-116 1874 -7 878 6 1145 91 1761 25 179 59 444 76 590 17 146 46 389 65 540
39 314 53 453 95 952 29 345 30 377 30 946 0 442 4 655 17 848 19 305 22 783
5 974 -28 302 -79 693 -147 1115 -93 575 -161 1308 -200 2140 -8 182 -22 431
-30 555 -25 379 -34 671 -41 1260 -7 601 0 851 39 1510 21 362 22 426 19 1830
-3 1468 -7 1670 -42 2170 -22 305 -50 859 -50 988 0 46 -5 92 -10 103 -12 22
-33 25 -48 6z"/>
<path d="M17221 31926 c-61 -62 -133 -100 -177 -93 -19 3 -106 31 -194 63 -88
32 -166 54 -175 50 -10 -3 -15 -15 -13 -28 3 -19 27 -31 163 -81 192 -70 254
-79 319 -48 64 32 181 142 173 164 -11 30 -51 19 -96 -27z"/>
<path d="M973 31938 c-6 -8 -13 -150 -17 -338 -13 -667 -36 -1511 -46 -1675
-18 -295 -50 -707 -85 -1115 -52 -602 -116 -1699 -145 -2510 -6 -157 -15 -402
-20 -545 -51 -1340 -32 -2571 51 -3300 28 -244 29 -250 59 -250 23 0 25 3 24
50 -1 28 -11 131 -23 230 -30 259 -59 761 -70 1200 -10 406 0 1509 18 1960 6
143 15 397 21 565 6 168 15 388 20 490 5 102 19 372 30 600 29 588 57 1031 86
1355 71 802 101 1265 114 1756 6 211 15 542 20 734 6 193 10 450 10 571 0 193
-2 223 -16 228 -21 8 -20 8 -31 -6z"/>
<path d="M8175 31894 c-18 -18 -18 -23 -5 -1019 12 -911 10 -880 120 -2115 78
-868 102 -1089 160 -1435 58 -345 67 -412 95 -748 29 -348 52 -559 100 -917
19 -140 52 -410 75 -600 22 -190 52 -427 66 -527 45 -334 54 -446 64 -748 17
-532 31 -815 50 -1065 46 -586 49 -985 15 -2300 -47 -1787 -57 -2048 -115
-2855 -67 -934 -65 -887 -64 -2035 1 -1031 6 -1303 39 -1865 8 -137 19 -403
25 -590 6 -187 17 -493 25 -680 28 -661 50 -1343 61 -1884 l6 -334 -59 6
c-130 14 -537 18 -704 8 -199 -12 -340 -36 -476 -82 -82 -27 -93 -33 -93 -54
0 -13 6 -25 12 -27 7 -3 53 8 103 24 49 15 137 37 195 48 141 28 495 42 746
30 104 -5 245 -9 314 -10 139 0 418 -23 746 -60 53 -6 112 -7 140 -3 43 8 49
11 49 33 0 24 -2 25 -80 27 -44 1 -143 9 -220 18 -227 24 -475 45 -546 45
l-66 0 -7 393 c-8 443 -29 1125 -51 1637 -8 190 -22 548 -30 795 -8 248 -20
530 -26 628 -5 98 -14 251 -19 340 -5 89 -15 567 -21 1062 -17 1222 -8 1541
70 2635 33 458 47 699 56 955 3 94 10 296 15 450 12 332 35 1211 51 1910 15
686 8 1328 -19 1645 -30 357 -41 558 -52 995 -11 408 -19 524 -69 895 -17 124
-49 380 -71 570 -23 190 -56 460 -75 600 -45 337 -70 572 -95 875 -25 308 -39
416 -96 760 -60 366 -93 661 -169 1525 -105 1207 -104 1185 -111 2200 -3 443
-7 815 -9 826 -6 28 -31 37 -50 18z"/>
<path d="M4474 31845 c-4 -9 -3 -34 0 -57 15 -95 45 -339 50 -418 16 -223 36
-569 47 -805 13 -296 7 -940 -30 -3030 -13 -712 -13 -2565 -1 -2970 5 -176 14
-599 20 -940 6 -341 15 -701 20 -800 15 -290 29 -689 41 -1165 19 -732 25
-985 22 -991 -1 -4 -47 4 -100 17 -54 13 -186 40 -293 60 -389 71 -467 90
-770 189 -295 96 -304 99 -765 216 -236 60 -515 132 -620 159 -104 28 -383 93
-620 145 -236 53 -495 111 -575 130 -324 76 -866 206 -883 211 -14 4 -17 -1
-17 -28 l0 -34 78 -18 c42 -10 255 -61 472 -113 217 -52 557 -130 755 -173
487 -107 635 -141 870 -205 110 -29 373 -97 585 -150 221 -56 487 -130 625
-175 373 -122 440 -139 845 -214 135 -25 283 -56 330 -68 l85 -23 6 -980 c6
-991 14 -1270 50 -1805 13 -200 22 -505 29 -945 6 -357 15 -801 21 -985 19
-546 25 -4221 8 -4675 -8 -203 -14 -608 -14 -900 l0 -530 21 -3 c13 -2 25 4
29 15 5 10 12 293 16 628 4 336 12 734 19 885 15 326 6 4026 -10 4480 -6 151
-15 604 -20 1005 -6 402 -12 750 -15 775 -3 25 -9 119 -15 210 -36 544 -41
744 -50 1750 -8 921 -8 1056 5 1070 18 20 19 25 2 42 -12 12 -24 341 -53 1488
-3 124 -12 351 -20 505 -7 154 -18 494 -24 755 -5 261 -15 693 -20 960 -13
609 -13 2985 0 3420 6 179 14 615 20 970 5 355 12 836 16 1070 10 637 -27
1413 -87 1845 -27 197 -31 209 -57 213 -13 2 -25 -3 -28 -13z"/>
<path d="M11061 31751 c-16 -10 -37 -406 -22 -425 4 -6 11 -166 15 -356 3
-190 13 -462 21 -605 22 -396 38 -1179 32 -1570 -6 -340 -11 -423 -61 -1060
-21 -259 -22 -302 -10 -319 20 -29 17 -93 -5 -125 -15 -20 -22 -57 -30 -161
-7 -74 -25 -283 -41 -465 -16 -181 -36 -431 -45 -555 -8 -124 -24 -342 -35
-485 -58 -769 -70 -1152 -70 -2345 0 -885 10 -1168 59 -1700 17 -179 39 -462
51 -630 11 -168 32 -431 45 -585 42 -471 56 -700 45 -703 -16 -6 -12 -59 6
-66 12 -5 15 -22 14 -83 -1 -43 1 -114 4 -158 4 -44 11 -161 16 -260 13 -219
14 -227 49 -223 22 3 26 8 24 33 -21 408 -26 515 -22 519 2 2 90 -5 194 -15
431 -43 668 -72 805 -96 217 -38 209 -37 216 -18 4 9 0 23 -8 31 -18 19 -158
47 -358 73 -138 19 -816 91 -847 91 -9 0 -13 17 -13 50 l0 51 33 -6 c17 -3
106 -14 197 -25 228 -29 326 -44 625 -96 287 -50 344 -65 381 -99 14 -13 29
-25 34 -27 8 -3 34 -486 50 -958 22 -625 11 -1875 -26 -3045 -9 -269 -20 -958
-25 -1530 -5 -572 -14 -1121 -19 -1220 -5 -99 -13 -270 -19 -380 -6 -110 -14
-560 -17 -1000 -4 -495 -10 -805 -16 -812 -16 -20 -1 -43 26 -43 52 0 50 -22
57 970 4 509 9 939 13 955 3 17 15 239 26 495 16 369 20 634 20 1290 1 454 5
924 10 1045 5 121 14 438 20 705 6 267 14 622 18 790 11 437 -2 1839 -22 2215
-8 171 -22 470 -31 665 -23 517 -32 682 -65 1105 -25 320 -45 622 -85 1275 -3
52 -15 307 -27 565 -19 433 -21 687 -29 3190 -4 1496 -12 2869 -17 3050 -20
701 31 1900 104 2490 19 154 44 340 55 414 11 73 18 139 15 147 -6 15 -42 19
-50 6 -9 -14 -43 -247 -80 -547 -58 -463 -107 -1370 -109 -2015 -2 -1114 23
-6022 32 -6265 43 -1086 63 -1437 126 -2275 35 -462 50 -706 60 -995 3 -88 8
-170 11 -183 l5 -23 -38 20 c-21 10 -57 24 -81 30 -43 12 -327 63 -561 101
-115 19 -571 80 -597 80 -7 0 -15 60 -23 178 -7 97 -25 328 -41 512 -16 184
-39 472 -50 640 -12 168 -32 427 -45 575 -46 511 -47 541 -52 1665 -6 1320 1
1550 67 2430 11 146 29 387 39 535 11 149 36 452 55 675 20 223 55 648 78 945
l43 540 -1 845 c0 688 -4 898 -18 1130 -11 183 -20 485 -23 845 -3 310 -9 568
-15 578 -10 19 -25 21 -47 8z"/>
<path d="M7352 31653 c-6 -9 -8 -71 -6 -137 2 -67 11 -355 20 -641 10 -336 26
-656 44 -905 32 -410 51 -699 75 -1135 32 -561 65 -953 120 -1400 156 -1278
208 -2048 225 -3335 11 -883 17 -1135 35 -1510 38 -768 46 -3724 11 -4280 -29
-472 -38 -989 -33 -1826 6 -882 21 -1797 37 -2159 5 -126 12 -583 15 -1015 5
-685 26 -1457 41 -1499 2 -7 9 -223 14 -480 11 -502 20 -648 52 -811 21 -111
29 -130 58 -130 28 0 29 20 9 106 -33 140 -39 231 -49 669 -6 237 -14 500 -20
585 -26 417 -39 892 -44 1625 -3 440 -10 906 -15 1035 -37 849 -47 3067 -17
3645 37 710 38 798 33 2420 -3 923 -10 1702 -17 1840 -6 132 -15 326 -20 430
-6 105 -14 557 -20 1005 -10 841 -17 1077 -51 1700 -39 729 -71 1078 -184
2005 -59 491 -79 722 -125 1505 -32 548 -51 827 -75 1110 -16 183 -39 769 -51
1270 -4 162 -11 303 -16 313 -11 22 -34 22 -46 0z"/>
<path d="M39104 31456 c-3 -7 0 -398 7 -867 7 -470 13 -912 13 -982 1 -108 4
-130 17 -138 35 -19 44 15 43 170 -4 555 -24 1812 -29 1821 -9 15 -45 12 -51
-4z"/>
<path d="M39566 31441 c-4 -6 -1 -70 6 -143 10 -101 13 -464 13 -1503 0 -1217
-2 -1395 -18 -1595 -9 -124 -29 -398 -42 -610 -24 -364 -44 -604 -65 -785 -9
-78 -51 -582 -70 -836 l-9 -126 -41 -41 c-43 -42 -46 -58 -17 -76 12 -8 21 -5
37 9 l21 19 -3 -49 c-3 -46 -1 -50 21 -53 14 -2 30 2 35 10 6 7 61 49 121 93
227 164 437 329 547 428 147 132 166 147 335 255 150 95 232 158 373 287 117
107 331 278 338 270 6 -6 23 -286 42 -690 15 -319 8 -2299 -8 -2490 -6 -71
-16 -251 -22 -400 -22 -589 -39 -817 -63 -855 -9 -16 -9 -23 5 -36 18 -19 53
-6 62 23 19 62 43 410 61 908 3 88 14 279 23 425 14 224 17 422 16 1290 -1
605 -6 1097 -13 1200 -20 329 -51 925 -66 1290 -8 201 -20 469 -25 595 -32
756 -40 1165 -40 2126 0 860 -2 1008 -14 1025 -12 15 -19 17 -32 8 -16 -10
-17 -75 -15 -1065 2 -991 10 -1444 41 -2149 5 -124 14 -344 20 -490 6 -146 15
-344 20 -439 7 -129 6 -179 -2 -189 -7 -7 -75 -65 -152 -127 -78 -62 -186
-155 -241 -205 -126 -114 -209 -178 -355 -269 -147 -92 -188 -124 -335 -256
-66 -60 -230 -191 -365 -292 -237 -178 -245 -183 -248 -156 -3 24 11 42 100
128 150 146 287 266 376 328 43 30 111 83 150 117 39 33 124 93 189 132 65 38
145 91 178 117 33 26 154 109 268 185 153 100 240 166 323 243 63 57 114 111
114 119 0 7 -9 18 -20 24 -17 9 -33 -2 -124 -88 -74 -69 -157 -133 -286 -217
-99 -66 -228 -155 -286 -197 -58 -43 -153 -106 -211 -140 -58 -35 -138 -91
-178 -125 -40 -33 -110 -88 -157 -122 -89 -62 -125 -94 -315 -270 l-113 -103
0 38 c0 22 5 80 10 129 5 50 18 209 30 355 11 146 32 371 45 500 14 129 36
413 50 630 14 217 33 481 42 585 13 158 17 405 20 1470 4 1219 -3 1715 -25
1800 -8 30 -44 47 -56 26z"/>
<path d="M38143 31218 c-7 -9 -8 -136 -3 -363 4 -192 4 -431 -1 -530 -9 -203
-10 -528 0 -685 6 -104 6 -105 31 -105 l25 0 -3 195 c-2 107 2 348 9 535 15
419 4 940 -21 955 -20 13 -26 12 -37 -2z"/>
<path d="M6582 30848 c-18 -18 -15 -29 23 -110 46 -96 61 -173 80 -403 9 -104
22 -262 31 -350 8 -88 19 -279 24 -425 5 -146 14 -353 20 -460 5 -107 15 -310
20 -450 16 -373 52 -633 140 -998 66 -277 68 -292 80 -632 23 -668 31 -833 45
-990 8 -91 19 -385 25 -655 5 -269 12 -517 15 -550 3 -33 10 -211 15 -395 6
-184 17 -475 26 -647 13 -252 13 -356 5 -550 -6 -131 -11 -472 -11 -758 -1
-286 -5 -668 -10 -850 -6 -181 -14 -631 -20 -1000 -10 -667 -17 -882 -45
-1340 -8 -132 -26 -488 -40 -792 -28 -611 -33 -1353 -15 -1963 5 -179 14 -561
20 -850 11 -568 21 -743 74 -1325 60 -650 85 -988 111 -1510 24 -476 48 -727
105 -1105 60 -396 105 -811 140 -1285 12 -154 23 -290 26 -303 5 -23 32 -30
50 -12 22 22 -56 890 -127 1410 -97 712 -106 802 -134 1345 -24 483 -55 902
-110 1485 -53 568 -63 763 -75 1415 -5 292 -14 703 -21 915 -21 733 -3 1534
61 2615 26 440 40 842 40 1180 0 149 7 513 15 810 8 297 15 772 15 1055 0 283
5 650 11 815 10 254 9 352 -4 640 -9 187 -19 423 -22 525 -3 102 -10 291 -16
420 -5 129 -14 438 -19 685 -6 248 -17 522 -25 610 -8 88 -19 302 -25 475 -18
548 -30 793 -41 860 -5 36 -32 157 -59 270 -90 373 -124 624 -140 1030 -5 146
-14 348 -20 450 -5 102 -12 273 -15 380 -4 107 -10 245 -16 306 -5 60 -20 243
-34 406 -29 350 -41 416 -98 528 -44 87 -54 99 -75 78z"/>
<path d="M10715 30020 c-4 -6 -11 -235 -16 -508 -4 -273 -13 -603 -18 -732 -6
-129 -14 -450 -17 -712 l-7 -478 35 0 35 0 6 520 c4 287 12 607 17 713 5 106
11 419 12 697 l3 505 -22 3 c-11 2 -24 -2 -28 -8z"/>
<path d="M37542 29488 c-91 -95 -335 -340 -542 -544 -334 -330 -373 -373 -361
-388 7 -9 19 -16 26 -16 17 0 673 642 878 860 96 102 186 192 201 199 36 20
32 55 -7 59 -26 3 -47 -16 -195 -170z"/>
<path d="M27566 29631 c-11 -16 -36 -152 -36 -190 0 -45 31 -96 79 -128 25
-17 48 -23 90 -23 78 0 137 31 174 91 40 66 44 106 15 149 -34 50 -69 63 -168
64 -80 1 -85 0 -88 -21 -4 -25 5 -28 111 -38 74 -7 97 -22 97 -62 0 -96 -136
-159 -209 -98 -42 36 -46 56 -25 157 16 78 16 91 4 98 -19 12 -37 12 -44 1z"/>
<path d="M18540 29574 c-20 -23 3 -39 95 -64 133 -35 185 -83 150 -136 -35
-53 -81 -43 -152 33 -35 37 -57 54 -67 50 -26 -10 -18 -47 20 -94 43 -53 99
-83 154 -83 90 0 149 110 101 187 -26 42 -95 81 -184 104 -88 23 -101 23 -117
3z"/>
<path d="M38074 29416 c-3 -7 4 -162 15 -342 58 -928 65 -1144 61 -1849 -10
-1741 5 -5083 25 -5488 7 -151 26 -1490 34 -2402 l6 -680 25 0 c21 0 26 6 33
45 11 57 -2 1194 -33 2925 -28 1550 -40 3704 -29 5540 3 657 1 834 -14 1125
-26 513 -65 1119 -72 1130 -9 15 -45 12 -51 -4z"/>
<path d="M39174 29385 c-4 -8 -1 -97 5 -198 31 -480 42 -757 63 -1503 11 -433
7 -862 -11 -1179 -6 -93 -15 -276 -21 -405 -6 -129 -15 -291 -20 -360 -43
-561 -60 -859 -65 -1140 -5 -293 -12 -463 -45 -1135 -13 -252 -13 -1781 0
-1975 5 -80 15 -235 22 -345 16 -240 15 -857 -1 -1044 -13 -162 -14 -1062 -1
-1241 5 -69 16 -235 25 -370 18 -283 19 -290 43 -290 41 0 41 1 12 405 -6 88
-15 219 -20 290 -13 187 -12 1006 1 1166 16 182 17 892 2 1114 -32 464 -34
579 -30 1395 4 785 13 1131 37 1450 6 74 13 297 16 495 4 241 15 497 35 775
47 672 48 694 59 940 5 129 15 336 21 460 21 409 -12 1914 -51 2365 -6 61 -10
142 -10 181 0 39 -3 92 -6 118 -6 40 -10 46 -31 46 -13 0 -26 -7 -29 -15z"/>
<path d="M36240 28509 c-58 -4 -179 -10 -270 -13 -148 -6 -411 -26 -575 -44
-56 -7 -60 -9 -60 -32 l0 -25 100 3 c55 1 136 7 180 13 100 13 435 28 792 36
l272 5 5 -33 c13 -77 36 -402 47 -669 15 -375 -2 -2011 -30 -2795 -14 -378
-17 -2028 -5 -2950 9 -684 11 -753 27 -782 18 -35 52 -49 90 -39 13 3 93 71
178 152 85 81 214 196 288 257 140 116 215 160 599 354 129 66 152 81 152 101
0 12 -7 25 -15 28 -13 5 -149 -62 -496 -245 -112 -59 -165 -95 -290 -200 -85
-70 -216 -187 -293 -259 -76 -73 -142 -132 -147 -132 -5 0 -11 10 -13 23 -17
78 -31 3088 -17 3547 26 828 31 1111 37 1960 7 903 3 1085 -32 1475 -8 94 -15
187 -16 208 0 24 -6 41 -17 46 -23 12 -367 19 -491 10z"/>
<path d="M35314 28318 c-40 -43 -185 -220 -312 -382 -78 -98 -102 -135 -100
-155 1 -15 -1 -31 -4 -36 -3 -6 -2 -59 3 -120 4 -60 13 -271 19 -467 6 -196
15 -414 21 -485 5 -70 14 -501 19 -958 14 -1203 20 -1456 37 -1462 7 -3 20 1
29 8 15 12 16 52 10 384 -3 203 -10 726 -15 1160 -6 435 -14 847 -20 916 -6
70 -13 227 -16 350 -8 316 -26 661 -35 678 -8 16 39 78 288 380 99 121 142
181 140 195 -5 32 -31 30 -64 -6z"/>
<path d="M35403 28322 c-27 -17 -36 -395 -40 -1832 -3 -1043 -1 -1503 8 -1685
6 -137 15 -320 18 -405 l6 -155 25 0 25 0 0 165 c0 91 -6 289 -13 440 -18 365
-12 2874 8 3229 11 198 11 234 -1 242 -17 11 -21 11 -36 1z"/>
<path d="M14642 28098 c-9 -9 -12 -89 -12 -297 0 -289 -22 -1047 -40 -1396 -5
-104 -10 -252 -10 -327 0 -76 -3 -138 -6 -138 -16 0 -418 305 -699 530 -93 75
-176 140 -183 144 -15 9 -42 -10 -42 -29 0 -21 651 -536 852 -674 47 -33 67
-53 70 -71 4 -31 54 -62 67 -41 7 11 37 -5 135 -73 69 -48 126 -93 126 -101 0
-16 48 -44 65 -39 6 2 93 -58 195 -132 102 -75 312 -228 467 -341 156 -113
400 -300 544 -414 144 -114 328 -256 409 -314 82 -58 150 -112 153 -119 3 -7
22 -21 44 -31 21 -10 81 -48 133 -85 69 -49 100 -78 114 -106 17 -35 20 -37
25 -17 6 22 8 21 61 -19 178 -135 386 -303 457 -371 83 -80 115 -93 120 -52 3
23 -26 56 -122 141 -80 69 -313 254 -427 337 -42 31 -79 60 -81 64 -2 5 0 69
4 143 5 74 15 259 24 410 8 151 20 334 26 405 15 181 28 906 17 928 -10 20
-31 22 -45 5 -6 -8 -13 -159 -16 -373 -3 -198 -15 -493 -26 -655 -10 -162 -25
-398 -31 -525 -7 -126 -15 -244 -19 -261 l-6 -32 -90 65 -90 64 -5 969 c-5
910 -6 970 -23 987 -23 23 -53 6 -49 -28 2 -13 6 -439 9 -946 3 -619 2 -923
-5 -923 -17 0 -306 214 -512 379 -107 86 -231 184 -275 218 -87 66 -644 472
-845 616 -69 49 -128 92 -132 96 -4 4 -3 108 3 231 5 124 14 538 18 920 8 590
7 697 -5 710 -12 12 -16 12 -31 -2 -14 -15 -17 -53 -20 -290 -7 -526 -25
-1354 -32 -1436 l-6 -83 -127 87 -128 87 0 111 c0 61 5 201 10 312 22 458 40
1082 40 1420 0 321 -2 363 -16 368 -20 8 -18 8 -32 -6z"/>
<path d="M10574 27178 c-12 -17 1 -1410 15 -1708 6 -130 11 -772 11 -1515 0
-720 5 -1376 11 -1485 6 -107 14 -665 20 -1240 11 -1231 9 -1204 57 -1198 26
3 27 5 25 63 -1 33 -7 528 -12 1100 -6 572 -15 1123 -20 1225 -6 104 -11 753
-12 1480 0 712 -5 1387 -9 1500 -5 113 -13 556 -19 985 -6 429 -13 786 -16
793 -2 6 -13 12 -23 12 -11 0 -23 -6 -28 -12z"/>
<path d="M27692 27125 c-40 -17 -52 -43 -28 -61 14 -10 24 -10 51 2 58 24 149
14 131 -14 -9 -14 -94 -42 -128 -42 -40 0 -68 -17 -68 -41 0 -28 21 -33 97
-19 112 19 162 56 163 118 0 26 -6 36 -32 52 -40 24 -136 27 -186 5z"/>
<path d="M20318 27106 c-75 -27 -108 -63 -77 -81 5 -4 14 -17 18 -29 9 -22
105 -59 186 -71 77 -11 129 48 98 112 -31 65 -144 100 -225 69z"/>
<path d="M27693 25865 c-9 -24 24 -99 73 -166 76 -102 178 -127 246 -59 71 71
0 196 -124 221 -105 22 -105 22 -112 3 -10 -27 23 -54 81 -63 121 -19 173
-131 60 -131 -34 0 -46 6 -80 42 -22 23 -53 70 -69 105 -21 47 -33 63 -48 63
-12 0 -23 -7 -27 -15z"/>
<path d="M21338 25817 c-49 -16 -128 -73 -128 -92 0 -23 106 -151 146 -175 66
-41 136 -19 161 51 47 134 -54 256 -179 216z m102 -77 c28 -28 34 -65 18 -108
-22 -59 -50 -55 -114 15 -30 32 -54 63 -54 69 0 17 60 44 98 44 19 0 40 -8 52
-20z"/>
<path d="M39502 25707 c-20 -25 -34 -1214 -30 -2647 l3 -1415 25 0 25 0 6
1680 c3 924 10 1836 14 2026 8 343 8 347 -12 358 -16 8 -23 7 -31 -2z"/>
<path d="M34864 25618 c-32 -36 -156 -216 -200 -289 l-38 -66 -196 -6 c-107
-3 -244 -13 -305 -22 -60 -8 -222 -24 -359 -35 -238 -18 -265 -24 -266 -51 0
-4 7 -12 15 -19 11 -9 67 -8 268 9 140 12 303 28 363 36 60 8 185 17 277 21
l168 7 -12 -26 c-15 -32 -6 -57 21 -57 13 0 26 12 37 35 10 20 25 35 37 37 17
2 21 11 22 39 1 38 48 117 168 284 56 78 67 117 36 123 -9 1 -25 -8 -36 -20z"/>
<path d="M17966 25558 c-2 -7 -9 -85 -16 -173 -6 -88 -22 -257 -35 -375 -40
-363 -54 -501 -85 -880 -17 -201 -46 -520 -65 -710 -18 -190 -37 -392 -41
-450 l-6 -106 -337 167 c-184 93 -337 173 -339 178 -2 6 -9 11 -16 11 -20 0
-238 133 -275 168 -18 18 -37 29 -42 26 -17 -10 -440 268 -778 510 -214 154
-452 312 -706 471 -277 173 -285 178 -285 191 0 16 -48 46 -60 39 -10 -6 -242
148 -290 192 -14 13 -30 23 -37 23 -7 0 -95 55 -195 122 -101 66 -220 139
-266 160 -50 24 -91 51 -104 68 -30 41 -372 262 -392 254 -9 -3 -16 -16 -16
-28 0 -16 45 -50 208 -156 114 -74 332 -217 484 -317 l278 -183 -5 -57 c-19
-213 -28 -640 -35 -1648 -5 -632 -13 -1301 -20 -1485 -8 -229 -10 -624 -5
-1250 6 -933 14 -1285 28 -1307 12 -19 45 -16 51 5 3 9 1 130 -5 267 -17 389
-22 1604 -9 2100 6 242 15 955 20 1585 7 1011 18 1526 36 1697 l5 52 134 -89
133 -89 -5 -208 c-2 -114 -9 -305 -14 -423 -28 -663 -35 -3410 -10 -3745 27
-353 31 -442 37 -770 5 -312 22 -556 39 -573 3 -4 15 -1 26 6 23 15 192 -21
529 -113 402 -109 638 -167 883 -215 136 -28 252 -50 257 -50 6 0 10 13 10 29
0 35 8 32 -175 66 -226 42 -475 101 -772 181 -336 90 -520 137 -633 159 -47
10 -86 18 -88 20 -1 1 -7 204 -12 451 -6 251 -18 526 -27 624 -14 150 -17 393
-20 1725 -3 1046 -1 1641 7 1830 6 154 15 429 20 610 5 182 9 335 10 342 0 23
607 -364 910 -582 581 -417 988 -669 1475 -915 171 -86 326 -166 344 -178 l35
-21 2 -433 c1 -306 7 -534 22 -778 12 -190 28 -484 37 -655 8 -170 17 -332 20
-360 10 -95 54 -741 65 -945 16 -320 39 -622 66 -905 32 -327 54 -610 54 -697
l0 -66 -167 43 c-93 24 -211 57 -263 73 -249 79 -606 182 -632 182 -10 0 -10
-42 0 -56 4 -5 56 -23 116 -38 60 -16 211 -60 335 -98 124 -38 291 -87 371
-109 80 -22 168 -47 196 -55 l50 -14 13 -243 c15 -301 30 -922 31 -1292 0
-325 -11 -571 -45 -1030 -31 -417 -52 -723 -65 -940 -5 -93 -14 -233 -19 -310
-18 -255 -24 -654 -12 -750 12 -101 63 -293 114 -430 30 -80 37 -90 60 -93 23
-3 27 0 27 22 0 13 -13 60 -29 104 -16 44 -47 139 -68 213 l-38 134 1 320 c1
181 8 428 18 570 9 138 21 320 26 405 20 300 41 598 60 845 36 472 42 717 31
1385 -6 344 -16 706 -22 805 -6 99 -9 211 -6 250 2 38 1 76 -3 85 -5 8 -13
107 -20 219 -6 113 -24 340 -40 505 -27 278 -60 724 -75 1026 -5 109 -15 251
-65 935 -5 77 -14 241 -20 365 -6 124 -20 378 -31 565 -22 387 -36 977 -25
1107 l8 87 38 -25 c44 -29 74 -28 78 2 2 15 -13 32 -58 65 -59 43 -60 45 -56
84 3 22 8 81 11 130 4 50 22 248 41 440 18 193 45 490 59 660 29 357 44 504
85 885 36 332 51 548 38 573 -10 20 -47 23 -52 5z"/>
<path d="M33495 25051 c-3 -5 -10 -119 -16 -253 -5 -134 -16 -304 -24 -378
-11 -116 -11 -137 1 -150 11 -11 19 -12 32 -4 22 14 36 146 53 501 10 213 10
265 -1 277 -14 18 -36 21 -45 7z"/>
<path d="M33334 25029 c-4 -7 -10 -47 -12 -89 l-4 -76 -102 -23 c-185 -41
-549 -133 -666 -168 -113 -34 -435 -153 -640 -237 -83 -34 -106 -47 -108 -64
-6 -39 25 -35 156 16 493 197 688 258 1162 367 85 20 163 38 173 41 16 5 18 1
15 -32 -3 -36 -6 -39 -43 -46 -22 -5 -114 -33 -205 -63 -91 -29 -293 -86 -450
-125 -297 -75 -836 -217 -1048 -276 -116 -33 -351 -85 -376 -83 -6 0 81 28
194 62 196 59 205 63 205 87 0 22 -4 25 -31 24 -17 -1 -139 -34 -270 -74 -131
-40 -324 -98 -429 -130 -104 -31 -332 -103 -505 -159 -334 -109 -535 -162
-795 -212 -202 -39 -829 -218 -1334 -380 -69 -22 -242 -67 -385 -100 -144 -33
-351 -80 -461 -105 -435 -99 -930 -229 -1131 -295 -116 -38 -277 -89 -359
-113 -106 -30 -152 -49 -160 -62 -5 -10 -11 -21 -12 -23 -1 -2 -40 -11 -86
-21 -78 -16 -84 -16 -80 0 9 36 -18 39 -134 15 -134 -28 -246 -56 -373 -95
-52 -16 -234 -63 -405 -106 -343 -85 -377 -95 -585 -184 -80 -34 -210 -87
-289 -116 -79 -30 -149 -58 -155 -63 -6 -5 -41 -17 -78 -26 -53 -14 -74 -15
-99 -6 -18 6 -33 10 -34 9 -1 -2 4 -43 11 -93 19 -130 17 -272 -6 -447 -35
-268 -70 -606 -71 -680 -1 -40 -5 -100 -9 -133 -5 -35 -7 79 -4 275 2 184 5
486 6 670 l3 335 -22 3 c-14 2 -26 -4 -33 -17 -10 -20 -20 -21 -138 -21 -70 0
-237 7 -372 15 -464 28 -625 34 -789 27 -143 -6 -165 -9 -175 -25 -15 -25 12
-44 73 -53 67 -10 120 -60 845 -795 l213 -216 9 -349 c14 -550 11 -2741 -5
-3354 -16 -624 -26 -2383 -14 -2485 7 -64 10 -70 31 -70 l23 0 3 975 c3 986
16 1746 37 2185 13 282 5 2085 -12 2668 -6 202 -9 371 -6 374 3 3 52 -31 109
-74 57 -44 113 -85 126 -92 l22 -12 0 -327 c0 -401 -26 -898 -70 -1372 -18
-186 -35 -833 -34 -1284 0 -409 1 -439 18 -452 20 -14 42 -10 49 10 3 7 2 89
-3 182 -4 93 -3 381 2 639 15 793 23 864 23 215 0 -327 4 -689 9 -803 8 -206
8 -208 30 -200 11 3 30 6 41 4 71 -8 222 0 915 50 320 23 539 33 885 39 253 4
467 11 475 14 18 7 599 32 1045 46 358 10 428 13 880 35 165 7 374 17 465 20
91 3 238 13 328 21 89 8 238 14 330 14 92 0 244 5 337 10 247 15 818 77 883
96 39 12 77 15 126 11 68 -5 355 16 636 47 74 9 302 25 505 36 204 11 447 27
540 35 94 8 248 18 344 22 148 5 176 9 189 24 12 13 20 15 37 7 19 -8 409 12
704 36 36 3 64 0 82 -9 42 -22 173 -10 219 20 l35 22 -6 -86 c-45 -566 -50
-732 -75 -2683 l-7 -517 -41 -5 c-87 -11 -300 -17 -801 -26 -710 -12 -1443
-53 -1490 -84 -29 -19 -34 -61 -45 -416 -5 -157 -16 -382 -25 -500 -8 -118
-13 -220 -11 -227 6 -16 42 -17 52 -2 10 17 41 515 50 792 4 136 8 247 9 247
5 0 323 -188 460 -272 77 -47 232 -138 345 -203 113 -64 208 -120 213 -124 4
-4 3 -41 -3 -82 -6 -41 -15 -209 -21 -374 -5 -165 -13 -372 -18 -460 -6 -99
-6 -306 1 -545 10 -379 -4 -1414 -20 -1535 l-7 -49 -214 242 c-212 242 -242
267 -249 215 -5 -31 419 -513 450 -513 19 0 20 -4 15 -62 -3 -35 -11 -123 -18
-195 -7 -73 -16 -133 -20 -133 -4 0 -47 55 -95 123 -171 238 -297 400 -315
404 -22 6 -24 14 -39 143 -6 52 -22 169 -36 260 -13 91 -40 293 -59 450 -19
157 -46 332 -59 390 -21 92 -50 215 -78 331 -9 41 -30 55 -51 34 -16 -16 -7
-77 38 -253 43 -172 55 -239 90 -522 19 -151 48 -369 64 -483 17 -115 38 -280
47 -368 l18 -159 -23 -30 c-17 -24 -19 -34 -11 -50 9 -17 7 -22 -17 -31 -15
-6 -75 -13 -133 -16 -67 -3 -134 -14 -185 -29 -115 -34 -269 -64 -329 -64 -28
0 -100 6 -161 14 -60 9 -168 19 -240 25 -158 11 -220 31 -249 80 -19 32 -19
36 -2 130 9 53 21 100 26 105 5 5 269 10 615 12 334 2 615 6 627 9 11 4 26 21
33 39 16 37 10 75 -49 321 -38 160 -96 497 -121 710 -8 72 -24 175 -35 230
-10 55 -26 152 -35 215 -20 142 -22 150 -44 150 -37 0 -38 -17 -15 -176 12
-85 27 -176 33 -202 6 -26 22 -132 36 -237 41 -307 82 -542 125 -725 23 -95
44 -194 47 -221 l6 -49 -244 0 c-134 0 -405 -1 -602 -3 -247 -1 -356 1 -353 9
2 5 12 38 21 72 10 35 22 65 26 68 5 3 98 9 206 14 109 5 245 16 303 25 137
20 364 71 390 87 30 19 52 84 45 132 -4 23 -26 140 -50 261 -24 121 -60 328
-80 460 -20 132 -40 262 -45 288 -6 26 -10 67 -10 91 0 54 -21 86 -47 70 -22
-14 -21 -73 2 -209 8 -49 26 -166 40 -260 32 -210 56 -347 95 -535 33 -161 37
-222 16 -239 -20 -17 -195 -57 -351 -81 -115 -17 -483 -42 -495 -33 -2 2 10
48 28 101 l32 98 102 -4 c152 -5 482 22 513 42 72 47 77 152 21 391 -115 487
-136 578 -151 658 -8 48 -18 93 -21 101 -6 16 2 17 230 36 126 10 265 39 315
65 14 7 48 33 74 58 56 52 60 86 15 120 -25 19 -44 21 -275 22 -223 2 -259 5
-363 28 -179 39 -221 58 -309 142 -62 60 -94 103 -176 240 -157 262 -205 314
-292 322 -42 4 -52 2 -74 -21 l-26 -26 -7 37 c-8 51 -8 113 1 113 4 0 17 -10
30 -22 18 -17 28 -20 40 -12 27 17 26 30 -7 63 -23 22 -41 31 -65 31 -19 0
-37 -4 -40 -10 -11 -18 -22 -11 -28 19 -3 16 -9 40 -13 55 -8 35 16 35 62 0
29 -23 38 -25 57 -16 12 6 31 12 42 14 12 2 21 12 23 25 4 26 22 30 150 36
l83 4 -2 -104 c-2 -79 1 -107 11 -113 19 -12 39 -1 45 24 13 61 25 466 25 863
0 433 3 519 36 1018 21 323 30 1147 15 1405 -12 214 -47 639 -56 678 -6 24
-49 32 -57 10 -3 -7 6 -119 18 -248 36 -369 51 -962 35 -1394 -11 -331 -16
-427 -41 -791 -5 -82 -13 -405 -17 -716 l-6 -566 -75 -7 c-41 -3 -94 -6 -117
-6 l-42 0 -6 493 c-3 284 -12 581 -21 702 -8 116 -20 309 -26 430 -6 121 -18
306 -26 410 -8 105 -17 351 -21 548 -6 370 -8 386 -48 371 -17 -7 -17 -31 -12
-403 3 -218 11 -443 16 -501 6 -58 17 -240 26 -405 8 -165 20 -356 25 -425 14
-172 30 -683 30 -982 l0 -247 -35 -7 c-19 -3 -45 -4 -58 -1 -12 3 -34 9 -49
13 -17 4 -39 0 -60 -10 -38 -19 -37 -19 -343 -47 -126 -11 -291 -29 -365 -39
-298 -41 -545 -67 -930 -96 -160 -12 -380 -17 -865 -19 -591 -3 -938 -13 -965
-30 -13 -8 -13 -42 0 -50 5 -3 98 0 207 6 109 6 482 12 828 14 651 2 723 5
1245 55 113 11 304 33 425 49 195 27 563 64 714 73 l55 3 18 -75 c13 -50 26
-82 42 -95 17 -15 25 -35 30 -77 7 -70 53 -219 70 -233 8 -6 30 -50 51 -98 44
-104 189 -328 264 -409 29 -32 88 -101 131 -155 65 -82 75 -99 63 -109 -13 -9
-149 -431 -272 -841 l-36 -123 -62 0 -61 0 15 58 c20 79 58 205 104 350 45
141 128 437 164 586 21 87 23 102 11 115 -22 21 -44 6 -55 -36 -61 -240 -131
-492 -179 -643 -32 -102 -71 -232 -87 -290 -15 -58 -29 -111 -31 -118 -3 -9
-12 -11 -26 -7 -34 10 -49 35 -42 70 32 162 67 291 140 525 47 151 105 350
129 443 38 146 42 169 29 182 -8 8 -21 12 -29 9 -17 -7 -24 -29 -64 -189 -17
-66 -52 -192 -80 -280 -27 -88 -69 -225 -94 -305 -58 -187 -101 -390 -93 -435
8 -38 46 -72 95 -81 24 -5 31 -12 31 -29 0 -36 41 -87 91 -113 l47 -24 -14
-61 c-8 -34 -26 -95 -40 -136 -20 -59 -24 -79 -15 -98 10 -21 17 -23 76 -23
l65 0 -6 -77 c-4 -43 -15 -111 -25 -152 -31 -124 -35 -191 -11 -243 35 -80
125 -114 322 -124 63 -3 158 -12 211 -20 53 -8 131 -14 173 -14 78 0 260 34
374 70 37 12 92 20 131 20 85 0 181 17 202 37 15 13 18 12 30 -5 26 -36 328
-357 348 -369 25 -16 53 -6 49 17 -2 10 -78 98 -169 196 -237 255 -216 223
-210 327 l6 88 66 -88 c36 -48 126 -171 200 -273 l134 -185 0 -95 c0 -90 1
-95 22 -98 27 -4 29 2 47 163 57 490 70 852 71 1960 1 861 20 1568 43 1601 4
5 16 9 27 9 13 0 21 8 23 21 3 19 12 22 80 28 42 3 174 15 292 26 118 11 379
24 580 30 201 5 491 14 645 20 546 19 800 22 1035 11 129 -7 323 -14 431 -18
190 -6 197 -5 210 14 7 12 19 18 29 16 9 -2 21 2 27 9 6 8 13 129 17 318 3
168 10 393 16 500 5 107 9 548 9 980 1 815 8 1129 41 1805 32 638 39 913 46
1700 5 599 3 810 -10 1105 -9 201 -21 595 -26 875 -5 281 -14 645 -20 810 -6
165 -10 613 -9 995 1 461 -3 764 -11 900 -13 211 -20 240 -56 226 -16 -6 -16
-19 -9 -149 5 -78 10 -511 11 -962 1 -451 7 -926 13 -1055 6 -129 11 -361 12
-515 0 -283 3 -385 35 -1205 16 -412 16 -531 5 -1255 -12 -791 -15 -920 -45
-1515 -30 -587 -36 -871 -36 -1675 0 -560 -5 -906 -15 -1120 -8 -170 -15 -402
-15 -515 0 -113 -4 -211 -9 -219 -10 -15 -91 -14 -561 9 -256 12 -610 12 -890
0 -124 -6 -425 -14 -670 -20 -425 -9 -611 -20 -980 -56 -138 -13 -168 -19
-182 -35 -20 -24 -24 -24 -31 1 -3 13 -14 20 -28 20 -23 0 -167 81 -504 282
-110 66 -273 163 -363 216 -120 71 -158 98 -145 103 18 6 136 14 668 44 143 8
499 20 790 25 292 5 588 13 659 17 108 5 128 4 124 -8 -4 -11 -40 -15 -164
-20 -87 -4 -310 -23 -494 -43 -184 -20 -415 -45 -514 -56 -98 -10 -183 -23
-188 -28 -6 -6 -8 -18 -6 -28 3 -17 12 -19 79 -16 88 4 81 7 429 -183 331
-181 376 -198 368 -143 -2 18 -29 36 -120 83 -240 124 -488 260 -476 262 7 2
123 14 258 28 135 14 304 32 375 40 72 8 213 18 315 21 102 4 193 11 203 16
14 7 16 17 11 47 -5 33 -3 39 15 44 28 7 28 47 0 54 l-21 6 6 391 c3 215 10
713 15 1106 12 873 25 1234 66 1745 8 99 19 277 26 395 6 118 12 216 14 218 4
5 15 -859 15 -1194 0 -188 5 -498 10 -690 6 -192 15 -596 20 -899 29 -1617 33
-1730 57 -1739 9 -4 22 -1 30 6 12 10 14 41 10 177 -2 91 -9 436 -16 766 -6
330 -15 764 -21 965 -11 407 -33 1895 -34 2375 -1 171 5 661 13 1090 16 929
11 1631 -19 2525 -20 595 -21 706 -11 1210 14 699 14 976 1 1001 -12 21 -46
26 -53 7 -2 -7 -3 -152 -1 -323 l3 -310 -20 400 c-24 486 -21 641 11 703 18
34 21 51 15 80 -5 20 -7 100 -5 177 2 77 4 158 4 180 1 34 -2 40 -21 43 -11 2
-25 -2 -29 -9z m-2895 -1093 c-2 -2 -61 -24 -130 -49 -127 -46 -295 -91 -619
-167 -96 -22 -308 -78 -470 -124 -320 -92 -792 -218 -796 -213 -13 13 962 289
1132 322 225 43 497 112 684 175 158 52 211 67 199 56z m-2480 -690 c-2 -2
-195 -58 -429 -125 -447 -127 -798 -215 -1193 -301 -131 -28 -244 -53 -252
-57 -8 -3 -15 -3 -15 0 0 4 83 33 185 67 209 68 768 210 1315 335 348 79 399
90 389 81z m5420 -1481 c20 -558 31 -1034 29 -1240 l-1 -200 -8 245 c-5 135
-16 403 -25 595 -10 223 -17 597 -19 1030 -3 593 -2 629 5 285 4 -217 13 -539
19 -715z m-8484 709 c-22 -9 -168 -51 -325 -94 -157 -44 -328 -93 -380 -109
-52 -17 -96 -29 -97 -27 -2 1 41 22 95 46 69 30 185 65 407 121 306 77 378 92
300 63z m-2170 -528 c121 -9 291 -15 377 -16 l157 0 -6 -572 c-3 -315 -6 -574
-7 -575 -1 -1 -69 50 -152 115 -148 116 -264 228 -694 668 -107 110 -244 246
-305 302 l-110 103 260 -5 c143 -3 359 -12 480 -20z m10590 -806 c8 -206 17
-494 20 -640 3 -146 8 -337 11 -425 3 -88 3 -157 -1 -154 -7 8 -41 276 -54
434 -16 176 -43 724 -37 734 3 4 8 152 10 328 3 176 8 355 13 399 7 73 8 66
15 -111 4 -104 14 -359 23 -565z m25 -2095 c-7 -165 -20 -415 -29 -555 l-17
-255 -7 142 c-6 127 4 454 18 558 3 22 12 200 20 395 19 444 19 446 23 210 2
-107 -2 -330 -8 -495z m-8885 -1585 c33 -4 48 -8 33 -9 -14 0 -188 -12 -385
-26 -197 -13 -389 -27 -428 -29 -117 -8 -13 10 190 34 302 34 483 44 590 30z
m5443 -4043 c39 -38 92 -116 193 -287 56 -94 95 -146 159 -211 76 -77 93 -89
165 -117 149 -57 271 -74 548 -80 179 -3 247 -7 244 -16 -10 -30 -89 -74 -172
-95 -82 -20 -354 -47 -549 -53 -62 -2 -81 -7 -90 -20 -18 -30 6 -40 89 -39 42
1 74 -3 71 -7 -4 -7 36 -223 59 -317 4 -16 5 -27 1 -24 -4 4 -24 76 -46 160
-36 144 -40 154 -62 154 -17 0 -24 -6 -26 -26 -5 -40 59 -266 137 -488 73
-209 89 -294 58 -319 -25 -21 -253 -70 -357 -77 -97 -7 -102 -7 -96 11 3 11
14 62 25 114 11 52 52 236 91 409 71 318 73 341 34 341 -21 0 -30 -25 -59
-168 -16 -72 -30 -131 -32 -129 -1 2 4 50 12 107 15 111 10 136 -27 127 -10
-3 -18 -4 -18 -3 0 2 9 29 20 62 12 32 18 69 15 82 -3 12 -1 22 5 22 39 0 -43
123 -192 287 -54 60 -193 263 -232 340 -58 115 -94 272 -69 297 15 15 68 -5
101 -37z m307 -1358 c-20 -129 -47 -286 -61 -349 -14 -63 -27 -128 -31 -144
-6 -28 -7 -28 -56 -23 -27 4 -51 8 -53 10 -4 3 16 69 129 432 31 99 66 215 79
257 13 43 24 71 26 64 2 -8 -13 -119 -33 -247z m554 -565 c2 -112 -1 -113
-189 -126 -184 -13 -375 -16 -385 -6 -4 4 -1 31 7 60 17 61 12 59 193 77 143
14 313 61 340 93 l20 24 6 -25 c4 -14 7 -58 8 -97z m-747 -179 c25 -5 27 -7
16 -33 -6 -15 -21 -65 -33 -112 l-22 -85 -46 -3 c-26 -2 -47 -2 -47 0 0 2 9
26 19 53 10 28 24 77 30 110 16 82 17 84 38 80 10 -2 30 -6 45 -10z"/>
<path d="M34566 25001 c-4 -6 -2 -165 4 -353 14 -480 15 -456 -12 -460 -28 -4
-27 27 -10 -553 21 -708 34 -1556 31 -1920 -6 -506 -4 -780 9 -2134 8 -807 8
-1252 2 -1325 -14 -155 -13 -299 2 -314 27 -27 55 -11 156 92 101 102 121 137
85 150 -12 5 -41 -17 -106 -81 l-89 -88 7 115 c4 63 10 174 15 245 4 72 4 258
-1 415 -5 157 -11 989 -14 1850 -2 861 -11 1930 -20 2375 -14 757 -17 867 -31
1082 -4 68 -3 82 9 77 8 -3 20 2 27 11 11 13 12 79 5 343 -4 180 -10 361 -14
402 -5 67 -8 75 -28 78 -11 2 -24 -1 -27 -7z"/>
<path d="M13382 24778 c-9 -9 -12 -116 -12 -417 0 -401 -21 -1526 -40 -2186
-5 -189 -10 -1480 -10 -2899 -1 -2697 -3 -2592 40 -2566 13 8 16 372 21 2792
3 1531 9 2792 12 2803 7 23 22 698 38 1733 11 742 11 752 -25 752 -7 0 -17 -5
-24 -12z"/>
<path d="M18882 24517 c-11 -13 0 -1097 13 -1292 3 -49 10 -416 15 -815 5
-399 14 -795 19 -880 27 -417 33 -595 42 -1360 5 -454 13 -951 18 -1105 6
-154 10 -453 11 -665 1 -480 19 -960 64 -1655 39 -596 40 -605 61 -1025 9
-162 23 -419 32 -570 13 -212 17 -398 15 -815 -2 -297 -4 -585 -5 -640 l-2
-100 25 0 c24 0 25 3 34 85 14 133 13 1237 -2 1430 -6 91 -19 298 -27 460 -31
611 -36 693 -56 990 -50 754 -59 963 -69 1525 -6 325 -15 790 -20 1035 -6 245
-13 699 -16 1010 -5 602 -16 963 -39 1365 -8 138 -17 471 -20 740 -3 270 -10
672 -16 895 -6 223 -14 625 -18 893 -6 405 -10 490 -22 498 -19 12 -25 11 -37
-4z"/>
<path d="M22224 24475 c-11 -27 4 -43 44 -50 63 -10 109 -67 82 -100 -16 -19
-41 -6 -103 53 -38 38 -51 45 -64 36 -9 -6 -19 -16 -21 -22 -5 -16 83 -107
123 -126 46 -22 69 -20 105 11 30 25 32 30 28 75 -4 33 -13 57 -29 75 -47 51
-152 82 -165 48z"/>
<path d="M19246 24364 c-3 -9 -6 -17 -6 -19 0 -2 55 -46 123 -99 67 -52 169
-139 227 -192 58 -53 173 -151 255 -217 189 -154 280 -241 463 -445 110 -122
151 -162 167 -160 40 6 28 37 -46 121 -204 229 -341 365 -483 480 -83 67 -191
158 -240 202 -217 197 -404 345 -434 345 -11 0 -23 -7 -26 -16z"/>
<path d="M20932 24338 c-9 -9 -12 -180 -12 -707 0 -701 -7 -961 -36 -1301 -13
-145 -18 -409 -23 -1230 -4 -575 -11 -1051 -15 -1058 -4 -7 -11 -547 -16
-1200 -8 -1154 -9 -1195 -33 -1477 -50 -565 -67 -932 -67 -1462 -1 -343 3
-478 19 -678 24 -297 61 -599 97 -784 23 -123 24 -141 13 -198 -10 -52 -10
-128 0 -396 7 -182 17 -339 22 -349 11 -21 32 -23 47 -5 6 8 7 71 1 182 -4 94
-9 213 -11 265 l-3 95 25 0 c33 0 36 30 15 152 -14 87 -14 97 0 119 8 13 22
24 29 24 25 0 76 -63 123 -154 153 -297 202 -364 335 -452 57 -38 127 -92 156
-121 53 -53 85 -66 95 -39 14 35 -61 108 -220 214 -50 34 -103 76 -117 94 -36
48 -135 218 -195 335 -63 122 -121 183 -175 183 -19 0 -38 -4 -41 -10 -3 -5
-10 -10 -15 -10 -20 0 -83 439 -117 820 -15 169 -18 302 -17 750 1 591 10 789
66 1455 l31 370 8 1170 c21 2878 25 3149 49 3425 19 224 22 357 29 1105 4 478
4 858 -1 868 -10 20 -29 22 -46 5z"/>
<path d="M27998 24294 c-3 -3 -39 -6 -79 -7 -68 -2 -74 -4 -77 -24 -5 -38 33
-48 127 -35 57 8 89 8 110 1 65 -23 23 -43 -76 -37 -54 2 -68 0 -77 -14 -14
-24 0 -37 54 -49 56 -13 122 -2 163 25 57 38 45 94 -26 127 -40 18 -107 25
-119 13z"/>
<path d="M34989 24143 c-6 -17 -7 -717 -2 -2112 4 -1147 7 -2223 7 -2391 0
-306 -8 -512 -46 -1150 -14 -239 -23 -547 -28 -1005 -7 -575 -10 -682 -29
-835 -35 -297 -46 -623 -46 -1405 0 -618 3 -752 17 -870 9 -77 14 -153 12
-170 -3 -16 1 -50 9 -75 11 -37 17 -45 37 -45 25 0 25 1 23 80 -2 44 -11 150
-20 235 -16 134 -18 248 -18 835 0 730 13 1092 47 1390 17 154 21 273 28 820
5 439 14 751 28 995 51 873 55 995 46 1525 -9 510 -10 754 -7 1435 4 836 -4
2746 -11 2758 -12 21 -36 13 -47 -15z"/>
<path d="M27957 23730 c-49 -6 -69 -22 -60 -47 6 -15 9 -16 93 -13 72 2 120
-12 120 -34 0 -23 -46 -26 -175 -12 -66 7 -126 11 -132 8 -17 -6 -17 -48 0
-55 7 -2 70 -10 139 -18 144 -14 197 -6 224 36 21 32 11 78 -23 105 -22 17
-44 23 -118 34 -11 2 -42 0 -68 -4z"/>
<path d="M22830 23713 c-14 -3 -31 -10 -37 -15 -16 -13 -17 -48 -1 -48 6 0 4
-6 -6 -13 -24 -18 -17 -50 14 -58 14 -4 75 -7 135 -8 130 -1 158 10 153 62 -4
47 -68 79 -162 83 -39 1 -82 0 -96 -3z"/>
<path d="M42447 23648 c-79 -41 -176 -105 -295 -195 -97 -74 -247 -182 -332
-241 -186 -127 -370 -258 -503 -359 -78 -59 -98 -79 -95 -96 2 -15 10 -22 23
-21 11 0 90 52 175 116 85 63 252 182 370 263 118 82 278 197 355 255 170 130
265 193 373 244 45 22 84 46 87 54 6 16 -12 42 -29 42 -6 0 -64 -28 -129 -62z"/>
<path d="M18521 23501 c-16 -10 -52 -315 -72 -607 -14 -203 -7 -1110 10 -1389
6 -93 15 -285 21 -425 6 -140 23 -388 40 -550 16 -162 34 -380 40 -485 32
-584 40 -729 49 -915 6 -113 13 -290 16 -395 3 -104 12 -275 20 -380 8 -104
21 -318 30 -475 16 -301 22 -374 55 -775 11 -137 27 -333 35 -435 40 -484 66
-792 75 -870 5 -47 12 -150 15 -230 3 -80 12 -289 20 -465 19 -427 33 -888 45
-1474 10 -481 13 -511 45 -511 34 0 35 21 25 451 -15 679 -30 1172 -45 1499
-8 168 -17 379 -20 470 -4 91 -11 199 -16 240 -5 41 -16 156 -24 255 -9 99
-27 299 -40 445 -13 146 -31 360 -40 475 -9 116 -22 278 -30 360 -8 83 -19
242 -25 355 -14 278 -39 668 -45 705 -2 17 -9 156 -15 310 -11 301 -22 533
-45 960 -28 497 -36 619 -61 865 -26 258 -37 427 -55 830 -44 995 -39 1428 21
1970 13 125 16 178 8 187 -12 15 -18 16 -37 4z"/>
<path d="M16599 23328 c-2 -38 4 -140 17 -268 20 -197 37 -653 29 -775 -3 -55
-12 -316 -20 -580 -9 -264 -20 -595 -25 -735 -5 -140 -9 -706 -10 -1256 0
-877 2 -1003 15 -1008 38 -14 39 3 47 1134 5 726 13 1201 23 1410 8 173 15
369 15 435 0 66 5 262 12 437 13 343 4 672 -27 1003 -21 221 -20 215 -50 215
-14 0 -25 -6 -26 -12z"/>
<path d="M16833 23098 c-4 -7 -6 -222 -5 -478 2 -259 -2 -558 -8 -675 -6 -115
-15 -518 -20 -895 -5 -377 -14 -788 -20 -915 -17 -338 -8 -1348 13 -1435 14
-57 35 -90 58 -90 5 0 6 21 3 48 -25 260 -32 925 -14 1387 5 121 14 531 19
910 6 380 15 782 21 895 14 303 13 1233 -2 1248 -16 16 -35 15 -45 0z"/>
<path d="M42500 22925 c-69 -18 -215 -58 -325 -89 -1057 -301 -950 -267 -950
-296 0 -15 7 -26 16 -28 9 -2 165 40 345 92 181 52 397 113 479 135 83 21 204
56 270 76 66 20 149 43 185 51 141 33 140 32 140 64 0 37 -1 37 -160 -5z"/>
<path d="M23465 22931 c-42 -26 -67 -57 -63 -78 5 -29 36 -27 74 6 26 24 44
31 75 31 79 0 117 -55 59 -85 -36 -19 -95 -19 -180 0 -82 18 -78 18 -89 -3
-15 -29 2 -43 70 -58 174 -37 288 1 289 96 0 20 -7 45 -15 56 -36 52 -160 72
-220 35z"/>
<path d="M21007 22793 c-21 -20 11 -59 196 -241 265 -263 535 -503 562 -500
51 7 21 45 -175 220 -107 97 -275 255 -372 352 -164 163 -194 187 -211 169z"/>
<path d="M18180 22715 c-11 -13 -11 -82 -1 -358 20 -609 45 -982 86 -1302 24
-180 99 -812 110 -920 2 -27 10 -144 15 -260 6 -115 17 -280 25 -365 20 -216
52 -814 75 -1400 5 -140 10 -829 10 -1530 1 -1690 7 -1855 94 -2595 58 -484
97 -877 90 -884 -3 -3 -144 -7 -314 -9 -321 -3 -339 -6 -324 -46 6 -14 60 -16
589 -16 434 0 618 -4 721 -14 77 -8 266 -17 422 -21 255 -5 283 -4 288 10 16
41 -8 44 -346 55 -179 6 -352 15 -385 20 -33 5 -178 12 -322 16 -239 7 -263 9
-263 24 0 36 -52 520 -95 886 -87 735 -95 944 -95 2704 0 1181 -3 1393 -30
1930 -6 113 -15 300 -20 415 -6 116 -19 314 -30 440 -10 127 -22 286 -25 355
-13 267 -54 660 -125 1190 -10 80 -24 188 -30 240 -16 149 -49 742 -60 1105
-10 320 -13 344 -41 345 -4 0 -12 -7 -19 -15z"/>
<path d="M41174 22259 c-3 -6 -13 -131 -21 -278 -26 -476 -46 -5342 -27 -6633
10 -635 12 -709 28 -732 9 -14 20 -26 25 -26 18 0 33 30 27 52 -12 40 -30
1442 -30 2248 1 426 6 1666 12 2755 8 1550 14 2048 27 2293 8 172 13 317 10
323 -8 13 -42 11 -51 -2z"/>
<path d="M0 22111 c0 -25 5 -30 43 -39 117 -30 981 -219 1262 -277 638 -131
964 -211 1409 -345 268 -80 379 -120 681 -244 88 -36 223 -83 300 -106 77 -23
193 -57 257 -75 65 -19 220 -71 345 -115 124 -44 237 -80 250 -80 18 0 23 6
23 24 0 13 -8 27 -17 31 -137 53 -520 182 -703 235 -283 83 -290 85 -555 193
-476 193 -1047 352 -1875 522 -179 37 -567 120 -863 186 -296 65 -542 119
-547 119 -6 0 -10 -13 -10 -29z"/>
<path d="M21717 21903 c-4 -3 -7 -398 -7 -877 0 -813 -5 -1110 -31 -1791 -5
-148 -13 -636 -16 -1085 l-6 -816 -226 33 c-261 37 -299 40 -308 17 -3 -8 1
-21 8 -28 8 -8 116 -27 249 -45 129 -18 244 -35 256 -38 20 -4 21 -11 27 -231
23 -791 44 -1355 57 -1493 6 -57 17 -237 25 -401 8 -163 22 -367 30 -454 8
-86 15 -162 15 -167 0 -6 -12 1 -27 16 -61 58 -193 92 -265 68 -45 -15 -101
-69 -123 -118 -14 -31 -22 -39 -43 -38 -25 0 -27 -3 -25 -35 4 -47 4 -89 1
-125 -3 -27 0 -30 27 -29 25 0 39 -10 80 -60 28 -34 73 -76 100 -94 43 -29 56
-33 96 -30 58 6 99 35 137 96 51 84 75 164 69 231 -4 52 -3 60 14 64 24 6 24
38 4 248 -8 85 -19 258 -25 384 -6 127 -17 311 -25 410 -13 164 -27 499 -55
1385 -10 330 4 2127 21 2550 4 118 11 713 14 1323 6 866 4 1111 -5 1122 -13
16 -32 19 -43 8z m-45 -7375 c84 -47 105 -113 69 -219 -39 -116 -99 -179 -155
-165 -36 9 -126 94 -168 158 l-32 51 18 51 c40 115 93 161 179 152 27 -3 67
-16 89 -28z"/>
<path d="M22186 21537 c-14 -11 -15 -40 -6 -287 5 -151 15 -349 20 -440 24
-373 41 -769 50 -1174 5 -237 12 -438 16 -448 3 -10 9 -879 14 -1931 6 -1144
13 -1974 20 -2067 12 -174 45 -609 61 -800 11 -134 23 -165 57 -143 9 6 16 19
15 29 -1 11 -9 107 -18 214 -8 107 -20 247 -25 310 -39 456 -43 623 -51 2530
-4 1037 -12 1951 -18 2045 -5 94 -10 255 -10 359 -1 104 -5 275 -11 380 -22
429 -31 598 -40 741 -5 83 -12 256 -15 385 -3 129 -8 249 -11 267 -5 35 -24
47 -48 30z"/>
<path d="M39481 21371 c-17 -11 -17 -254 -1 -706 5 -143 10 -1194 10 -2335 0
-1364 4 -2148 11 -2285 15 -298 16 -1127 1 -1765 -12 -529 -18 -703 -43 -1205
-8 -171 -9 -454 -4 -990 12 -1140 11 -2181 -3 -2545 -7 -179 -17 -433 -22
-565 -5 -132 -9 -375 -10 -540 0 -182 -6 -357 -15 -445 -8 -80 -19 -273 -25
-430 -6 -157 -12 -294 -15 -305 -11 -51 -16 -462 -6 -487 22 -57 70 -23 57 40
-3 15 -2 60 2 100 l7 73 155 -107 c207 -143 357 -258 650 -499 135 -110 292
-239 350 -285 58 -47 138 -113 178 -148 74 -65 104 -74 110 -36 3 24 -34 58
-308 280 -102 83 -266 217 -365 298 -222 183 -491 385 -654 491 l-123 80 6
110 c3 61 10 229 16 375 6 146 17 339 26 430 10 104 19 360 25 700 5 294 14
677 21 850 14 350 16 1538 3 2550 -7 616 -4 800 25 1390 17 346 35 1313 33
1795 -10 3034 -23 5312 -32 5495 -5 124 -10 311 -11 416 0 207 -6 232 -49 205z"/>
<path d="M19923 21328 c-6 -8 -6 -198 -2 -493 4 -264 8 -1038 8 -1720 0 -1133
1 -1241 16 -1250 12 -8 20 -5 31 10 14 18 15 207 12 1726 -3 1785 -2 1739 -43
1739 -7 0 -17 -6 -22 -12z"/>
<path d="M837 21246 c-3 -8 -11 -410 -17 -893 -12 -866 -7 -4344 6 -5168 6
-369 -9 -1525 -27 -2085 -17 -548 -23 -1689 -9 -2075 7 -198 16 -956 20 -1685
10 -1528 22 -1998 65 -2484 10 -115 19 -164 30 -175 13 -14 17 -14 30 0 14 14
14 34 1 195 -15 183 -28 437 -47 949 -6 160 -15 898 -19 1640 -4 743 -13 1505
-20 1695 -12 350 -5 1221 20 2255 29 1235 31 1476 18 1980 -14 520 -18 3256
-8 4985 l5 875 -21 3 c-12 2 -24 -4 -27 -12z"/>
<path d="M36693 21094 c-3 -9 1 -256 11 -548 18 -563 20 -1020 7 -1408 -11
-318 0 -378 70 -378 16 0 70 22 121 49 51 26 174 91 273 143 99 52 221 111
270 132 50 21 146 62 215 92 69 29 187 69 263 88 148 38 207 65 207 97 0 30
-27 34 -73 11 -23 -11 -95 -34 -161 -51 -220 -57 -540 -199 -995 -442 -88 -47
-116 -58 -122 -47 -5 7 -6 280 -2 606 6 550 -5 1246 -25 1562 -7 99 -8 105
-30 108 -14 2 -25 -3 -29 -14z"/>
<path d="M34800 19997 c-103 -39 -110 -43 -110 -67 0 -32 28 -30 132 8 93 34
103 40 103 62 0 35 -25 35 -125 -3z"/>
<path d="M10141 19391 c-10 -7 -10 -53 -1 -232 16 -317 25 -2054 11 -2294 -38
-680 -56 -925 -91 -1280 -57 -574 -58 -602 -70 -1005 -12 -428 -4 -630 40
-973 16 -128 34 -285 40 -350 21 -239 30 -788 29 -1782 l-1 -1020 23 0 c22 0
25 6 32 60 12 94 2 2474 -12 2645 -7 80 -25 251 -41 380 -50 401 -53 469 -47
935 6 463 7 480 67 1080 22 220 44 477 50 570 5 94 19 325 31 515 20 325 21
404 15 1375 -6 1143 -11 1318 -43 1358 -12 16 -24 22 -32 18z"/>
<path d="M10717 19223 c-11 -10 -8 -168 10 -493 27 -515 17 -2168 -17 -2590
-5 -63 -14 -198 -20 -300 -6 -102 -22 -322 -35 -490 -24 -299 -44 -710 -66
-1340 -14 -426 -7 -2499 9 -2630 34 -272 54 -536 62 -819 8 -322 12 -347 48
-325 14 9 18 29 20 105 6 166 -16 545 -50 869 l-33 315 0 1230 c0 1012 3 1299
18 1620 24 551 36 755 52 950 8 94 22 269 30 390 8 121 21 315 29 430 38 535
50 1975 21 2553 -8 167 -15 346 -15 399 0 52 -5 103 -10 114 -10 19 -40 26
-53 12z"/>
<path d="M13564 19125 c-13 -34 6 -41 227 -83 254 -48 745 -132 772 -132 12 0
17 8 17 30 0 17 -3 30 -6 30 -18 0 -579 97 -754 130 -233 45 -248 46 -256 25z"/>
<path d="M13457 18973 c-10 -9 -9 -41 1 -47 13 -8 1096 -206 1127 -206 11 0 4
48 -7 58 -7 5 -123 29 -258 52 -135 23 -377 66 -538 96 -308 57 -315 58 -325
47z"/>
<path d="M37405 18784 c-16 -2 -109 -8 -205 -15 -176 -11 -210 -18 -210 -43 0
-32 24 -34 200 -19 252 21 586 21 672 1 73 -17 103 -15 112 9 9 22 -12 43 -43
43 -14 0 -58 7 -96 15 -63 13 -326 19 -430 9z"/>
<path d="M14930 18686 c0 -34 2 -34 245 -91 110 -26 304 -71 430 -101 407 -97
1005 -234 1020 -234 10 0 15 10 15 29 0 29 -1 30 -112 55 -395 90 -1013 234
-1244 290 -149 36 -290 68 -313 72 -39 6 -41 6 -41 -20z"/>
<path d="M38216 18552 c-3 -5 -10 -442 -15 -973 -18 -1642 -14 -1522 -75
-2081 -49 -439 -42 -320 -82 -1423 -19 -542 -15 -1336 11 -2130 10 -324 14
-600 10 -710 -4 -99 -11 -904 -16 -1790 -5 -885 -11 -1643 -15 -1683 l-6 -73
29 3 c25 3 29 8 36 53 5 28 13 784 19 1680 15 2291 15 2301 -2 2785 -18 522
-19 1484 -1 1940 35 915 40 992 80 1365 22 204 45 431 51 505 11 140 34 2516
24 2531 -7 11 -41 12 -48 1z"/>
<path d="M14554 18475 c-11 -27 -9 -601 3 -1490 16 -1089 17 -2049 1 -2338 -6
-122 -12 -449 -12 -727 l-1 -505 25 0 25 0 6 440 c4 242 12 573 19 736 20 465
-1 3673 -26 3852 -6 47 -28 64 -40 32z"/>
<path d="M16880 18425 l0 -32 128 -27 c302 -65 666 -160 810 -213 38 -13 46
-14 58 -1 22 22 7 45 -39 62 -94 35 -480 138 -674 181 -115 25 -225 49 -245
54 -38 9 -38 9 -38 -24z"/>
<path d="M10950 18430 c-12 -8 -10 -56 18 -372 18 -200 39 -457 47 -573 57
-830 44 -2129 -35 -3405 -11 -173 -29 -495 -40 -715 -11 -220 -27 -503 -36
-630 -8 -128 -19 -526 -25 -900 -10 -690 -4 -936 26 -1168 8 -61 15 -134 15
-163 0 -34 5 -58 16 -68 19 -20 19 -20 39 0 18 18 17 26 -13 259 -25 189 -24
1606 1 1985 9 140 26 431 37 645 11 215 31 575 45 800 77 1287 88 2562 30
3400 -25 361 -76 889 -87 903 -12 14 -18 15 -38 2z"/>
<path d="M14911 18346 l-24 -26 2 -1832 c1 -1144 -2 -1910 -8 -2038 -6 -113
-11 -384 -13 -603 -1 -356 0 -399 15 -414 12 -13 19 -14 30 -5 12 10 15 99 20
515 3 276 11 585 17 687 9 137 10 613 5 1830 -4 905 -10 1705 -14 1778 l-6
134 -24 -26z"/>
<path d="M39167 18057 c-15 -10 -19 -46 -26 -267 -5 -140 -6 -259 -1 -263 15
-16 43 -2 50 24 4 14 11 131 15 260 6 198 5 237 -7 247 -11 9 -18 9 -31 -1z"/>
<path d="M16573 17983 c-19 -7 -18 -34 32 -791 25 -378 50 -766 56 -862 6
-102 14 -774 19 -1620 5 -795 13 -1471 17 -1503 5 -31 15 -63 21 -69 20 -20
47 4 46 38 -1 16 -7 126 -13 244 -7 131 -11 662 -11 1355 0 627 -5 1250 -10
1385 -10 240 -36 661 -85 1389 -14 201 -25 377 -25 392 0 29 -24 50 -47 42z"/>
<path d="M16871 17773 l-24 -5 7 -146 c3 -81 10 -307 16 -502 6 -195 17 -542
26 -770 8 -228 20 -779 25 -1225 6 -445 14 -922 18 -1060 5 -137 9 -393 10
-568 1 -303 6 -357 31 -357 34 0 35 15 28 571 -3 299 -11 621 -17 714 -6 94
-11 411 -11 705 -1 502 -4 668 -29 1425 -6 165 -15 476 -21 690 -12 418 -18
536 -28 534 -4 -1 -18 -4 -31 -6z"/>
<path d="M20097 17486 c-9 -10 -16 -50 -21 -123 -15 -235 -25 -549 -26 -760 0
-122 -5 -334 -10 -470 -6 -136 -14 -390 -20 -563 -5 -173 -15 -432 -21 -575
-9 -202 -9 -330 1 -575 14 -370 16 -385 50 -385 l25 0 -3 115 c-1 63 -7 205
-13 315 -7 138 -7 283 1 470 25 644 41 1142 50 1595 9 449 24 847 35 912 3 16
-2 33 -11 43 -19 18 -19 18 -37 1z"/>
<path d="M39126 17361 c-4 -5 -8 -153 -10 -329 -5 -333 -3 -352 36 -337 12 5
16 36 21 142 10 209 8 492 -3 514 -11 20 -35 25 -44 10z"/>
<path d="M19834 17205 c-4 -8 1 -97 10 -198 16 -173 28 -497 42 -1117 5 -209
2 -327 -10 -490 -25 -331 -37 -740 -34 -1125 3 -333 4 -350 22 -353 10 -2 22
2 27 10 5 7 9 153 9 323 0 383 15 831 36 1115 13 170 15 288 10 560 -15 782
-39 1242 -68 1277 -14 17 -37 16 -44 -2z"/>
<path d="M23605 17070 c-77 -4 -199 -8 -272 -9 -72 0 -138 -4 -147 -7 -20 -8
-21 -50 -1 -58 9 -3 199 2 423 10 426 17 869 15 1667 -6 977 -26 1290 -32
1868 -37 l617 -5 0 -1598 c0 -1408 2 -1599 15 -1610 12 -10 18 -10 30 0 13 11
15 202 15 1612 l0 1600 703 -5 c510 -4 752 -9 885 -21 101 -8 189 -13 197 -9
18 6 20 39 3 50 -43 27 -351 35 -1643 42 -1244 8 -1738 16 -2500 41 -398 14
-1677 20 -1860 10z"/>
<path d="M24382 16878 c-5 -8 -12 -140 -15 -318 -4 -168 -11 -361 -16 -430
-12 -136 -26 -522 -41 -1080 -6 -195 -14 -395 -20 -445 -5 -49 -13 -155 -16
-235 -6 -125 -5 -147 9 -158 13 -11 19 -10 36 7 12 12 21 17 21 11 0 -5 17
-21 37 -35 35 -23 36 -25 13 -25 -118 -1 -475 -23 -600 -37 -165 -18 -485 -23
-970 -13 l-255 5 0 -25 c0 -22 5 -26 50 -32 28 -3 250 -9 495 -13 410 -7 462
-6 655 14 116 11 309 25 430 31 121 5 317 19 435 30 118 11 265 23 325 27 109
8 110 8 110 33 0 25 -1 25 -90 25 -49 0 -139 -3 -199 -7 l-108 -8 29 28 c99
92 92 231 -14 301 -57 38 -127 65 -148 58 -29 -12 -17 -47 23 -65 l37 -16 -65
-6 c-90 -9 -135 -26 -166 -63 l-27 -32 6 75 c15 195 28 477 43 945 8 281 22
611 30 735 22 341 30 681 15 708 -13 24 -33 29 -49 10z m316 -2460 c10 -21 10
-37 3 -65 -15 -56 -36 -80 -93 -109 -42 -21 -62 -25 -108 -22 -78 6 -120 36
-120 86 0 46 32 99 68 113 26 11 174 28 217 25 11 0 26 -13 33 -28z"/>
<path d="M26159 16868 c-2 -14 -12 -1733 -13 -2312 -1 -679 0 -730 16 -740 11
-7 21 -7 27 -1 21 22 41 2663 22 2955 -6 89 -7 95 -28 98 -13 2 -23 2 -24 0z"/>
<path d="M28721 16861 c-12 -8 -13 -53 -8 -283 4 -150 14 -379 22 -508 19
-282 32 -775 45 -1590 5 -333 13 -618 18 -635 6 -23 14 -30 33 -30 l24 0 -3
335 c-2 184 -8 493 -13 685 -5 193 -14 512 -19 710 -5 198 -16 464 -24 590 -8
127 -18 338 -22 470 -7 256 -12 282 -53 256z"/>
<path d="M29843 16703 c-58 -5 -83 -24 -63 -48 19 -23 288 -22 297 1 11 30
-21 46 -103 49 -44 1 -102 1 -131 -2z"/>
<path d="M39115 16536 c-17 -12 -17 -37 -13 -337 3 -178 9 -332 13 -342 5 -11
16 -17 29 -15 21 3 21 7 24 238 2 129 0 285 -3 347 -7 116 -15 134 -50 109z"/>
<path d="M13390 16218 c0 -29 7 -183 15 -343 47 -932 50 -1046 46 -1690 -13
-1690 -5 -2660 26 -3317 l6 -126 -41 -21 c-49 -25 -58 -37 -42 -56 10 -13 8
-15 -18 -15 -33 0 -57 -22 -48 -45 4 -12 23 -15 80 -15 l75 0 7 -60 c5 -46 11
-61 25 -65 32 -10 40 4 38 64 l-3 56 930 0 c597 0 1018 -5 1179 -13 539 -27
727 -32 1470 -37 424 -3 910 -11 1080 -16 171 -6 895 -14 1610 -18 1004 -5
1305 -9 1322 -19 29 -16 53 -5 53 24 0 17 -8 27 -25 34 -59 23 -419 30 -1500
30 -627 0 -1248 5 -1380 11 -132 5 -674 14 -1205 19 -531 5 -1044 14 -1140 19
-437 25 -813 32 -1577 32 l-823 -1 0 28 c0 26 10 33 168 107 92 43 248 116
347 161 281 128 328 159 284 187 -13 8 -49 -5 -162 -61 -79 -40 -147 -72 -151
-72 -3 0 -112 -50 -242 -111 -130 -61 -240 -107 -244 -102 -8 8 -21 317 -41
983 -9 278 -10 625 -3 1240 13 1247 11 1814 -9 2250 -26 577 -47 984 -52 998
-2 6 -16 12 -30 12 -24 0 -25 -3 -25 -52z"/>
<path d="M39127 15754 c-10 -10 -9 -410 3 -679 5 -127 14 -392 20 -590 6 -198
22 -486 35 -640 54 -620 85 -1105 94 -1484 5 -221 8 -245 24 -255 48 -29 57
64 37 379 -5 83 -16 281 -25 440 -8 160 -19 337 -25 395 -5 58 -14 175 -20
260 -6 85 -18 218 -26 295 -8 77 -19 259 -24 405 -5 146 -15 407 -21 580 -6
173 -14 446 -17 605 -7 282 -8 290 -27 293 -12 2 -24 0 -28 -4z"/>
<path d="M18180 15605 c-8 -10 -10 -37 -6 -87 3 -40 13 -266 21 -503 25 -713
35 -950 50 -1175 8 -118 19 -307 25 -420 14 -276 18 -307 37 -315 9 -3 22 0
30 7 11 11 9 74 -7 363 -11 193 -22 373 -25 400 -8 81 -24 446 -35 805 -15
496 -30 892 -36 918 -5 25 -35 30 -54 7z"/>
<path d="M23531 15133 c-19 -38 -93 -381 -94 -438 -1 -97 48 -146 160 -161 61
-8 105 10 162 67 91 91 105 206 34 289 -27 32 -60 39 -69 15 -4 -9 6 -34 22
-57 52 -74 29 -163 -59 -229 -39 -29 -102 -30 -150 -2 -32 19 -32 20 -31 94 1
50 14 128 43 243 31 128 38 172 30 182 -16 19 -36 17 -48 -3z"/>
<path d="M25661 14955 c-99 -132 -126 -225 -78 -280 57 -67 204 -28 252 66 31
59 8 112 -65 149 -49 25 -56 37 -35 60 22 24 16 54 -11 58 -15 2 -32 -12 -63
-53z m88 -128 c19 -12 36 -28 39 -35 7 -21 -61 -80 -101 -87 -73 -14 -86 39
-32 130 23 41 27 43 43 29 9 -8 32 -25 51 -37z"/>
<path d="M25413 14648 c-17 -13 -57 -52 -87 -88 -31 -36 -103 -109 -161 -164
-80 -74 -105 -104 -103 -120 2 -12 11 -22 24 -24 15 -2 64 42 192 173 95 96
176 175 182 175 33 0 107 -227 124 -379 10 -94 14 -107 33 -116 12 -5 23 -18
25 -30 3 -20 34 -30 211 -65 41 -8 60 -18 69 -33 17 -31 25 -714 9 -788 -13
-58 -1 -86 32 -73 33 12 39 95 35 484 -3 417 -4 422 -70 452 -18 9 -87 26
-154 39 l-121 23 -2 56 c-7 217 -113 500 -188 500 -10 0 -33 -10 -50 -22z"/>
<path d="M33369 14396 c-2 -2 -218 -10 -479 -16 -261 -7 -500 -15 -530 -19
-50 -6 -55 -8 -55 -31 l0 -25 205 3 c278 3 870 22 898 28 26 5 31 48 6 58 -18
7 -39 8 -45 2z"/>
<path d="M41122 14378 c-6 -9 -6 -94 0 -258 14 -360 2 -741 -47 -1500 -19
-296 -51 -990 -65 -1415 -6 -187 -15 -408 -20 -490 -6 -83 -14 -355 -20 -605
-12 -561 -29 -988 -72 -1865 -7 -149 -12 -654 -13 -1335 -1 -602 -4 -1111 -6
-1130 -5 -45 22 -53 48 -14 17 27 18 82 19 1089 0 944 8 1380 29 1685 3 41 10
183 16 315 30 714 39 991 39 1185 0 204 5 342 30 820 6 113 15 360 20 550 13
451 25 686 87 1685 22 337 25 1236 5 1273 -14 24 -34 29 -50 10z"/>
<path d="M25207 14236 c-60 -17 -80 -35 -130 -121 -57 -99 -179 -257 -262
-340 -39 -38 -126 -113 -195 -165 -126 -96 -152 -131 -104 -138 25 -4 238 156
334 249 78 77 212 247 278 355 26 43 59 84 72 91 39 20 144 17 163 -4 62 -70
92 -410 102 -1138 5 -425 13 -517 47 -539 13 -8 21 -7 29 1 10 10 10 30 1 90
-7 43 -12 179 -12 303 -1 358 -17 823 -35 975 -28 243 -53 330 -105 366 -34
24 -124 32 -183 15z"/>
<path d="M30894 14135 c-11 -27 3 -41 112 -107 387 -233 664 -404 707 -435 38
-28 53 -34 66 -26 49 31 15 58 -354 281 -132 80 -298 181 -369 224 -71 43
-135 78 -143 78 -7 0 -16 -7 -19 -15z"/>
<path d="M22210 14055 c-231 -40 -425 -88 -460 -113 -51 -38 -56 -61 -37 -159
26 -135 36 -163 55 -163 38 0 40 18 15 132 -25 116 -23 126 18 149 30 16 319
77 466 99 164 24 186 32 181 63 -2 14 -11 23 -23 24 -11 1 -108 -14 -215 -32z"/>
<path d="M22706 13955 c-8 -23 5 -354 15 -383 7 -17 15 -22 32 -20 22 3 22 3
18 163 -5 213 -10 249 -37 253 -13 2 -24 -4 -28 -13z"/>
<path d="M25673 13933 c-17 -6 -16 -53 2 -193 8 -63 28 -252 45 -420 36 -364
34 -352 63 -348 32 4 32 30 2 320 -63 622 -69 656 -112 641z"/>
<path d="M21842 13518 c-25 -30 8 -46 138 -67 347 -57 313 -55 1450 -56 1069
-1 1154 -4 1428 -41 61 -8 117 -12 122 -9 13 8 13 42 0 50 -13 8 -170 30 -330
46 -91 9 -413 13 -1180 14 -1096 1 -1096 1 -1400 46 -74 10 -153 22 -175 25
-29 4 -44 2 -53 -8z"/>
<path d="M21575 13439 c-158 -13 -368 -39 -392 -49 -13 -5 -23 -16 -23 -24 0
-32 23 -35 170 -16 80 10 215 24 300 30 164 12 197 22 170 54 -14 18 -58 19
-225 5z"/>
<path d="M25027 13313 c-133 -140 -217 -241 -217 -261 0 -16 17 -32 34 -32 2
0 63 68 136 150 74 83 137 150 141 150 5 0 14 -19 20 -42 14 -49 15 -261 7
-893 -3 -269 -2 -424 5 -432 14 -19 45 -16 56 5 6 12 7 73 0 173 -6 104 -6
268 2 504 6 193 9 413 6 490 -9 203 -28 255 -93 255 -28 0 -43 -11 -97 -67z"/>
<path d="M14593 13319 c-25 -7 -33 -15 -33 -33 0 -31 19 -37 67 -24 58 16 167
3 229 -27 153 -75 228 -283 178 -495 -38 -162 -178 -299 -341 -336 -70 -15
-80 -15 -135 0 -72 20 -183 75 -227 112 -66 55 -109 188 -96 297 12 112 76
260 151 352 48 59 53 88 17 93 -30 4 -106 -91 -155 -195 -94 -201 -101 -368
-20 -516 34 -63 85 -105 190 -156 117 -56 176 -68 265 -53 105 19 188 62 272
146 119 117 162 238 153 424 -14 259 -175 424 -412 421 -39 0 -86 -5 -103 -10z"/>
<path d="M30373 13271 c-109 -6 -136 -18 -117 -49 8 -11 23 -17 45 -16 158 7
400 3 428 -5 19 -6 52 -27 72 -47 41 -40 69 -41 69 -3 0 30 -66 91 -116 107
-46 16 -237 22 -381 13z"/>
<path d="M20683 13260 c-54 -11 -106 -36 -129 -61 -16 -18 -16 -21 -2 -35 14
-14 12 -19 -14 -47 -117 -125 -128 -439 -20 -559 45 -50 134 -92 227 -109 78
-13 180 -1 252 31 24 11 42 16 39 12 -2 -4 -76 -108 -164 -231 -201 -282 -197
-275 -176 -295 9 -9 21 -13 29 -9 7 5 100 130 205 278 223 312 276 382 378
487 75 78 88 110 46 116 -15 2 -41 -19 -93 -73 l-72 -76 8 38 c15 72 8 184
-16 245 -25 65 -124 178 -198 228 -78 51 -212 78 -300 60z m225 -91 c61 -26
176 -141 209 -208 22 -44 27 -69 27 -125 1 -103 -24 -167 -93 -237 -72 -73
-132 -93 -262 -87 -76 4 -97 9 -156 39 -91 46 -115 92 -121 225 -6 133 4 193
41 255 38 63 72 88 170 125 40 15 76 30 81 35 11 10 46 3 104 -22z"/>
<path d="M30147 13263 c-20 -19 2 -49 95 -128 56 -49 127 -100 158 -114 54
-26 57 -26 295 -26 213 0 244 -2 273 -18 40 -22 65 -16 60 15 -2 16 -18 31
-53 48 -45 22 -59 24 -140 20 -49 -2 -151 -4 -225 -4 -125 0 -139 2 -190 26
-30 14 -97 63 -148 107 -88 77 -110 90 -125 74z"/>
<path d="M22550 13169 c-188 -28 -523 -35 -739 -15 -105 10 -178 13 -184 7
-17 -17 -2 -45 28 -52 17 -4 122 -15 235 -24 234 -18 421 -11 690 26 136 18
187 20 420 16 146 -3 324 -12 395 -21 325 -38 570 -58 815 -66 154 -5 277 -13
294 -19 24 -10 32 -9 44 3 20 19 9 44 -25 57 -16 7 -140 15 -288 20 -143 4
-307 13 -365 19 -58 6 -195 20 -305 30 -110 11 -240 24 -290 30 -156 17 -582
10 -725 -11z"/>
<path d="M24857 12988 c-2 -7 -1 -56 4 -109 4 -53 15 -222 23 -375 35 -617 38
-640 82 -603 14 12 16 28 10 109 -3 52 -11 174 -16 270 -26 460 -43 696 -53
708 -5 6 -17 12 -27 12 -10 0 -20 -6 -23 -12z"/>
<path d="M24627 12947 c-66 -31 -339 -245 -352 -276 -6 -15 12 -41 29 -41 6 0
75 54 154 119 140 117 226 171 243 154 5 -5 14 -155 19 -334 6 -178 13 -390
17 -471 l6 -146 -33 -17 c-111 -57 -504 -536 -484 -588 14 -39 43 -16 122 96
44 63 107 147 141 189 63 78 235 248 252 248 5 0 9 -9 9 -19 0 -33 11 -51 31
-51 11 0 22 7 26 16 3 9 1 123 -6 253 -7 130 -16 369 -21 531 -8 297 -11 321
-38 353 -21 23 -36 21 -115 -16z"/>
<path d="M24077 12953 c-4 -3 -4 -37 0 -74 l6 -69 -61 25 c-137 55 -277 64
-772 45 -255 -10 -609 -46 -721 -75 -141 -35 -221 -92 -300 -213 -84 -129 -98
-205 -99 -543 0 -181 3 -229 14 -245 12 -15 18 -17 33 -8 17 10 18 33 20 280
2 148 7 292 13 321 26 122 126 260 223 307 72 35 147 52 332 75 251 32 405 40
755 42 299 1 331 -1 404 -20 129 -34 227 -103 272 -193 51 -101 120 -450 146
-742 11 -115 16 -141 31 -150 48 -29 50 57 6 364 -56 397 -101 548 -190 645
-37 40 -40 47 -48 127 -4 47 -11 91 -15 97 -8 12 -39 15 -49 4z"/>
<path d="M30410 12925 c-46 -56 53 -66 525 -56 140 3 173 -4 216 -45 30 -29
59 -23 59 10 0 28 -33 60 -85 83 -34 15 -64 17 -190 14 -291 -6 -371 -6 -441
1 -58 6 -74 5 -84 -7z"/>
<path d="M13906 12774 c-4 -12 29 -61 107 -158 62 -77 135 -168 160 -202 47
-60 94 -102 252 -221 99 -75 119 -96 145 -155 33 -76 39 -153 49 -643 6 -258
13 -502 16 -542 7 -78 25 -108 50 -82 11 12 12 88 5 449 -13 661 -20 749 -66
850 -33 72 -45 84 -206 206 -151 116 -140 104 -328 342 -99 126 -141 172 -156
172 -12 0 -25 -7 -28 -16z"/>
<path d="M16564 12716 c-66 -43 -143 -139 -191 -236 l-38 -75 -3 -230 c-2
-126 1 -261 5 -300 8 -66 9 -70 33 -70 l25 0 -4 271 c-4 305 -1 324 69 432 55
86 105 138 162 169 37 20 48 32 46 47 -5 33 -46 30 -104 -8z"/>
<path d="M19551 12536 c-19 -23 -6 -44 31 -50 31 -5 332 -31 499 -43 67 -5 77
-4 83 12 14 36 -13 44 -244 64 -124 12 -255 23 -291 27 -52 4 -68 3 -78 -10z"/>
<path d="M18590 12494 c-652 -45 -767 -58 -1144 -126 -73 -14 -102 -36 -78
-60 9 -9 68 -3 279 30 148 24 320 47 383 52 505 41 543 43 810 34 408 -12 374
-14 378 18 5 38 44 34 -468 52 -58 2 -130 2 -160 0z"/>
<path d="M21625 12320 c-143 -3 -261 -7 -262 -8 -10 -8 0 -51 13 -56 17 -7
493 2 530 10 12 2 24 10 27 19 7 16 -18 46 -36 43 -7 -1 -129 -5 -272 -8z"/>
<path d="M18780 12229 c-19 -12 -51 -35 -70 -52 -80 -70 -104 -117 -161 -315
-24 -81 -28 -107 -18 -118 17 -21 38 -17 49 9 5 12 21 65 36 117 49 178 103
259 212 314 25 13 32 23 30 39 -4 30 -35 32 -78 6z"/>
<path d="M17330 12139 c-90 -15 -140 -46 -178 -109 -37 -61 -39 -103 -7 -108
16 -2 26 10 48 53 33 67 70 92 149 101 63 7 88 25 72 52 -13 21 -19 21 -84 11z"/>
<path d="M20188 12018 c-58 -57 -130 -190 -132 -243 -1 -24 4 -31 22 -33 18
-3 26 4 38 35 45 110 80 167 128 209 43 37 49 47 40 62 -20 31 -41 24 -96 -30z"/>
<path d="M39292 11918 c-8 -8 -12 -51 -12 -128 0 -64 -4 -197 -10 -296 -5 -98
-14 -280 -20 -404 -12 -263 -23 -433 -52 -810 -18 -241 -20 -322 -14 -660 4
-212 11 -439 16 -505 5 -66 9 -558 9 -1093 1 -876 3 -973 17 -979 8 -3 23 2
32 11 16 15 17 90 16 949 0 684 -4 993 -14 1162 -21 329 -19 888 2 1145 21
241 44 605 58 918 5 122 15 321 20 442 8 157 8 225 0 240 -12 23 -30 26 -48 8z"/>
<path d="M20652 11892 c-20 -13 -13 -939 8 -952 8 -5 21 -5 28 -1 12 7 14 79
13 472 -2 491 -4 509 -49 481z"/>
<path d="M24728 11760 c-9 -6 -40 -40 -69 -77 -29 -38 -102 -125 -162 -195
-89 -104 -113 -126 -124 -116 -11 9 -18 7 -31 -6 -15 -15 -17 -37 -14 -174 2
-86 5 -164 8 -174 6 -20 28 -30 50 -21 15 6 16 22 11 145 -4 77 -3 138 2 138
10 0 162 178 280 328 40 51 82 97 93 103 25 14 20 53 -7 56 -11 2 -27 -2 -37
-7z"/>
<path d="M19175 11750 c-159 -4 -373 -12 -475 -18 -440 -26 -835 -35 -1189
-27 -543 13 -496 14 -496 -15 0 -21 6 -26 40 -32 22 -4 216 -10 432 -14 389
-7 953 5 1253 28 74 5 388 12 697 15 497 5 562 7 568 21 3 9 -1 22 -9 30 -18
18 -380 24 -821 12z"/>
<path d="M21207 11723 c-128 -3 -159 -6 -164 -18 -16 -43 -24 -43 830 -49 447
-4 839 -7 872 -9 51 -2 60 1 63 17 2 10 -1 23 -6 28 -28 28 -871 44 -1595 31z"/>
<path d="M22859 11684 c-50 -54 -188 -157 -294 -221 -60 -36 -193 -123 -295
-193 -102 -70 -232 -159 -290 -198 -59 -39 -216 -169 -356 -294 -138 -123
-277 -246 -310 -275 -50 -43 -57 -54 -48 -69 6 -10 15 -19 21 -21 12 -4 106
75 427 360 182 163 245 211 495 380 157 107 325 217 372 245 101 60 223 150
297 220 48 44 53 52 43 71 -15 28 -32 26 -62 -5z"/>
<path d="M15754 11560 c-54 -20 -184 -77 -289 -125 -104 -48 -287 -130 -405
-183 -207 -91 -233 -106 -227 -126 12 -39 27 -33 792 312 61 28 143 62 183 77
61 23 72 30 72 50 0 12 -6 25 -13 28 -8 3 -58 -12 -113 -33z"/>
<path d="M16322 11568 c-18 -18 -15 -36 7 -48 22 -11 198 -13 420 -3 l152 6
-3 26 -3 26 -280 3 c-210 2 -284 -1 -293 -10z"/>
<path d="M22889 11469 c-9 -9 -25 -19 -36 -21 -14 -2 -19 -16 -25 -58 -3 -30
-6 -359 -7 -730 -1 -371 -4 -760 -7 -865 l-6 -190 -511 -507 c-282 -279 -513
-505 -516 -503 -2 2 -7 168 -12 367 -4 200 -15 442 -23 538 -18 208 -41 537
-56 820 -6 113 -13 211 -15 218 -3 7 -15 12 -27 10 -23 -3 -23 -5 -21 -143 3
-162 27 -576 49 -814 19 -219 32 -531 35 -833 2 -161 9 -294 20 -385 20 -158
25 -179 46 -187 37 -15 75 41 47 69 -10 9 -19 56 -27 131 l-11 117 513 508
c315 311 519 505 528 502 21 -8 43 17 43 48 0 16 5 38 12 48 6 10 8 26 4 36
-8 23 -8 930 0 1415 l7 366 116 -12 c327 -33 575 -47 876 -48 l320 -1 3 22 c3
17 -3 26 -23 33 -15 6 -148 10 -318 10 -275 0 -506 12 -828 43 -122 12 -134
12 -150 -4z"/>
<path d="M23119 11304 c-9 -11 -10 -20 -2 -32 9 -15 56 -18 464 -24 250 -4
506 -11 569 -16 63 -5 121 -7 128 -4 7 2 12 16 10 31 -4 37 -24 39 -458 50
-563 15 -695 14 -711 -5z"/>
<path d="M12315 10273 c-198 -7 -758 -64 -912 -93 -245 -44 -352 -58 -538 -70
-93 -6 -210 -15 -258 -21 -48 -6 -170 -14 -270 -17 l-182 -7 0 -25 0 -25 120
-3 c66 -2 174 2 240 8 66 5 181 15 255 20 282 21 371 32 590 70 272 48 674 87
1040 101 349 14 1963 6 2080 -10 131 -18 141 -18 153 1 19 28 -5 41 -106 56
-73 11 -300 15 -1107 16 -558 2 -1055 1 -1105 -1z"/>
<path d="M16545 10213 c-33 -2 -121 -8 -195 -14 -124 -10 -310 -15 -1193 -35
-320 -7 -348 -12 -317 -49 10 -12 45 -15 194 -15 263 1 1234 29 1351 40 132
12 501 12 594 0 98 -13 152 -40 194 -98 53 -73 62 -110 60 -257 -1 -71 -4
-359 -6 -640 -3 -360 -7 -518 -16 -539 -21 -51 -84 -138 -108 -149 -26 -12
-31 -45 -8 -53 33 -13 65 7 110 70 83 116 80 94 80 591 0 242 4 521 9 620 10
198 2 263 -39 345 -34 68 -112 136 -176 154 -93 27 -330 40 -534 29z"/>
<path d="M19981 10205 c-46 -7 -134 -17 -195 -21 -121 -7 -156 -16 -156 -38 0
-34 23 -37 191 -21 90 8 191 19 224 25 85 14 148 13 142 -2 -2 -7 0 -21 5 -30
14 -27 -15 -72 -101 -157 -42 -42 -97 -103 -121 -135 -35 -46 -71 -77 -159
-133 -174 -113 -261 -181 -261 -202 0 -33 31 -34 74 -1 23 16 111 77 196 134
119 80 164 117 195 158 21 29 83 99 136 154 104 108 124 148 100 200 -11 24
-10 24 47 24 85 -1 198 -17 231 -34 35 -19 44 -55 22 -98 -22 -45 -131 -134
-236 -192 -54 -30 -121 -80 -174 -130 -48 -45 -141 -124 -206 -177 -118 -95
-215 -189 -249 -240 -30 -47 -37 -136 -46 -629 -15 -783 -33 -922 -140 -1044
-67 -76 -178 -104 -237 -59 -39 28 -52 83 -64 278 -14 216 -7 421 25 705 15
124 31 290 37 370 13 187 35 311 63 352 51 77 143 99 234 58 85 -39 102 18 18
59 -64 32 -153 34 -211 4 -110 -57 -143 -147 -165 -448 -6 -83 -24 -273 -40
-423 -32 -296 -38 -522 -20 -747 13 -152 31 -215 70 -249 118 -99 311 -26 395
148 69 144 82 271 95 941 9 475 15 591 31 634 15 37 125 146 257 253 67 54
157 131 200 171 42 40 115 94 162 121 108 62 213 146 248 198 57 88 25 177
-77 214 -63 23 -419 29 -540 9z"/>
<path d="M20720 10194 c-93 -16 -110 -25 -94 -52 12 -18 19 -19 155 -7 85 8
87 7 100 -16 11 -20 14 -143 14 -669 0 -355 3 -650 7 -656 4 -6 12 -107 18
-225 23 -482 47 -793 69 -902 11 -52 15 -90 9 -93 -5 -3 -41 -49 -80 -102 -80
-108 -229 -272 -513 -562 -211 -215 -318 -336 -312 -353 2 -6 11 -15 20 -21
15 -9 28 0 79 59 34 39 144 153 243 255 271 276 453 475 519 567 33 45 62 80
66 78 23 -14 15 -488 -10 -602 -6 -23 -7 -49 -4 -57 8 -22 41 -20 53 3 22 40
35 216 35 471 1 254 0 267 -21 305 -31 58 -51 215 -63 492 -12 288 -26 522
-40 663 -6 62 -10 346 -9 690 1 682 -1 704 -76 736 -41 17 -53 16 -165 -2z"/>
<path d="M17970 10175 c-289 -25 -592 -82 -629 -119 -14 -15 -14 -18 1 -32 15
-15 24 -14 120 10 151 38 327 63 554 80 186 14 313 10 344 -9 13 -8 40 24 34
40 -16 39 -176 51 -424 30z"/>
<path d="M18900 10175 c-7 -8 -10 -21 -7 -28 5 -14 263 -125 416 -179 92 -33
117 -35 361 -26 129 4 135 6 138 26 6 37 -36 45 -183 37 -227 -13 -221 -15
-515 108 -197 81 -194 81 -210 62z"/>
<path d="M18618 10157 c-26 -13 -67 -40 -92 -60 -49 -41 -182 -196 -223 -260
-36 -57 -324 -741 -362 -860 -43 -135 -73 -288 -65 -337 12 -72 52 -107 154
-130 207 -47 391 -132 510 -236 91 -80 193 -149 251 -170 26 -10 78 -17 129
-18 74 -1 89 2 118 23 23 16 32 30 30 44 -4 28 -34 33 -60 10 -26 -23 -124
-23 -194 1 -52 18 -147 83 -260 178 -111 95 -273 169 -472 218 -122 30 -142
46 -142 113 0 84 53 280 123 452 171 420 270 644 315 710 26 38 87 110 137
161 72 72 101 95 145 111 45 17 55 25 55 44 0 33 -37 35 -97 6z"/>
<path d="M37825 10123 c-16 -2 -77 -10 -135 -18 -154 -22 -430 -44 -720 -56
-434 -19 -2653 2 -3530 33 -201 7 -612 12 -914 11 -474 -1 -551 -3 -564 -16
-8 -9 -12 -23 -8 -33 6 -15 36 -16 434 -9 322 5 530 3 847 -9 680 -26 1322
-37 2475 -43 727 -4 1161 -2 1315 6 253 12 559 36 645 51 30 5 97 14 149 19
102 11 135 27 111 55 -12 15 -37 17 -105 9z"/>
<path d="M7285 10094 c-11 -3 -60 -14 -110 -26 -270 -62 -681 -189 -1100 -341
-192 -69 -580 -265 -580 -293 0 -42 49 -27 261 82 216 110 278 134 724 284
419 140 789 240 890 240 87 0 138 -44 181 -158 36 -98 48 -189 59 -452 10
-237 35 -523 63 -707 11 -69 15 -78 35 -81 13 -2 24 3 28 12 3 9 -6 111 -21
228 -15 124 -30 311 -36 448 -5 129 -14 280 -19 335 -20 196 -78 343 -158 399
-36 25 -52 30 -119 32 -43 2 -87 1 -98 -2z"/>
<path d="M12238 10081 c-104 -6 -131 -18 -112 -49 10 -15 25 -16 135 -12 68 3
212 5 319 4 l195 0 175 -47 c154 -40 177 -44 190 -31 32 31 0 47 -196 96
l-189 47 -210 -1 c-115 -1 -254 -4 -307 -7z"/>
<path d="M13581 10066 c-6 -7 -9 -20 -6 -28 5 -13 80 -16 502 -22 303 -4 500
-3 506 3 5 5 7 17 5 27 -3 17 -18 20 -178 25 -96 4 -320 7 -496 8 -262 1 -324
-2 -333 -13z"/>
<path d="M11145 10029 c-115 -15 -254 -31 -308 -35 -103 -6 -123 -17 -96 -50
18 -21 142 -14 444 26 121 16 243 31 270 32 46 3 50 5 50 28 0 24 -2 25 -75
27 -41 1 -169 -12 -285 -28z"/>
<path d="M13475 10038 c-29 -82 -71 -328 -95 -559 -11 -107 -31 -279 -45 -384
-44 -343 -60 -761 -31 -830 25 -58 52 -69 164 -61 53 4 108 9 122 12 14 3 -51
-28 -145 -69 -291 -126 -454 -210 -611 -316 -201 -135 -273 -197 -361 -311
-109 -143 -140 -208 -169 -357 -14 -70 -22 -133 -20 -140 9 -21 46 -15 56 10
5 12 16 65 25 118 19 113 45 172 122 282 90 130 179 211 368 336 204 136 503
284 835 411 49 19 62 31 57 52 -4 14 4 20 36 29 95 25 197 93 197 131 0 32
-27 31 -79 -6 -28 -19 -76 -44 -106 -55 -70 -26 -227 -58 -331 -67 -81 -6 -82
-6 -100 21 -17 26 -17 44 -6 309 8 198 22 364 46 561 19 154 41 345 50 424 9
79 28 201 43 270 35 163 35 195 5 199 -12 2 -24 -3 -27 -10z"/>
<path d="M11795 9983 c-118 -150 -207 -407 -320 -923 -51 -232 -115 -577 -115
-617 0 -76 33 -91 144 -68 41 8 143 19 227 24 229 15 437 -5 724 -69 214 -47
438 -69 540 -53 45 7 50 11 53 35 l3 27 -140 0 c-162 0 -253 11 -441 53 -250
55 -386 71 -605 71 -141 1 -235 -5 -318 -17 -65 -10 -121 -15 -124 -12 -14 13
130 720 198 971 72 268 144 441 225 540 48 59 53 88 17 93 -16 2 -33 -11 -68
-55z"/>
<path d="M20749 9938 c-123 -140 -355 -371 -469 -468 -159 -135 -264 -244
-257 -264 16 -41 39 -29 145 76 59 58 148 139 197 181 96 80 266 250 409 409
89 98 103 130 60 136 -15 2 -38 -17 -85 -70z"/>
<path d="M10593 9928 c-17 -22 -73 -405 -143 -976 -11 -95 -32 -243 -46 -330
-14 -86 -28 -182 -31 -212 l-5 -55 -33 31 c-25 23 -61 39 -145 64 -154 45
-255 58 -535 70 -132 6 -278 15 -325 22 -126 16 -741 10 -1088 -11 -307 -19
-323 -22 -301 -63 11 -20 33 -20 339 3 210 16 913 23 1010 10 47 -6 186 -16
310 -21 297 -13 414 -27 538 -61 125 -35 159 -52 174 -85 26 -57 -57 -111
-296 -194 -209 -72 -324 -125 -530 -243 -194 -110 -272 -170 -261 -199 11 -28
44 -21 85 16 48 43 356 217 490 277 58 25 172 70 254 98 239 83 312 130 323
209 5 39 7 41 33 35 17 -3 55 4 92 16 99 33 248 51 421 51 173 0 281 16 357
54 30 15 46 30 48 44 5 30 -23 39 -57 19 -62 -36 -143 -48 -386 -57 -211 -7
-253 -12 -343 -35 -57 -15 -105 -25 -107 -23 -2 2 13 118 35 258 21 140 48
341 59 445 12 105 40 316 62 470 56 383 54 366 38 376 -19 12 -25 11 -36 -3z"/>
<path d="M16107 9933 c-5 -9 11 -487 19 -570 6 -54 21 -70 48 -50 15 11 15 38
6 287 -13 338 -14 340 -45 340 -13 0 -26 -3 -28 -7z"/>
<path d="M5240 9573 c-160 -76 -212 -118 -255 -207 -19 -39 -40 -95 -45 -125
-13 -72 -12 -316 4 -476 l12 -130 -33 -31 c-18 -17 -33 -39 -33 -48 0 -22 -13
-20 -28 4 -25 41 -68 20 -118 -58 -2 -2 -24 12 -50 32 -67 52 -103 47 -144
-19 -19 -31 -26 -35 -49 -30 -15 3 -34 0 -45 -8 -17 -12 -25 -10 -68 20 -72
48 -88 45 -127 -20 -19 -31 -28 -37 -45 -32 -75 24 -109 13 -132 -41 -9 -22
-26 -39 -48 -48 -42 -17 -61 -48 -47 -75 17 -31 112 -111 132 -111 40 0 34 31
-15 78 -26 24 -46 45 -44 46 2 1 16 10 31 20 16 10 35 33 43 52 16 39 15 39
56 18 39 -20 80 -5 109 42 11 19 24 34 27 34 4 0 25 -13 47 -28 l40 -27 3 -75
3 -75 -45 -24 c-51 -26 -64 -48 -41 -70 14 -15 19 -14 55 7 21 12 41 22 44 22
2 0 6 -10 8 -22 3 -20 8 -23 40 -21 34 2 38 -1 48 -32 9 -27 17 -35 35 -35 31
0 38 23 19 71 -12 28 -28 46 -55 59 -39 20 -45 36 -50 135 -4 71 -2 75 41 75
35 0 42 4 70 45 34 50 44 50 89 1 35 -37 81 -35 114 4 16 19 35 30 51 30 14 0
27 6 28 13 1 6 4 -13 7 -43 7 -62 12 -55 -142 -211 -67 -69 -76 -82 -67 -99 6
-11 17 -20 24 -20 15 0 146 125 186 178 l25 32 47 -14 c42 -13 49 -13 62 0 23
23 9 41 -46 60 -36 12 -47 19 -39 27 6 6 11 29 11 52 0 22 6 51 13 65 11 20
19 24 47 22 77 -6 92 -4 113 15 43 40 62 45 91 22 31 -24 33 -54 9 -105 -17
-34 -17 -37 0 -49 17 -12 16 -14 -9 -34 -15 -12 -38 -21 -51 -21 -65 0 -88
-42 -98 -181 -6 -83 -5 -97 9 -102 34 -13 44 3 51 81 9 124 15 136 58 143 21
3 51 16 68 28 l30 22 67 -27 c72 -29 147 -85 147 -111 0 -9 8 -21 18 -27 15
-9 21 -7 33 8 27 37 17 62 -43 112 -32 26 -69 51 -83 57 -14 6 -26 12 -27 12
-2 1 4 24 12 52 21 71 75 135 75 88 0 -25 36 -54 60 -48 25 7 75 -36 84 -73 4
-13 20 -31 37 -39 39 -21 38 -58 -3 -63 -37 -4 -55 -28 -40 -52 9 -14 8 -21
-3 -30 -19 -16 -19 -56 -1 -63 8 -3 22 1 33 8 25 20 33 18 33 -6 0 -12 14 -37
30 -56 17 -18 30 -38 30 -43 0 -5 -19 -22 -42 -36 -24 -15 -62 -44 -85 -65
-23 -21 -54 -41 -70 -44 -47 -11 -53 -14 -59 -30 -10 -26 14 -45 49 -38 46 8
80 28 136 76 27 23 64 51 82 62 58 35 63 95 15 152 -32 38 -42 107 -22 154 8
20 12 47 9 60 -7 28 -41 69 -59 69 -6 0 -15 11 -18 24 -7 30 -80 96 -106 96
-12 0 -25 10 -32 24 -13 29 -58 50 -87 41 -42 -13 -92 -91 -116 -181 -2 -6
-17 -9 -35 -6 -24 3 -30 8 -24 21 36 86 37 114 2 164 -44 62 -110 70 -175 21
-23 -18 -41 -24 -57 -20 -20 5 -23 12 -25 58 -1 29 -6 103 -11 163 -15 164
-12 322 5 390 24 89 72 172 120 205 23 16 90 52 148 80 91 43 107 54 107 74 0
13 -6 26 -13 29 -7 2 -64 -20 -127 -50z"/>
<path d="M22364 8977 c-441 -438 -516 -516 -513 -537 2 -14 11 -26 20 -28 23
-4 1073 1043 1065 1063 -3 8 -17 15 -31 15 -19 0 -134 -108 -541 -513z"/>
<path d="M5389 9438 c-40 -55 -81 -143 -110 -238 -22 -74 -22 -79 -11 -265 13
-196 20 -223 56 -209 17 6 17 17 10 148 -15 235 -12 269 27 371 19 50 52 116
73 148 21 32 36 64 32 72 -10 28 -45 16 -77 -27z"/>
<path d="M4750 9437 c-41 -13 -88 -32 -105 -44 -16 -11 -52 -27 -80 -34 -70
-18 -125 -76 -148 -154 -10 -33 -24 -136 -32 -230 -7 -93 -17 -207 -21 -252
-6 -72 -5 -83 10 -89 9 -3 22 -1 30 5 15 13 20 47 41 304 18 230 27 268 74
317 44 46 100 60 236 60 85 0 94 2 100 20 9 27 -1 40 -32 40 -35 0 -26 7 16
13 40 7 54 24 40 49 -12 23 -37 22 -129 -5z"/>
<path d="M15636 9374 c-38 -8 -105 -29 -150 -45 -44 -16 -150 -50 -234 -74
-119 -34 -189 -62 -315 -126 -300 -150 -397 -221 -569 -412 -209 -233 -317
-406 -593 -947 -105 -206 -208 -402 -228 -436 l-36 -61 -78 -7 c-43 -4 -240
-9 -438 -12 -208 -3 -364 -9 -370 -15 -6 -6 -6 -16 1 -27 10 -16 43 -17 423
-15 226 1 411 0 411 -3 0 -5 -233 -411 -351 -611 -70 -120 -85 -139 -91 -122
l-8 21 -603 -5 c-584 -5 -759 -11 -1127 -42 -96 -8 -254 -19 -350 -25 -290
-17 -428 -34 -551 -65 l-26 -6 -7 93 c-6 88 -49 518 -62 632 l-6 52 58 26 c33
15 89 38 126 53 70 28 88 49 64 73 -13 14 -26 11 -108 -23 -112 -46 -816 -394
-1088 -537 -108 -57 -261 -134 -340 -172 -246 -117 -710 -341 -810 -391 -52
-26 -205 -91 -340 -145 -257 -102 -420 -149 -595 -170 -49 -6 -171 -29 -270
-52 -99 -22 -190 -43 -203 -46 -20 -4 -22 -1 -18 19 10 40 34 311 47 526 22
347 -5 488 -112 595 -61 62 -82 70 -99 39 -8 -17 -2 -27 45 -72 38 -36 61 -68
75 -106 28 -75 43 -227 35 -353 -14 -223 -36 -499 -46 -575 -16 -123 -75 -416
-129 -639 -27 -110 -56 -239 -65 -286 -9 -47 -59 -258 -110 -470 -89 -365
-115 -491 -185 -915 -17 -99 -46 -261 -65 -360 -19 -99 -53 -301 -75 -450 -22
-148 -45 -295 -50 -325 -5 -30 -12 -84 -15 -120 -4 -36 -17 -144 -30 -240 -14
-96 -38 -292 -54 -435 -16 -143 -48 -356 -70 -472 -77 -401 -171 -995 -171
-1075 0 -13 8 -18 30 -18 17 0 30 4 30 8 0 68 102 703 184 1142 19 102 46 293
61 425 14 132 41 346 60 475 18 129 36 262 40 295 13 130 88 608 116 745 16
80 40 215 54 300 63 394 112 642 194 980 49 201 104 433 121 515 17 83 47 211
65 285 19 74 50 214 70 310 19 96 40 177 46 181 20 12 434 99 519 109 271 32
671 183 1280 483 431 212 431 212 424 193 -14 -37 67 -48 486 -66 134 -6 309
-17 389 -25 106 -11 148 -12 158 -4 56 47 -73 70 -509 89 -229 10 -316 15
-432 26 l-58 6 268 139 c312 162 835 422 839 417 10 -12 25 -532 30 -1058 5
-563 21 -947 41 -1012 14 -45 67 -18 59 30 -20 112 -27 310 -35 957 -7 636
-19 1030 -34 1098 -4 14 19 37 37 37 18 0 78 -686 87 -1005 13 -415 40 -773
76 -997 6 -40 30 -56 51 -35 12 12 12 32 -1 133 -26 198 -45 429 -51 614 -3
96 -8 247 -11 335 -6 152 -5 161 13 161 10 0 72 10 138 22 66 11 201 26 300
32 99 6 235 15 303 20 320 25 381 30 577 40 116 7 460 15 767 19 l556 6 -60
-115 c-87 -165 -129 -242 -149 -270 -9 -14 -47 -72 -83 -130 -107 -170 -314
-376 -457 -457 -157 -89 -337 -146 -521 -163 -112 -11 -225 -42 -319 -89 -57
-28 -196 -128 -258 -185 -105 -98 -311 -418 -355 -554 -39 -121 -47 -175 -55
-362 -8 -173 -4 -210 23 -210 28 0 34 29 39 200 9 261 37 358 160 565 125 210
194 291 334 395 153 115 247 153 435 175 205 24 374 77 538 167 76 42 221 161
313 257 139 145 211 255 398 606 64 121 166 303 226 405 60 102 156 267 213
366 l104 182 50 8 c45 8 51 12 51 34 0 19 -6 26 -26 30 l-26 5 64 115 c35 63
129 246 209 405 250 498 392 712 629 951 140 140 186 172 436 299 133 68 216
103 295 125 60 17 174 53 254 80 290 98 394 91 663 -47 48 -25 86 -47 84 -49
-2 -2 -30 1 -63 6 -205 34 -581 -27 -799 -129 -115 -54 -201 -109 -333 -214
-179 -141 -251 -210 -378 -362 -64 -77 -175 -206 -247 -287 -320 -363 -380
-453 -1122 -1684 -133 -220 -284 -466 -337 -545 -52 -79 -128 -200 -168 -269
-157 -269 -241 -369 -348 -417 -31 -14 -115 -45 -187 -69 -71 -24 -189 -64
-262 -89 -73 -25 -199 -58 -280 -74 -267 -53 -394 -109 -534 -233 -136 -122
-184 -179 -234 -282 -67 -136 -80 -196 -79 -361 1 -218 28 -317 172 -645 33
-74 100 -243 149 -375 53 -140 159 -388 255 -595 91 -195 196 -431 233 -523
60 -148 70 -168 89 -165 12 2 22 11 24 23 1 11 -33 108 -77 215 -74 184 -120
286 -298 665 -42 88 -115 266 -164 396 -48 130 -114 294 -145 365 -135 309
-158 383 -172 549 -15 182 6 303 76 440 28 55 61 95 158 191 80 79 143 131
182 152 81 43 248 98 360 117 111 19 297 71 402 113 41 16 122 44 179 62 139
43 239 90 291 136 62 56 149 177 248 344 47 80 128 210 181 290 52 80 203 325
336 545 273 452 545 899 642 1055 125 200 290 417 495 647 68 76 176 201 240
278 125 150 177 199 358 342 251 197 437 278 743 323 285 42 442 15 546 -94
118 -126 142 -256 106 -590 -8 -76 -19 -255 -25 -398 -10 -264 -19 -362 -65
-748 -66 -548 -148 -1079 -206 -1325 -28 -121 -63 -335 -114 -690 -53 -373
-79 -508 -140 -726 -93 -335 -157 -663 -210 -1065 -40 -310 -71 -424 -141
-530 -58 -87 -345 -372 -431 -427 -157 -101 -252 -145 -388 -177 -192 -46
-285 -76 -400 -129 -140 -66 -202 -85 -400 -124 -118 -24 -202 -47 -274 -76
-122 -50 -259 -75 -482 -91 -835 -58 -801 -57 -941 -38 -75 10 -91 10 -98 -2
-17 -28 7 -47 79 -58 123 -21 285 -15 994 38 208 16 349 43 468 91 72 29 161
53 289 79 190 39 253 59 400 128 103 48 205 80 365 116 137 31 263 88 416 187
71 47 133 101 252 223 87 88 178 190 202 226 77 116 110 237 150 541 55 420
116 729 220 1109 56 205 83 344 135 720 22 162 59 382 80 489 22 106 40 205
40 219 0 24 2 24 48 18 266 -35 832 -44 1369 -22 216 9 441 21 500 27 60 5
304 14 543 19 542 12 781 24 984 50 155 20 186 29 186 55 0 33 -25 35 -176 15
-196 -27 -415 -38 -954 -50 -245 -5 -497 -14 -560 -20 -439 -36 -1557 -50
-1802 -21 -65 7 -118 16 -118 20 0 3 18 107 40 231 53 295 98 628 170 1255 11
93 25 287 30 430 6 143 17 325 25 404 18 171 19 360 4 433 -15 69 -57 152
-107 208 -21 25 -42 55 -46 67 -10 33 -84 103 -149 141 -95 57 -271 131 -338
141 -86 14 -170 12 -253 -5z"/>
<path d="M19919 9124 c-10 -13 -11 -119 0 -602 6 -323 11 -877 11 -1231 -1
-568 1 -646 15 -667 16 -25 24 -28 40 -16 7 5 8 343 4 1002 -8 1115 -16 1511
-33 1522 -16 11 -22 10 -37 -8z"/>
<path d="M17347 8604 c-18 -19 -5 -45 36 -66 39 -21 55 -23 204 -23 138 0 165
2 179 17 9 9 14 23 11 31 -5 13 -28 14 -149 10 -119 -4 -151 -2 -188 12 -62
23 -84 28 -93 19z"/>
<path d="M7452 8505 c-52 -14 -157 -46 -235 -71 -301 -99 -422 -150 -754 -322
-520 -269 -658 -346 -658 -367 0 -46 28 -38 200 55 267 145 794 416 855 440
130 52 415 150 540 185 117 34 149 39 240 40 58 0 120 -2 139 -5 44 -7 65 20
38 47 -15 15 -38 18 -145 20 -108 2 -141 -1 -220 -22z"/>
<path d="M17440 8321 c-193 -83 -367 -173 -443 -231 -111 -84 -302 -317 -391
-476 -50 -89 -56 -127 -21 -132 16 -2 31 17 74 98 92 170 291 406 410 484 82
55 269 148 425 212 65 27 121 55 123 62 6 14 -14 42 -31 42 -6 0 -72 -27 -146
-59z"/>
<path d="M21631 8276 c-8 -9 -8 -42 -1 -122 30 -316 31 -319 66 -312 15 3 19
12 19 48 -1 57 -24 347 -31 378 -5 25 -35 30 -53 8z"/>
<path d="M4180 8170 c-86 -58 -127 -99 -136 -135 -5 -20 1 -33 28 -63 22 -25
40 -60 52 -101 23 -83 54 -115 104 -108 20 3 58 13 84 23 45 18 48 18 97 0 57
-20 82 -16 111 21 37 47 19 136 -25 119 -9 -3 -15 -18 -15 -39 0 -47 -15 -58
-56 -41 -46 19 -101 17 -153 -7 -25 -11 -50 -18 -57 -15 -7 3 -22 36 -34 75
-11 39 -32 84 -47 101 -25 30 -25 31 -7 51 10 11 54 43 97 71 61 40 77 56 75
72 -5 36 -40 29 -118 -24z"/>
<path d="M5280 8191 c-83 -57 -144 -116 -137 -135 13 -34 36 -29 94 21 90 75
92 77 142 83 41 4 46 8 46 30 0 23 -4 25 -50 28 -42 2 -57 -2 -95 -27z"/>
<path d="M3927 8140 c-96 -37 -109 -66 -67 -148 27 -54 28 -60 18 -115 -18
-93 8 -122 123 -134 49 -5 60 -3 65 11 10 26 -13 44 -64 51 -70 9 -76 15 -63
61 16 59 13 86 -14 138 -14 26 -23 51 -20 56 3 5 27 16 54 25 52 17 69 38 50
61 -15 18 -24 17 -82 -6z"/>
<path d="M4868 8133 c-36 -9 -28 -63 11 -63 28 0 125 -41 150 -63 13 -12 30
-37 38 -56 13 -29 12 -35 -2 -51 -9 -10 -32 -26 -51 -35 -30 -14 -36 -14 -63
0 -36 18 -60 11 -96 -32 -32 -40 -46 -41 -89 -8 -38 29 -56 31 -96 10 -29 -15
-30 -15 -20 9 5 14 39 74 75 135 68 113 76 145 33 139 -16 -2 -37 -27 -71 -81
-102 -165 -129 -242 -102 -284 21 -31 51 -29 92 7 l34 30 32 -24 c18 -13 42
-27 54 -30 27 -9 74 14 101 49 18 22 23 24 45 14 36 -16 85 -4 139 36 59 43
69 82 41 146 -22 50 -80 106 -121 115 -15 4 -44 15 -64 25 -38 19 -41 20 -70
12z"/>
<path d="M5183 8023 c-19 -7 -16 -41 5 -51 24 -13 140 -32 194 -32 49 0 72 17
62 44 -4 11 -19 16 -49 16 -24 0 -79 7 -122 15 -43 8 -78 15 -78 14 0 0 -6 -3
-12 -6z"/>
<path d="M5618 7839 c-2 -6 2 -83 10 -172 17 -203 10 -546 -13 -667 -21 -109
-57 -177 -110 -207 -21 -12 -87 -33 -145 -47 -58 -14 -154 -37 -215 -52 -92
-22 -140 -27 -295 -31 -259 -7 -403 18 -466 81 -39 39 -48 91 -63 366 -9 170
-42 474 -57 522 -7 24 -36 32 -50 14 -7 -10 -8 -32 -3 -63 12 -75 12 -78 -7
-62 -26 22 -189 15 -344 -15 -74 -14 -292 -52 -485 -85 -430 -74 -510 -94
-750 -180 -104 -38 -208 -74 -230 -81 -22 -7 -101 -39 -175 -70 -74 -32 -196
-79 -270 -105 -74 -27 -209 -79 -300 -117 -91 -38 -221 -92 -290 -120 -69 -27
-201 -83 -295 -123 -93 -40 -250 -98 -348 -129 -150 -48 -218 -77 -447 -192
-260 -131 -270 -137 -270 -165 0 -16 4 -29 9 -29 11 0 199 91 406 197 100 51
192 87 320 128 99 32 252 89 340 127 88 38 198 84 245 103 47 18 173 70 280
115 107 46 274 111 370 146 96 34 221 83 278 108 56 25 155 64 220 85 64 22
171 60 237 84 193 72 252 84 1175 242 74 13 183 25 241 27 l107 3 11 -105 c7
-58 18 -206 26 -330 15 -252 27 -302 81 -349 19 -17 69 -42 116 -58 82 -27 87
-27 333 -28 250 0 250 0 390 33 359 86 392 101 443 202 18 36 39 99 48 140 21
106 30 483 15 674 -15 194 -16 196 -45 196 -14 0 -26 -5 -28 -11z"/>
<path d="M19674 7685 c-3 -8 -1 -61 5 -119 7 -57 16 -202 21 -321 13 -299 31
-397 91 -516 l29 -58 -39 14 c-58 20 -258 52 -412 66 -192 17 -866 -2 -1101
-31 -81 -9 -234 -18 -703 -40 -126 -6 -281 -18 -345 -26 -63 -9 -232 -18 -375
-20 -143 -3 -270 -7 -283 -10 -17 -3 -22 -10 -20 -27 3 -19 11 -23 73 -30 81
-10 451 6 630 27 66 8 183 17 260 21 382 17 707 36 784 45 328 37 1001 46
1206 16 179 -26 263 -45 317 -72 59 -30 74 -55 53 -87 -14 -22 -23 -24 -143
-30 -70 -4 -183 -7 -252 -7 -250 0 -1448 -53 -1960 -87 -192 -12 -327 -14
-625 -9 -209 3 -410 9 -446 12 -57 5 -67 4 -73 -12 -13 -33 15 -43 148 -54
188 -15 804 -12 1056 4 259 18 541 32 870 46 135 5 355 14 490 20 135 5 337
12 450 15 113 3 269 8 348 11 l143 6 34 37 c40 42 45 80 16 124 -10 16 -17 37
-14 47 3 10 -10 38 -30 67 -42 58 -81 169 -96 273 -6 41 -15 176 -21 299 -10
219 -25 395 -36 412 -9 14 -44 10 -50 -6z"/>
<path d="M4961 7646 c-23 -28 -2 -44 69 -51 66 -7 71 -9 112 -54 24 -26 57
-64 73 -85 32 -40 65 -43 65 -4 0 21 -68 114 -116 160 -45 42 -178 64 -203 34z"/>
<path d="M6965 7623 c-96 -4 -503 -31 -650 -43 -66 -5 -220 -10 -343 -10 -189
0 -223 -2 -228 -15 -4 -8 0 -23 7 -31 12 -15 46 -16 324 -11 170 3 353 10 405
16 295 30 524 36 1460 36 914 -1 1540 -13 1755 -35 55 -5 154 -14 220 -19 180
-15 485 -71 485 -89 0 -8 -628 -326 -870 -440 -91 -43 -235 -117 -320 -164
-193 -107 -304 -162 -445 -223 -60 -26 -229 -105 -375 -176 -200 -96 -304
-141 -425 -179 -88 -28 -245 -80 -350 -116 -268 -90 -354 -111 -574 -139 -106
-14 -197 -28 -202 -31 -13 -8 -11 -30 5 -43 17 -14 309 18 446 49 78 18 587
180 790 252 47 16 200 85 340 153 140 68 309 147 375 175 152 67 240 111 445
223 91 50 239 126 330 169 91 43 341 166 555 273 215 107 400 197 412 200 20
5 21 3 16 -35 -5 -37 -4 -40 19 -40 45 0 65 83 28 120 -25 25 -46 25 -112 0
-61 -23 -61 -23 -54 -11 10 16 -5 39 -32 50 -72 28 -302 68 -462 81 -63 6
-162 15 -220 21 -200 20 -710 30 -1695 33 -544 1 -1021 1 -1060 -1z"/>
<path d="M38262 7608 c-7 -7 -12 -17 -12 -24 0 -15 177 -173 475 -424 127
-106 262 -224 301 -262 72 -71 105 -84 112 -44 6 27 -51 81 -338 324 -140 119
-312 267 -383 329 -70 62 -131 113 -135 113 -4 0 -13 -5 -20 -12z"/>
<path d="M4674 7465 c-10 -25 5 -192 26 -294 20 -97 45 -149 85 -175 39 -26
143 -48 225 -50 104 -1 155 25 209 104 54 82 78 145 61 165 -23 28 -40 16 -69
-50 -38 -84 -75 -131 -113 -144 -79 -28 -255 -1 -295 44 -27 30 -51 134 -66
291 -11 112 -13 119 -35 122 -13 2 -25 -3 -28 -13z"/>
<path d="M11223 7339 c-222 -5 -418 -12 -435 -17 -33 -8 -49 -35 -31 -53 4 -4
127 -4 273 1 146 5 438 12 650 14 l385 5 0 22 c0 16 -8 25 -25 30 -32 9 -303
8 -817 -2z"/>
<path d="M19185 7329 c-38 -4 -338 -12 -665 -18 -551 -10 -948 -24 -1045 -36
-22 -3 -143 -12 -270 -20 -245 -16 -439 -33 -467 -41 -11 -3 -18 -15 -18 -31
l0 -26 88 7 c48 3 184 13 302 21 118 9 269 20 335 25 214 18 842 40 1150 39
324 0 662 16 682 33 18 15 16 36 -4 45 -10 5 -49 5 -88 2z"/>
<path d="M20918 7278 c-8 -7 -49 -58 -91 -113 -41 -55 -98 -126 -126 -158 -28
-32 -91 -117 -140 -190 -50 -73 -136 -184 -192 -247 -180 -204 -237 -281 -295
-395 -52 -103 -56 -118 -63 -205 -5 -52 -9 -87 -10 -78 -3 44 -43 341 -55 407
-13 83 -36 111 -61 78 -7 -10 -11 -26 -9 -35 2 -9 13 -87 24 -172 11 -85 29
-213 40 -285 11 -71 20 -157 20 -191 0 -59 11 -84 37 -84 8 0 18 11 23 24 5
14 19 26 32 28 23 3 23 4 28 193 l5 190 41 85 c48 100 118 195 284 385 67 77
159 194 203 260 44 66 105 150 136 186 31 37 88 110 126 163 39 52 75 95 82
96 7 0 17 9 23 19 7 15 6 23 -6 35 -19 19 -35 20 -56 4z"/>
<path d="M6260 7046 c-65 -34 -136 -109 -228 -239 -132 -187 -198 -298 -410
-692 l-92 -170 -503 3 c-276 1 -555 7 -619 12 -64 6 -174 10 -245 10 -70 0
-184 6 -253 14 -352 41 -972 75 -1100 62 -36 -4 -666 -11 -1400 -16 -734 -5
-1352 -12 -1372 -16 -34 -6 -38 -9 -38 -36 l0 -30 108 8 c59 4 575 8 1147 9
572 1 1216 5 1430 9 446 10 732 -1 1100 -38 319 -33 650 -48 1227 -55 l477 -6
-145 -260 c-80 -143 -191 -350 -246 -460 -55 -110 -177 -345 -271 -522 l-171
-322 -216 5 c-118 3 -240 2 -270 -3 -50 -7 -55 -11 -55 -33 l0 -25 247 0 c135
0 249 -3 253 -6 18 -18 -343 -636 -485 -829 -39 -52 -114 -165 -168 -249 -75
-120 -118 -176 -190 -249 -92 -92 -108 -123 -69 -130 25 -5 118 77 186 163 31
39 96 134 145 211 49 78 124 189 167 249 43 59 124 182 180 274 111 181 575
1044 751 1396 175 348 416 775 446 786 19 7 23 15 19 35 -3 19 7 47 34 95 22
38 76 137 120 221 159 301 353 601 450 700 50 50 115 88 151 88 55 0 96 -59
129 -187 26 -102 25 -324 -1 -605 -39 -406 -68 -573 -176 -998 -75 -295 -94
-356 -259 -821 -140 -393 -175 -481 -308 -775 -396 -872 -493 -1071 -677
-1379 -59 -99 -139 -244 -179 -321 -49 -98 -101 -182 -169 -270 -308 -407
-442 -605 -542 -802 -82 -162 -101 -189 -438 -617 -56 -71 -102 -135 -102
-142 0 -16 33 -34 46 -25 13 9 418 530 460 592 17 25 68 117 113 205 45 88
111 201 147 250 36 50 97 135 136 190 39 55 129 177 200 271 99 132 149 210
216 340 49 93 129 237 179 319 114 190 246 444 363 700 223 485 402 880 443
981 44 108 290 794 340 949 33 103 136 509 176 690 88 409 140 1076 98 1263
-22 100 -74 201 -116 230 -45 29 -111 29 -171 -2z"/>
<path d="M20770 6965 c-9 -11 -9 -34 0 -107 7 -51 16 -103 21 -115 8 -22 42
-32 53 -15 7 12 -16 226 -27 240 -13 16 -32 15 -47 -3z"/>
<path d="M39447 6813 c-21 -20 10 -53 180 -193 103 -85 309 -258 457 -384 149
-126 350 -287 446 -359 96 -71 194 -148 216 -169 44 -42 76 -47 82 -14 6 27
-25 55 -233 211 -104 79 -248 192 -319 251 -496 420 -793 664 -807 664 -9 0
-19 -3 -22 -7z"/>
<path d="M12655 6780 c-389 -16 -828 -31 -1180 -40 -410 -11 -605 -26 -840
-65 -235 -40 -259 -47 -263 -73 -2 -13 3 -24 11 -28 9 -3 78 6 154 20 333 61
501 75 1068 87 259 5 551 14 650 19 99 6 335 12 525 16 190 3 355 7 368 10 28
6 30 39 3 54 -21 11 -227 11 -496 0z"/>
<path d="M9010 6219 c-402 -28 -453 -33 -464 -51 -8 -13 -7 -21 4 -33 13 -13
45 -12 280 5 280 21 646 27 964 14 155 -6 183 -4 194 8 25 31 4 45 -76 51
-141 12 -765 16 -902 6z"/>
<path d="M12005 6189 c-878 -7 -1449 -16 -1501 -25 -36 -5 -51 -36 -28 -55 11
-9 157 -8 632 5 339 9 869 16 1178 16 422 0 563 3 572 12 17 17 15 36 -5 45
-10 4 -391 5 -848 2z"/>
<path d="M62 5927 c-17 -21 -5 -45 26 -51 54 -11 292 -26 452 -28 91 -1 376 2
635 7 391 6 515 5 735 -9 146 -9 447 -23 670 -31 223 -8 423 -18 445 -21 48
-7 1047 -24 1774 -31 550 -4 553 -4 530 38 -8 16 -48 18 -506 22 -803 8 -1665
25 -1843 36 -91 5 -295 15 -455 21 -159 5 -416 18 -570 27 -232 13 -386 15
-915 10 -579 -6 -786 -2 -926 19 -29 4 -44 2 -52 -9z"/>
<path d="M106 5781 c-3 -4 3 -121 14 -259 10 -137 24 -357 29 -488 6 -132 14
-264 17 -294 3 -30 9 -562 13 -1181 6 -1188 5 -1165 49 -1157 14 3 15 117 13
988 -2 941 -7 1230 -31 1710 -14 282 -44 663 -54 678 -8 14 -42 16 -50 3z"/>
<path d="M7274 5695 c-3 -8 2 -160 11 -337 15 -294 21 -603 41 -2306 5 -415 8
-474 22 -479 17 -7 39 4 312 165 216 127 507 313 675 432 61 42 147 96 192
119 87 45 99 59 79 87 -13 16 -19 15 -97 -26 -46 -23 -127 -72 -179 -109 -136
-94 -309 -208 -462 -304 -139 -87 -461 -277 -470 -277 -4 0 -9 210 -12 468 -3
257 -10 807 -15 1222 -8 674 -31 1325 -47 1351 -9 14 -44 10 -50 -6z"/>
<path d="M4103 5664 c-7 -18 3 -358 17 -593 6 -86 15 -255 21 -376 13 -270 16
-290 49 -290 30 0 29 -13 10 340 -6 127 -19 383 -28 570 -10 187 -21 346 -25
353 -11 17 -36 15 -44 -4z"/>
<path d="M3951 5636 c-8 -10 -6 -42 9 -129 29 -173 40 -372 40 -769 0 -337 1
-358 18 -367 40 -21 42 -5 42 409 0 409 -8 558 -40 744 -20 117 -39 148 -69
112z"/>
<path d="M7114 5619 c-4 -6 -4 -295 0 -641 l8 -630 -39 6 c-95 15 -547 57
-559 52 -15 -6 -19 -42 -5 -50 6 -4 565 -66 595 -66 3 0 6 -11 6 -25 l0 -25
-336 -2 c-313 -3 -338 -4 -348 -21 -9 -14 -7 -21 7 -31 14 -11 83 -13 347 -8
l330 5 0 -304 c-1 -409 29 -1259 46 -1341 11 -48 58 -47 69 2 4 16 1 38 -4 49
-21 39 -31 353 -42 1316 -6 534 -14 1139 -17 1345 -7 374 -7 375 -29 378 -11
2 -24 -2 -29 -9z"/>
<path d="M41227 5333 c-15 -14 -6 -44 16 -52 12 -4 137 -13 277 -20 527 -24
669 -40 918 -101 65 -16 142 -32 170 -36 l52 -7 0 31 c0 28 -4 32 -37 37 -21
4 -96 20 -168 37 -275 63 -346 71 -834 98 -436 23 -386 22 -394 13z"/>
<path d="M10820 5135 c-97 -16 -405 -115 -495 -158 -38 -19 -113 -62 -165 -97
-101 -66 -394 -213 -522 -260 -43 -16 -144 -63 -225 -104 -123 -63 -165 -90
-248 -163 -122 -108 -343 -322 -356 -345 -12 -22 -1 -48 19 -48 9 0 77 60 152
133 246 240 304 287 462 367 78 40 180 87 227 105 140 54 414 191 513 256 135
89 203 120 398 183 199 65 332 89 469 84 79 -2 95 0 104 14 8 12 7 21 -2 32
-11 13 -35 16 -135 15 -66 -1 -155 -7 -196 -14z"/>
<path d="M3710 4430 c-85 -44 -274 -138 -420 -209 -320 -157 -852 -432 -1085
-560 -93 -51 -258 -142 -365 -201 -107 -59 -292 -155 -410 -213 -118 -58 -289
-147 -380 -196 -91 -49 -229 -124 -306 -166 -147 -79 -434 -258 -446 -278 -10
-16 -5 -28 14 -41 13 -7 46 10 155 81 150 98 320 196 453 263 47 23 158 83
248 132 89 49 242 128 340 175 162 79 265 133 727 389 88 49 212 115 275 147
63 33 250 129 415 215 165 86 388 198 495 249 107 51 262 127 343 169 126 65
148 80 145 98 -2 12 -11 22 -23 23 -11 2 -90 -33 -175 -77z"/>
<path d="M8585 4484 c-99 -7 -406 -17 -682 -23 -277 -5 -507 -12 -513 -16 -12
-8 -13 -42 -1 -49 16 -10 1074 14 1271 29 107 8 243 15 301 15 111 0 139 10
125 45 -4 13 -31 15 -163 14 -87 -1 -239 -8 -338 -15z"/>
<path d="M4274 4425 c-4 -8 -1 -22 6 -30 10 -12 46 -15 199 -15 102 0 192 4
199 9 8 5 12 17 10 27 -3 18 -17 19 -206 22 -174 2 -203 0 -208 -13z"/>
<path d="M3929 4306 c-47 -24 -125 -67 -174 -95 -48 -29 -140 -78 -204 -110
-130 -66 -778 -371 -786 -371 -19 0 -269 -119 -420 -201 -99 -53 -369 -193
-600 -311 -493 -252 -706 -373 -905 -511 -80 -55 -194 -131 -255 -167 -78 -48
-111 -73 -113 -89 -4 -27 22 -38 53 -21 20 11 27 11 41 -1 14 -12 198 -14
1157 -17 l1140 -3 -94 -53 c-80 -45 -96 -51 -105 -38 -9 12 -17 13 -42 4 -71
-25 -347 -34 -822 -28 -1278 16 -1507 17 -1540 9 -37 -10 -50 -34 -31 -57 16
-19 109 -30 127 -15 11 9 146 10 587 3 871 -13 1467 -11 1555 5 40 7 76 11 78
8 3 -3 -14 -16 -38 -29 -195 -110 -302 -173 -422 -250 -76 -50 -190 -118 -252
-153 -62 -35 -154 -96 -205 -135 -51 -39 -124 -90 -163 -112 -76 -45 -123 -89
-215 -203 -73 -91 -116 -167 -177 -311 -83 -197 -115 -393 -117 -729 -2 -192
-1 -202 23 -260 24 -57 27 -60 62 -63 l37 -3 -27 58 c-26 55 -27 67 -30 233
-6 322 28 546 112 747 60 142 105 216 199 329 59 71 95 104 155 141 42 26 122
81 177 123 55 42 141 98 190 124 50 27 158 93 240 146 83 53 213 132 290 175
77 44 197 114 266 156 158 97 223 129 326 163 83 28 251 122 422 238 108 73
123 90 100 113 -14 14 -27 8 -140 -66 -173 -113 -300 -187 -371 -215 -55 -23
-62 -24 -77 -10 -16 14 -133 16 -1062 17 -574 1 -1093 4 -1153 8 l-109 6 109
72 c60 39 155 102 211 141 156 106 389 235 848 470 231 118 501 258 600 312
99 54 259 131 355 173 167 72 671 307 850 397 47 23 132 70 190 103 58 34 144
80 193 104 85 42 99 57 75 81 -17 17 -24 15 -119 -32z"/>
<path d="M8360 4319 c-522 -6 -833 -17 -907 -34 -27 -6 -32 -42 -7 -52 8 -3
104 0 212 7 108 7 461 15 784 19 534 5 589 8 604 23 26 26 2 48 -50 46 -22 -1
-309 -5 -636 -9z"/>
<path d="M8824 3911 c-51 -22 -105 -119 -125 -224 -23 -124 11 -396 62 -503
42 -89 132 -168 262 -233 327 -162 646 -282 984 -370 84 -22 244 -76 355 -119
112 -44 266 -96 343 -117 222 -59 223 -59 517 -177 264 -106 281 -112 293 -94
22 29 8 43 -68 72 -40 15 -164 65 -277 111 -135 56 -266 101 -385 133 -237 65
-214 57 -424 139 -101 40 -245 88 -320 107 -430 110 -1004 345 -1136 465 -107
98 -133 177 -142 424 -5 147 -3 165 16 217 33 86 57 111 98 105 44 -8 129 -57
230 -134 100 -76 201 -142 280 -181 82 -42 292 -115 310 -108 8 3 13 15 11 28
-3 24 -12 28 -184 91 -118 43 -213 98 -360 208 -172 128 -287 182 -340 160z"/>
<path d="M8631 3250 c-13 -11 -67 -46 -120 -77 -117 -69 -486 -313 -573 -379
-35 -26 -107 -85 -161 -131 -116 -99 -89 -81 -359 -227 -119 -64 -227 -125
-239 -135 -24 -19 -21 -47 5 -57 8 -3 79 30 158 74 79 43 195 107 258 141 80
43 147 90 220 153 125 107 244 193 483 348 407 264 392 253 392 280 0 32 -31
37 -64 10z"/>
<path d="M15812 3087 c-6 -7 -9 -29 -6 -48 6 -39 -33 -173 -74 -254 -89 -178
-239 -328 -532 -535 -154 -109 -389 -232 -550 -288 -137 -48 -420 -162 -490
-197 -66 -33 -308 -127 -390 -151 -25 -7 -160 -42 -300 -78 -310 -78 -312 -79
-308 -109 2 -17 9 -22 33 -21 17 1 163 35 325 76 301 77 480 137 685 230 61
28 155 68 210 89 55 21 154 59 220 84 200 76 445 204 595 310 307 216 463 372
554 553 40 79 86 225 86 272 0 67 -30 101 -58 67z"/>
<path d="M8775 2839 c-10 -16 2 -54 55 -166 131 -278 184 -318 630 -476 287
-101 330 -114 601 -177 137 -32 302 -79 424 -121 303 -105 570 -186 770 -234
588 -142 1029 -205 1432 -205 227 0 232 0 238 21 4 12 2 26 -4 32 -6 6 -79 9
-205 8 -377 -4 -833 63 -1461 214 -177 42 -353 95 -720 215 -172 56 -346 106
-480 135 -221 50 -293 72 -600 180 -317 112 -404 160 -475 264 -40 60 -110
197 -142 279 -12 30 -22 42 -37 42 -11 0 -23 -5 -26 -11z"/>
<path d="M15835 2586 c-15 -11 -15 -20 -1 -121 25 -182 62 -376 121 -645 76
-343 76 -393 4 -368 -37 13 -52 41 -143 264 -140 343 -227 542 -241 554 -19
16 -45 6 -45 -17 0 -10 42 -117 94 -238 51 -121 122 -291 157 -378 40 -98 77
-173 97 -198 83 -97 202 -62 202 61 0 34 -34 208 -85 432 -42 183 -115 599
-115 654 0 10 -31 10 -45 0z"/>
<path d="M8940 2308 c-5 -13 -25 -133 -45 -268 -43 -293 -58 -370 -135 -690
-76 -316 -84 -359 -78 -422 6 -60 40 -98 87 -98 65 0 102 60 171 280 23 74 69
207 102 295 33 88 78 211 99 272 50 145 100 265 156 375 47 93 52 133 18 133
-15 0 -32 -22 -67 -90 -46 -89 -149 -338 -183 -445 -10 -30 -40 -113 -67 -184
-27 -72 -79 -218 -114 -325 -40 -122 -73 -207 -89 -226 -24 -29 -25 -29 -40
-11 -8 11 -15 33 -15 48 0 33 32 181 94 438 24 102 54 232 65 290 32 158 100
621 94 637 -8 21 -43 15 -53 -9z"/>
<path d="M3143 1828 c-11 -14 -174 -583 -198 -688 -53 -239 -63 -567 -25 -859
11 -90 23 -168 26 -173 9 -14 44 -9 50 7 3 8 1 54 -6 102 -26 194 -30 255 -30
423 -1 293 21 419 153 875 84 289 90 325 53 325 -8 0 -18 -6 -23 -12z"/>
<path d="M13274 1294 c-7 -26 0 -159 27 -594 13 -206 -1 -522 -26 -608 -14
-45 -19 -53 -38 -50 -25 4 -58 57 -87 143 -41 123 -152 618 -189 843 -21 128
-43 238 -49 244 -13 13 -52 0 -52 -18 0 -45 77 -476 111 -624 97 -415 144
-563 194 -610 19 -17 32 -21 81 -18 56 3 60 5 76 38 10 20 23 72 29 115 16
109 17 529 1 760 -7 105 -16 237 -20 295 -7 98 -8 105 -29 108 -17 3 -24 -3
-29 -24z"/>
</g>
</svg>
