<?xml version="1.0" standalone="no"?>
<!DOCTYPE svg PUBLIC "-//W3C//DTD SVG 20010904//EN"
 "http://www.w3.org/TR/2001/REC-SVG-20010904/DTD/svg10.dtd">
<svg version="1.0" xmlns="http://www.w3.org/2000/svg"
 width="640.000000pt" height="350.000000pt" viewBox="0 0 640.000000 350.000000"
 preserveAspectRatio="xMidYMid meet">
<metadata>
Created by potrace 1.16, written by Peter Selinger 2001-2019
</metadata>
<g transform="translate(0.000000,350.000000) scale(0.100000,-0.100000)"
fill="#000000" stroke="none">
<path d="M3906 3383 c-1 -1 -168 -5 -372 -9 -351 -5 -435 -12 -449 -34 -7 -12
12 -407 25 -518 5 -41 5 -86 0 -100 -5 -15 -12 -171 -16 -347 -11 -480 -10
-543 2 -555 11 -11 250 -18 609 -19 66 0 129 -1 140 -2 49 -3 162 -6 305 -8
90 -2 167 -8 183 -14 25 -11 27 -16 27 -72 0 -42 8 -78 26 -120 14 -33 34 -82
45 -109 10 -27 33 -65 51 -84 31 -32 138 -92 165 -92 28 0 21 -21 -11 -37 -20
-9 -36 -20 -36 -24 0 -12 92 -85 135 -107 116 -58 233 -67 344 -26 93 34 143
79 184 165 l34 69 12 -54 c6 -29 25 -72 42 -94 24 -34 28 -45 20 -61 -27 -49
3 -65 95 -52 79 12 149 -3 138 -29 -3 -8 -13 -69 -20 -135 -14 -118 -56 -299
-75 -321 -9 -11 -3 -24 12 -24 9 0 29 53 39 105 5 22 13 58 19 80 6 22 15 81
21 130 15 128 29 184 50 195 22 12 43 138 35 213 -6 50 -5 53 26 72 18 11 34
25 36 32 3 7 -19 24 -46 38 l-51 25 21 29 c11 16 19 37 17 47 -3 16 -11 19
-58 16 -54 -3 -55 -3 -69 30 -19 44 -174 192 -228 218 -24 11 -43 24 -43 30 0
5 -22 39 -50 75 -27 36 -50 69 -50 73 0 15 -68 52 -130 71 -228 70 -356 74
-487 16 -31 -14 -58 -24 -60 -22 -6 7 -6 722 0 742 4 11 11 146 16 300 9 252
8 281 -6 292 -12 9 -93 12 -315 10 -165 -1 -301 -3 -302 -4z m590 -13 l27 -11
-8 -222 c-4 -122 -10 -251 -14 -287 l-6 -65 -35 -3 c-81 -6 -100 -12 -100 -34
0 -20 -3 -20 -207 -17 -115 2 -353 0 -530 -4 -314 -8 -322 -8 -342 12 -15 15
-36 21 -82 23 -61 3 -63 4 -70 33 -4 17 -12 130 -18 253 -6 122 -12 226 -12
230 -6 40 3 61 29 66 29 6 354 15 942 26 206 3 380 7 387 8 6 1 24 -3 39 -8z
m-4 -962 c-2 -194 -6 -355 -8 -357 -2 -2 -37 4 -77 13 -40 10 -105 17 -143 16
-44 -1 -96 6 -144 19 -41 11 -85 21 -97 21 -14 0 -23 6 -23 15 0 28 -40 35
-215 36 -138 1 -180 -2 -190 -12 -9 -9 -17 -60 -23 -139 -11 -151 -6 -160 87
-160 88 0 129 -10 134 -31 5 -17 1 -19 -36 -14 -23 3 -176 7 -340 9 -163 3
-302 8 -308 12 -11 7 -9 210 7 679 9 250 3 235 92 235 46 0 52 -2 52 -20 0
-21 2 -21 553 -17 551 4 552 5 562 26 8 18 18 21 65 21 l55 0 -3 -352z m-514
-272 c11 -11 -5 -14 -84 -20 -99 -8 -152 -22 -180 -51 -9 -8 -27 -15 -40 -15
-39 0 -64 -18 -64 -45 0 -20 5 -25 25 -25 27 0 34 -15 10 -24 -19 -7 -20 -52
0 -60 8 -3 51 -1 95 4 48 5 90 6 103 0 l22 -9 -22 0 c-12 -1 -25 -6 -28 -11
-7 -12 -205 -2 -219 11 -9 8 -9 198 0 236 8 30 25 32 209 26 110 -3 164 -9
173 -17z m117 -47 c120 -31 117 -28 84 -95 -16 -31 -29 -71 -29 -88 0 -29 -4
-33 -62 -53 -110 -39 -180 -49 -230 -33 -24 7 -47 16 -51 20 -14 12 17 28 58
32 27 2 41 8 43 19 4 20 -55 32 -138 28 -30 -1 -68 -2 -85 -3 -70 -2 -20 50
61 65 26 5 53 14 59 20 7 9 3 10 -15 5 -52 -15 -157 -19 -165 -6 -14 22 14 33
115 43 55 6 100 15 100 20 0 5 -23 6 -52 2 -48 -5 -51 -4 -35 9 11 8 51 17 90
20 65 6 115 10 158 14 8 1 51 -7 94 -19z m815 -18 c133 -27 225 -63 253 -96
110 -138 138 -190 162 -303 16 -78 19 -143 8 -205 -12 -74 -201 -233 -304
-256 -86 -19 -237 26 -357 107 -54 36 -172 177 -206 247 -34 71 -53 199 -36
251 11 33 15 36 42 30 17 -3 41 -6 55 -6 21 0 23 -3 18 -22 -4 -13 -8 -25 -9
-28 0 -3 4 -6 9 -7 6 -1 12 -12 15 -24 10 -40 25 -30 26 18 2 44 1 46 -13 28
-15 -20 -15 -20 -11 0 4 22 27 24 111 11 29 -5 47 -5 47 1 0 6 -48 18 -107 27
-181 28 -166 22 -160 67 10 76 76 132 195 164 68 19 154 17 262 -4z m-485 -28
c68 -21 68 -21 45 -51 -67 -87 -81 -108 -90 -141 -5 -20 -10 -42 -10 -48 0
-18 -4 -17 -101 23 -90 37 -99 46 -99 105 0 25 52 117 74 131 16 10 122 -1
181 -19z m-4 -197 c-30 -37 -14 -202 29 -291 11 -23 52 -81 90 -128 39 -48 64
-87 57 -87 -7 0 -34 13 -59 29 -46 29 -98 101 -98 135 0 10 -8 30 -19 44 -33
49 -44 100 -39 191 6 90 37 190 45 143 3 -13 0 -29 -6 -36z m999 -137 c68 -60
130 -133 130 -154 0 -3 -21 -5 -47 -5 -27 -1 -68 -5 -93 -10 -25 -4 -47 -7
-49 -4 -2 2 -5 27 -7 56 -4 59 -22 144 -36 171 -19 38 24 15 102 -54z m244
-191 c-18 -33 -40 -48 -66 -48 -39 0 -27 -16 17 -23 37 -6 105 -43 105 -56 0
-4 -10 -13 -22 -18 -19 -9 -26 -7 -45 16 -29 35 -39 21 -14 -20 17 -27 21 -51
21 -114 0 -80 -14 -155 -29 -155 -4 0 -8 35 -8 78 -1 42 -6 89 -12 105 -13 33
-36 38 -24 5 4 -13 8 -59 8 -103 0 -72 -2 -80 -20 -83 -19 -3 -19 -2 -2 11 20
17 23 41 4 34 -9 -3 -13 2 -13 15 1 12 -5 23 -11 25 -9 3 -13 -5 -13 -24 0
-15 -5 -35 -11 -43 -11 -16 -11 -8 6 83 5 24 3 37 -3 37 -6 0 -16 -26 -23 -59
-6 -32 -14 -63 -18 -68 -8 -13 -89 -24 -96 -13 -3 5 -1 29 6 53 12 50 7 101
-6 60 -4 -13 -11 -23 -15 -23 -10 0 -46 76 -63 137 l-15 53 39 10 c27 8 46 21
58 41 10 17 21 30 25 30 3 -1 20 -1 36 -1 38 0 40 20 3 21 -24 2 -25 2 -5 6
32 6 27 26 -5 21 -16 -3 -34 -7 -42 -9 -7 -2 -15 1 -18 8 -5 15 31 19 170 21
84 2 107 -1 101 -10z m-410 -220 c-24 -79 -113 -155 -213 -184 -110 -33 -283
10 -380 93 l-34 29 33 21 33 21 66 -33 c85 -42 209 -67 273 -55 45 9 170 82
198 115 19 22 32 18 24 -7z"/>
<path d="M3999 3336 c-2 -2 -189 -7 -416 -10 -226 -3 -419 -9 -428 -12 -15 -6
-16 -29 -9 -253 3 -135 7 -252 8 -258 4 -24 1285 -17 1310 7 5 5 10 125 10
267 l1 258 -236 3 c-129 1 -237 0 -240 -2z"/>
<path d="M4349 2686 c-7 -7 -394 -15 -756 -15 -208 -1 -323 -5 -323 -11 0 -5
16 -10 35 -10 24 0 35 -5 35 -15 0 -22 -59 -20 -76 3 -14 17 -15 0 -18 -333
l-1 -80 505 -1 c278 0 520 -4 537 -8 70 -16 70 -17 77 202 4 108 9 214 12 235
4 28 2 37 -8 37 -8 0 -17 -2 -19 -4z m-183 -332 c-3 -9 -6 -20 -6 -26 0 -7
-59 -8 -177 -5 -98 3 -179 6 -180 6 -2 1 -3 10 -3 21 0 19 7 20 186 20 166 0
185 -2 180 -16z m-238 -76 l-3 -33 -130 -1 c-71 0 -151 -4 -177 -8 l-48 -8 0
34 c0 19 3 38 7 41 3 4 85 7 180 7 l174 0 -3 -32z"/>
<path d="M1680 2853 c-36 -30 -99 -83 -141 -117 -42 -33 -157 -128 -255 -210
-99 -82 -181 -151 -183 -152 -2 -2 15 -24 38 -50 42 -49 50 -68 29 -77 -16 -6
-181 -138 -226 -181 -19 -17 -43 -43 -53 -58 l-20 -28 44 -47 c24 -27 70 -82
103 -123 32 -41 89 -105 126 -142 36 -37 80 -86 96 -110 17 -24 82 -94 146
-156 64 -62 116 -116 116 -120 0 -4 -37 -2 -82 4 -112 17 -268 9 -322 -15 -89
-40 -123 -112 -111 -237 4 -40 13 -81 20 -91 8 -10 15 -28 15 -40 0 -12 37
-100 83 -195 134 -278 135 -326 9 -516 -19 -29 -31 -56 -28 -60 4 -3 10 -2 14
4 4 5 22 31 40 57 18 25 46 75 62 109 38 79 39 138 4 233 -14 39 -25 78 -25
88 0 9 -4 17 -9 17 -4 0 -36 55 -71 122 -68 135 -76 177 -45 237 36 69 117
121 189 121 51 0 86 -30 148 -131 44 -72 47 -94 20 -147 -32 -64 -41 -108 -25
-129 14 -17 15 -17 32 6 9 13 37 45 61 72 l44 50 27 -29 c17 -19 40 -31 67
-35 l42 -7 -22 -48 c-31 -69 -30 -216 2 -289 64 -145 254 -233 407 -188 63 18
149 58 176 82 9 8 22 12 27 8 6 -3 28 3 50 15 l38 22 39 -20 c21 -11 56 -29
78 -40 21 -12 59 -24 85 -28 46 -6 91 -36 91 -61 0 -14 16 -18 24 -5 7 12 -33
70 -55 77 -28 9 -23 22 13 41 42 22 110 21 160 -2 21 -9 41 -14 45 -10 11 11
-9 23 -72 44 -40 14 -61 27 -63 39 -2 10 -14 29 -25 41 l-22 24 24 19 c13 10
33 19 45 19 11 0 53 9 91 20 110 31 124 29 196 -37 63 -59 102 -123 91 -152
-3 -9 -18 -32 -33 -52 -15 -20 -38 -62 -50 -93 -24 -66 -63 -114 -128 -159
-34 -23 -41 -33 -29 -35 25 -5 100 52 136 101 16 23 37 64 46 90 9 27 29 65
45 85 16 20 32 47 35 58 12 39 -23 100 -97 172 -81 78 -257 323 -257 357 0 7
-11 22 -25 33 -14 11 -25 24 -24 29 5 30 -5 46 -42 62 -33 15 -51 34 -83 87
-23 38 -68 110 -100 159 -88 135 -142 225 -160 269 -16 38 -16 40 5 62 18 20
20 26 9 39 -11 13 -9 20 15 45 l27 28 -78 93 c-44 51 -112 126 -152 167 -40
41 -85 95 -100 121 -14 25 -55 89 -89 141 -35 52 -63 98 -63 102 0 14 -106
172 -128 191 -20 18 -22 18 -72 -10 l-52 -28 -44 44 c-41 40 -46 43 -62 28 -9
-8 -51 -38 -92 -66 -41 -28 -110 -80 -153 -116 -43 -36 -81 -65 -85 -65 -14 1
-75 91 -66 99 37 34 512 426 561 464 l62 47 98 -112 c55 -62 144 -167 199
-232 54 -66 111 -133 125 -150 14 -17 70 -89 124 -161 54 -71 117 -151 141
-177 24 -26 44 -52 44 -59 0 -6 -46 -55 -102 -109 -57 -54 -100 -101 -97 -104
3 -3 54 41 113 98 83 80 107 108 102 122 -3 11 -27 42 -52 69 -25 28 -91 111
-147 185 -56 74 -120 155 -142 180 -23 25 -71 81 -106 126 -106 132 -293 344
-304 343 -5 0 -39 -25 -75 -56z m-90 -375 c20 -19 29 -33 22 -36 -7 -2 -38
-23 -70 -46 -111 -81 -398 -273 -439 -295 -24 -12 -43 -28 -43 -36 0 -21 107
-214 155 -280 12 -16 38 -59 57 -95 35 -65 102 -184 152 -272 15 -27 26 -48
24 -48 -11 0 -178 169 -198 200 -13 19 -62 76 -110 125 -47 50 -104 113 -125
140 -21 28 -59 71 -83 97 l-45 47 34 40 c19 22 84 79 145 128 61 48 162 129
223 178 107 86 247 185 260 185 3 0 22 -15 41 -32z m213 -64 c27 -38 60 -91
74 -119 14 -27 54 -93 88 -145 34 -52 75 -117 91 -145 15 -27 42 -68 59 -90
17 -22 64 -97 104 -165 41 -69 81 -133 90 -143 14 -17 14 -20 -4 -33 -11 -8
-26 -12 -35 -8 -8 4 -37 9 -65 11 -27 3 -54 9 -60 13 -10 8 -88 15 -138 12
-37 -3 -101 -61 -92 -85 4 -9 15 -17 25 -17 17 0 100 -122 100 -146 -1 -10
-31 -33 -140 -104 l-75 -49 -124 29 c-68 17 -131 30 -142 30 -17 0 -79 76 -79
97 0 5 -14 31 -32 59 -17 27 -46 76 -64 109 -74 139 -129 233 -164 285 -43 65
-152 252 -148 255 2 1 23 13 48 25 25 12 81 48 124 79 44 31 122 85 175 121
53 36 119 81 146 100 67 46 168 100 180 97 6 -2 32 -35 58 -73z m298 -865 c18
-24 35 -37 37 -30 2 7 -5 23 -17 35 -27 29 -17 39 20 21 15 -8 47 -15 71 -15
33 0 47 -6 65 -27 13 -14 23 -30 23 -35 0 -14 102 -187 175 -296 38 -56 65
-105 62 -108 -4 -4 -28 2 -54 13 -26 12 -79 26 -118 34 -52 9 -79 21 -105 43
-19 17 -67 55 -106 84 -53 39 -80 68 -103 110 -18 31 -41 72 -52 89 -21 33
-19 53 5 53 8 0 32 -30 55 -66 38 -61 70 -81 63 -39 -4 23 -32 65 -42 65 -5 0
-22 14 -39 30 -30 30 -31 31 -62 15 -32 -17 -58 -8 -44 15 14 22 70 50 102 50
25 0 38 -8 64 -41z m12 -272 c34 -29 81 -66 104 -82 24 -17 43 -33 43 -37 0
-17 -197 -8 -298 14 -89 18 -101 23 -89 36 11 11 163 116 175 121 1 0 31 -23
65 -52z m-568 -31 c66 -14 147 -32 180 -39 209 -49 341 -78 359 -78 12 0 73 0
137 1 125 2 194 -11 292 -55 62 -27 76 -50 27 -43 -39 6 -34 -14 6 -23 16 -4
52 -15 79 -25 38 -15 51 -25 53 -43 3 -21 1 -23 -20 -18 -12 4 -55 14 -94 23
-64 15 -70 19 -66 39 7 37 -31 67 -81 64 -28 -2 -59 6 -92 22 -44 21 -62 24
-145 21 -110 -2 -157 -16 -261 -76 l-77 -43 -68 13 c-63 12 -129 12 -307 0
l-48 -4 -38 57 c-54 78 -73 93 -128 98 -82 8 -172 -47 -216 -131 l-21 -41 -9
55 c-23 146 27 229 151 249 85 14 261 3 387 -23z m675 -175 c0 -5 12 -12 27
-16 15 -3 39 -15 54 -26 42 -30 48 -22 9 12 -37 31 -16 30 30 -2 19 -12 38
-16 71 -12 33 4 49 1 55 -8 4 -8 9 -52 9 -99 1 -47 5 -94 9 -105 5 -11 -2 -4
-14 15 -28 44 -29 45 -36 38 -3 -4 1 -17 9 -30 8 -12 20 -49 27 -80 12 -55 12
-59 -18 -133 -38 -94 -70 -134 -174 -223 -128 -107 -252 -160 -347 -147 -69 9
-80 20 -42 39 17 9 29 21 25 27 -3 6 -22 0 -47 -14 -31 -18 -48 -22 -64 -16
-25 9 -31 29 -9 29 8 0 24 9 37 21 25 22 17 21 -42 -4 -47 -21 -67 -9 -44 27
19 29 11 35 -15 11 -15 -13 -19 -13 -38 8 l-21 22 23 48 c13 26 20 50 16 52
-4 3 -17 -14 -28 -38 l-20 -42 -13 30 c-8 18 -13 70 -12 130 0 89 3 107 28
159 16 32 53 85 83 117 53 58 166 140 210 153 19 7 22 4 22 -22 0 -36 13 -42
91 -42 85 0 126 -24 182 -108 26 -37 47 -79 47 -91 0 -12 -16 -39 -34 -59 -41
-42 -39 -58 2 -20 l27 26 19 -25 c15 -20 20 -44 20 -96 1 -39 6 -72 11 -74 6
-2 10 28 10 76 -1 61 -5 84 -18 99 -11 12 -17 35 -17 64 0 35 -6 50 -25 68
-14 13 -25 31 -25 40 0 17 -58 76 -102 103 -19 12 -49 17 -97 17 -38 0 -72 3
-74 8 -3 4 -3 20 0 35 7 34 33 46 118 57 88 11 105 11 105 1z m-468 -102 c29
-6 55 -13 57 -15 3 -3 -17 -26 -45 -52 -27 -26 -59 -60 -70 -77 -19 -25 -28
-29 -65 -28 -36 2 -49 8 -69 33 -14 16 -32 30 -40 30 -26 0 -60 30 -75 67 -8
19 -15 37 -15 39 0 2 46 5 103 7 56 1 116 4 134 5 18 1 56 -3 85 -9z m871
-129 c37 -7 78 -10 91 -8 19 4 28 -2 45 -32 11 -20 50 -78 86 -129 36 -50 65
-93 65 -94 0 -2 -10 -3 -22 -4 -13 -1 -62 -12 -109 -24 -47 -13 -92 -20 -101
-17 -8 4 -30 35 -48 70 -18 34 -41 77 -51 94 l-19 31 47 -8 c37 -7 50 -6 61 5
22 22 7 45 -45 66 -87 37 -123 55 -123 63 0 5 12 6 28 3 15 -2 57 -10 95 -16z
m-73 -128 c0 -10 4 -22 9 -28 4 -5 27 -44 49 -87 37 -70 40 -81 27 -94 -20
-20 -19 -40 5 -70 20 -26 26 -53 12 -53 -5 0 -34 -16 -66 -35 -66 -39 -83 -39
-156 6 -25 15 -55 30 -68 34 -30 9 -23 32 33 100 39 48 105 185 105 218 0 19
10 27 32 27 11 0 18 -7 18 -18z"/>
<path d="M1463 1805 c-18 -8 -42 -29 -53 -47 -63 -104 50 -186 177 -129 48 22
76 66 71 114 -6 65 -112 98 -195 62z m131 -9 c40 -17 47 -26 48 -67 2 -75
-114 -125 -192 -82 -28 16 -36 26 -38 54 -6 78 95 131 182 95z"/>
<path d="M2109 2354 c-11 -14 -86 -73 -132 -105 -17 -12 4 -47 39 -68 l36 -21
69 57 c71 60 80 76 53 91 -8 5 -23 21 -33 36 -17 25 -19 25 -32 10z"/>
<path d="M2148 2178 c-38 -29 -68 -60 -68 -69 0 -10 17 -31 37 -48 l37 -31 25
29 c15 15 45 42 68 60 l41 31 -29 32 c-16 18 -29 36 -29 40 0 16 -16 7 -82
-44z"/>
<path d="M2279 2077 c-19 -17 -48 -42 -65 -53 l-29 -22 39 -40 38 -40 64 50
c35 27 66 53 69 58 5 8 -61 80 -73 80 -4 0 -23 -15 -43 -33z"/>
<path d="M3935 1550 c-83 -28 -219 -83 -320 -127 -60 -27 -128 -80 -120 -93 9
-14 82 7 205 59 175 73 310 138 310 149 0 25 -27 29 -75 12z"/>
<path d="M3154 1249 c-9 -10 -28 -19 -42 -21 -30 -4 -35 -17 -51 -141 l-12
-88 36 -75 c32 -66 42 -78 78 -93 45 -20 114 -88 109 -108 -6 -26 33 -79 118
-162 53 -53 95 -103 107 -131 24 -53 34 -63 171 -160 87 -61 121 -79 220 -112
105 -35 125 -39 197 -35 62 2 99 11 163 37 45 18 83 31 85 29 1 -2 15 -30 31
-62 28 -55 69 -97 83 -84 3 4 -7 21 -23 39 -28 32 -71 115 -63 121 12 8 274
129 332 152 37 16 70 32 73 37 9 15 -30 8 -76 -13 -25 -11 -72 -31 -106 -44
-33 -12 -85 -36 -115 -53 -88 -49 -318 -134 -379 -139 -45 -4 -77 2 -180 36
-77 25 -144 54 -175 76 -27 19 -81 56 -119 81 -75 52 -102 88 -112 150 -6 42
18 160 36 178 12 12 13 26 1 26 -14 0 -44 -69 -56 -128 l-11 -53 -76 74 c-96
93 -109 117 -97 180 4 26 13 56 19 67 14 27 50 50 77 50 32 0 114 -52 208
-131 74 -62 151 -106 215 -122 14 -4 45 -24 69 -45 l45 -39 -24 -54 c-18 -41
-23 -73 -24 -138 -1 -48 3 -86 9 -88 6 -2 10 29 10 80 1 68 6 92 29 144 15 34
38 70 50 81 20 19 91 62 101 62 3 0 5 -17 5 -38 0 -48 17 -71 84 -116 63 -42
86 -52 86 -38 0 5 -29 28 -65 51 -36 23 -69 51 -75 61 -14 27 -12 66 5 99 19
38 115 125 195 177 36 23 76 52 89 64 23 23 24 23 103 7 104 -20 143 -47 192
-130 44 -76 68 -81 31 -6 -52 101 -97 132 -250 165 -35 8 -40 13 -37 34 1 13
15 37 30 53 31 33 166 127 182 127 5 0 10 5 10 10 0 19 -26 10 -95 -36 -93
-62 -143 -111 -151 -148 -8 -41 -35 -69 -124 -129 -41 -28 -100 -76 -132 -107
-31 -31 -87 -76 -125 -99 -37 -23 -75 -47 -85 -53 -13 -10 -24 -6 -60 24 -25
20 -80 50 -124 67 -58 23 -98 47 -149 92 -38 33 -106 82 -150 108 -78 46 -81
49 -107 115 -15 37 -36 80 -47 95 -18 25 -19 29 -4 44 14 13 14 19 3 32 -8 10
-22 14 -35 11 -15 -4 -28 1 -40 14 -18 20 -18 21 1 35 15 11 17 17 8 32 -15
25 -78 26 -100 2z m138 -168 c19 -23 43 -65 52 -94 9 -29 21 -58 26 -66 6 -11
-3 -25 -36 -54 -24 -21 -44 -46 -44 -55 -1 -43 -17 -46 -50 -9 -18 21 -46 41
-64 45 -25 6 -38 20 -68 77 -43 81 -45 96 -18 113 12 7 18 17 15 22 -4 6 -11
7 -17 4 -6 -4 -7 16 -3 62 7 65 18 94 35 94 13 0 18 -36 8 -55 -13 -22 20 -85
44 -85 24 0 23 31 -3 82 -17 34 -19 45 -9 67 11 25 12 25 54 -41 23 -36 58
-84 78 -107z"/>
</g>
</svg>
